<svg version="1.1" id="Layer_1" xmlns="http://www.w3.org/2000/svg" xmlns:xlink="http://www.w3.org/1999/xlink" x="0px" y="0px"
	 width="100%" viewBox="0 0 496 496" enable-background="new 0 0 496 496" xml:space="preserve">
<path fill="#000000" opacity="1.000000" stroke="none" 
	d="
M256.670593,259.503693 
	C253.719116,271.564667 255.975693,269.204834 244.997986,269.314240 
	C241.714203,269.346985 238.378220,269.859497 234.816299,268.846558 
	C233.930466,265.450500 235.457993,262.309387 236.167053,259.203217 
	C242.263687,232.495850 248.580368,205.838699 254.672714,179.130356 
	C255.525696,175.390900 257.179962,173.679474 261.090424,173.947449 
	C264.402557,174.174408 267.753937,174.126556 271.070435,173.919586 
	C275.519867,173.641891 276.395660,175.334839 275.385071,179.565033 
	C269.405426,204.595154 263.655487,229.680176 257.827454,254.746536 
	C257.489075,256.201965 257.143372,257.655701 256.670593,259.503693 
z"/>
<path fill="#000000" opacity="1.000000" stroke="none" 
	d="
M104.687332,218.001007 
	C104.696991,212.850098 104.762268,208.198090 104.696068,203.547958 
	C104.657219,200.818588 105.850533,199.594559 108.577644,199.680664 
	C110.900635,199.754013 113.228333,199.664780 115.553848,199.673981 
	C126.359550,199.716782 131.466446,208.167145 126.426125,217.978943 
	C125.475647,219.829208 125.363953,220.874268 126.352798,222.793976 
	C129.607971,229.113495 129.028305,235.645737 126.187973,241.979568 
	C124.936501,244.770325 122.492317,246.053787 119.427666,246.347778 
	C104.674561,247.763000 104.676926,247.784195 104.684166,232.952988 
	C104.686523,228.135544 104.686600,223.318115 104.687332,218.001007 
M117.003189,235.760498 
	C118.416061,232.399628 118.462646,229.176453 116.424316,225.248108 
	C114.380920,230.318832 114.459129,232.638306 117.003189,235.760498 
M114.968925,213.193787 
	C115.158867,214.231796 114.793350,215.555344 116.935608,216.036911 
	C117.710144,213.566940 118.401367,211.266876 116.402695,208.864700 
	C114.683594,209.834808 115.126488,211.260269 114.968925,213.193787 
z"/>
<path fill="#000000" opacity="1.000000" stroke="none" 
	d="
M218.167007,238.187012 
	C217.333725,241.371490 220.330643,245.798126 214.621552,246.372757 
	C208.582932,246.980576 207.695892,246.254120 207.683685,240.064651 
	C207.661026,228.564865 207.735794,217.064438 207.635056,205.565475 
	C207.604019,202.020660 207.849152,199.580917 212.566940,199.540817 
	C217.239899,199.501099 218.389404,201.615326 218.174698,205.576172 
	C218.120819,206.569992 218.166611,207.569229 218.166611,209.767075 
	C219.628128,205.901581 219.985703,202.410614 221.914825,200.542755 
	C223.999680,198.524124 227.537018,199.539780 230.682663,200.298630 
	C230.826248,208.278931 225.687439,215.384521 226.936813,223.169800 
	C228.138290,230.656815 230.433044,237.968384 232.237793,245.317749 
	C223.661697,247.898346 222.157639,247.059402 220.367920,239.246948 
	C219.824951,236.876877 219.183868,234.529282 218.179947,232.256302 
	C218.179947,234.084335 218.179947,235.912369 218.167007,238.187012 
z"/>
<path fill="#000000" opacity="1.000000" stroke="none" 
	d="
M154.964386,221.279953 
	C155.584671,215.537323 156.362717,210.261078 156.614365,204.959824 
	C156.789368,201.273148 157.916504,199.635468 161.914902,199.597641 
	C172.886368,199.493820 173.147827,199.301712 174.621353,210.328949 
	C176.072891,221.191422 176.907913,232.135986 178.033463,243.042480 
	C178.244537,245.087921 177.445786,246.414551 175.345261,246.291458 
	C172.765732,246.140305 169.505203,247.755814 168.158859,243.774185 
	C167.632538,242.217636 168.352417,239.564285 165.620544,239.601166 
	C163.037796,239.636002 163.498886,242.092346 162.999115,243.753326 
	C161.718689,248.008698 158.225235,246.429260 155.480423,246.381989 
	C152.135895,246.324371 152.687210,243.650909 152.876160,241.574219 
	C153.478424,234.954865 154.213623,228.347595 154.964386,221.279953 
M164.376465,227.628082 
	C164.555176,228.514175 164.247986,229.735916 166.181305,229.686295 
	C167.472122,225.192993 165.040054,220.785263 165.384277,216.303497 
	C165.043167,219.831512 164.702057,223.359528 164.376465,227.628082 
z"/>
<path fill="#000000" opacity="1.000000" stroke="none" 
	d="
M350.000000,309.898315 
	C311.361908,309.892426 273.223663,309.943176 235.085709,309.865234 
	C202.115326,309.797852 169.145264,309.579224 136.175018,309.438660 
	C127.524673,309.401794 118.871826,309.285553 110.224838,309.451447 
	C106.719673,309.518707 105.551033,308.207458 105.609642,304.787781 
	C105.763733,295.797180 105.728088,286.801514 105.629150,277.809387 
	C105.596886,274.877075 106.625511,273.457733 109.675919,273.630920 
	C111.667084,273.744019 113.671333,273.614777 115.669724,273.614410 
	C173.792740,273.603668 231.915741,273.590393 290.038757,273.588623 
	C325.982422,273.587524 361.926086,273.597076 397.869720,273.633514 
	C399.825989,273.635498 401.857422,273.229401 404.244141,274.461395 
	C404.244141,285.005920 404.289124,295.777557 404.217316,306.548431 
	C404.195221,309.862610 401.509277,309.277679 399.441895,309.402130 
	C383.136627,310.383362 366.813751,309.700165 350.000000,309.898315 
M260.499878,307.598663 
	C305.801605,307.595459 351.103455,307.537048 396.404785,307.672577 
	C401.042297,307.686432 403.043579,306.565308 402.746429,301.555115 
	C402.352661,294.916443 402.362061,288.220215 402.745667,281.580322 
	C403.023010,276.779572 401.487061,275.253754 396.622620,275.315399 
	C376.815125,275.566376 357.002808,275.448517 337.192291,275.445770 
	C262.244537,275.435272 187.296753,275.440094 112.349121,275.337250 
	C108.275169,275.331665 107.182449,276.958954 107.295143,280.707062 
	C107.495277,287.363037 107.337921,294.029449 107.352493,300.691437 
	C107.367577,307.584290 107.379219,307.595032 114.100960,307.595490 
	C162.567261,307.598724 211.033554,307.597198 260.499878,307.598663 
z"/>
<path fill="#000000" opacity="1.000000" stroke="none" 
	d="
M181.381134,208.861282 
	C183.395737,201.236282 187.290268,198.582275 194.602127,199.521454 
	C201.111572,200.357574 204.416214,204.049484 204.234604,211.103470 
	C204.151474,214.333130 206.558411,219.360916 199.728333,219.289276 
	C196.170319,219.251953 193.915771,218.455353 194.016861,214.360733 
	C194.051407,212.961502 194.361908,211.343338 193.040497,210.182404 
	C190.682632,213.031464 190.393097,231.874695 192.669159,236.024902 
	C194.770737,234.607376 194.018097,232.408997 194.027740,230.582993 
	C194.048370,226.673706 195.908096,225.544617 199.630112,225.566833 
	C203.430313,225.589523 204.696609,227.164963 204.357162,230.691406 
	C204.230316,232.009140 204.352325,233.350021 204.346268,234.680283 
	C204.309494,242.769669 200.859589,246.671555 193.325104,247.151993 
	C186.843964,247.565262 181.369400,243.203873 180.976807,236.153015 
	C180.479279,227.218018 180.152954,218.221527 181.381134,208.861282 
z"/>
<path fill="#000000" opacity="1.000000" stroke="none" 
	d="
M141.989227,230.835602 
	C141.438889,235.787949 142.783722,238.387894 147.925201,237.726959 
	C150.955597,237.337402 151.413086,239.457352 151.438721,241.881149 
	C151.466049,244.465866 151.113815,246.625137 147.776215,246.478195 
	C147.444702,246.463577 147.111053,246.497818 146.778397,246.509140 
	C131.652557,247.023987 131.650665,247.023972 131.647537,231.824066 
	C131.645676,222.834473 131.731262,213.843826 131.611053,204.855865 
	C131.566772,201.544846 132.125732,199.589783 136.174301,199.575958 
	C140.148621,199.562408 142.020874,200.714920 141.964371,204.891266 
	C141.849487,213.379242 141.965485,221.870346 141.989227,230.835602 
z"/>
<path fill="#000000" opacity="1.000000" stroke="none" 
	d="
M270.164673,226.527313 
	C269.915283,224.759628 269.708435,223.437714 269.679718,222.111969 
	C269.553833,216.297791 271.389801,214.870117 277.270233,215.844254 
	C279.567505,216.224792 280.410522,217.507294 280.341339,219.601562 
	C280.252899,222.278259 281.050446,224.761612 281.875885,228.040863 
	C283.511200,223.143753 279.359619,215.810867 288.424286,215.770844 
	C297.732727,215.729752 292.767395,223.529190 295.103668,227.954590 
	C295.642029,225.343109 296.094147,223.298721 296.481506,221.242126 
	C297.464966,216.020798 299.116241,214.915543 304.620148,215.876633 
	C309.218353,216.679581 308.178162,220.274780 307.623749,222.952789 
	C305.266327,234.339157 305.224121,245.988602 303.424988,257.433350 
	C302.939758,260.520081 303.810974,264.288940 298.977112,264.180634 
	C294.846741,264.088104 289.308777,266.342651 289.055695,258.435669 
	C286.728760,263.704468 281.257629,265.840729 276.176666,264.004700 
	C274.019836,263.225311 273.838989,261.518311 273.649719,259.615509 
	C272.567047,248.730392 271.416626,237.852005 270.164673,226.527313 
M301.628113,255.130264 
	C301.699707,253.634995 301.683380,252.129425 301.857178,250.646118 
	C302.994781,240.937485 304.157562,231.231689 305.351257,221.529770 
	C305.618958,219.353897 304.632385,218.506012 302.577911,218.355804 
	C299.205933,218.109299 298.550171,219.881790 298.262573,222.899887 
	C297.546326,230.417618 297.695862,238.063538 295.663513,245.630676 
	C292.953552,244.095200 293.808838,241.705643 293.635895,239.697586 
	C293.137848,233.913528 292.846497,228.109039 292.220032,222.340149 
	C292.014618,220.449081 291.499908,218.336258 288.663696,218.362701 
	C285.957397,218.387939 285.251495,220.145645 285.031891,222.237030 
	C284.409149,228.167603 283.920563,234.112198 283.359314,240.049393 
	C283.169342,242.059174 283.846649,244.380264 281.337158,245.945938 
	C279.622925,243.436630 279.647614,240.683884 279.785126,238.155426 
	C280.086487,232.615555 278.382355,227.264603 278.602997,221.760437 
	C278.726410,218.682297 276.766937,218.239578 274.315399,218.400040 
	C271.914215,218.557175 271.285553,219.868439 271.536469,222.114029 
	C272.860901,233.966766 274.183228,245.820831 275.338257,257.690796 
	C275.698792,261.396149 277.921234,261.754120 280.876831,261.773621 
	C283.803955,261.792908 285.247375,261.074585 285.735687,257.694031 
	C286.503052,252.381119 285.846130,246.779144 288.446106,240.839447 
	C291.130249,246.745560 290.415466,252.342880 291.198456,257.636169 
	C291.681488,260.901367 292.857727,261.700378 295.908752,261.821228 
	C300.277405,261.994232 301.343109,259.523193 301.628113,255.130264 
z"/>
<path fill="#000000" opacity="1.000000" stroke="none" 
	d="
M334.308289,260.769409 
	C333.042542,266.379578 328.955627,263.981171 326.095306,264.048645 
	C322.828064,264.125732 323.592468,261.184113 323.570160,259.141602 
	C323.516663,254.242386 323.552856,249.342194 323.552856,244.361221 
	C320.974274,244.586716 321.347198,246.034866 321.326080,247.041214 
	C321.252869,250.534454 321.343536,254.030746 321.320740,257.525543 
	C321.280548,263.681427 320.418396,264.384277 314.428345,264.301208 
	C311.125305,264.255402 309.625397,263.152374 309.630951,259.627014 
	C309.651672,246.482544 309.513214,233.337006 309.325500,220.193436 
	C309.260193,215.619263 312.277618,215.780746 315.411774,215.770355 
	C318.610413,215.759766 321.614899,215.815582 321.433167,220.305710 
	C321.282684,224.023544 320.893677,227.770477 322.141022,231.443420 
	C323.656830,228.386612 323.740967,225.181412 323.406097,221.934143 
	C323.041321,218.397324 323.363007,215.714264 328.088379,215.706268 
	C332.194183,215.699326 334.582367,216.249512 334.453400,221.350357 
	C334.125336,234.324036 334.335083,247.311340 334.308289,260.769409 
M332.643402,229.538376 
	C332.642731,227.373901 332.630798,225.209351 332.644379,223.044968 
	C332.659454,220.643417 332.869171,218.344864 329.245453,218.306046 
	C325.524231,218.266174 325.329620,220.521530 325.346130,223.218674 
	C325.362396,225.882324 325.250122,228.548233 325.323212,231.209610 
	C325.388275,233.578171 324.269257,234.447479 322.004578,234.482193 
	C319.704712,234.517441 318.633026,233.625641 318.668182,231.260712 
	C318.717560,227.932434 318.631836,224.601700 318.576538,221.272476 
	C318.547089,219.500320 317.677673,218.483459 315.839661,218.405716 
	C314.062103,218.330551 312.417389,218.534286 312.012085,220.681213 
	C311.734985,222.149414 311.447845,223.644669 311.437744,225.129684 
	C311.364014,235.951126 311.385132,246.773193 311.313660,257.594666 
	C311.297211,260.080322 311.755463,261.769897 314.825470,261.758514 
	C318.064606,261.746490 318.700836,259.996460 318.652893,257.273315 
	C318.579590,253.112793 318.692902,248.949280 318.688995,244.787064 
	C318.686798,242.473312 319.440430,240.873459 322.072388,240.872055 
	C324.812744,240.870575 325.313080,242.682541 325.316711,244.894348 
	C325.323242,248.890244 325.322113,252.886185 325.344086,256.881989 
	C325.356903,259.207092 324.953094,261.668060 328.612427,261.754730 
	C332.160645,261.838776 332.699341,259.890472 332.674927,256.998322 
	C332.600433,248.174561 332.648865,239.349762 332.643402,229.538376 
z"/>
<path fill="#000000" opacity="1.000000" stroke="none" 
	d="
M391.020630,233.782059 
	C395.260437,238.708557 393.991425,243.645081 388.580170,244.349884 
	C385.520630,244.748398 385.374023,246.589050 385.303802,248.893402 
	C385.232635,251.229675 385.869934,252.537933 388.552460,252.823654 
	C394.007904,253.404709 395.743408,256.422363 394.230499,261.841339 
	C393.872101,263.125031 393.226990,263.893646 391.937775,264.086670 
	C391.283081,264.184753 390.614746,264.195862 389.951904,264.234863 
	C373.673981,265.193115 373.749634,265.192352 373.635620,248.797745 
	C373.572113,239.666550 374.173126,230.520355 373.125458,221.403397 
	C372.669525,217.435883 374.316040,215.505524 378.516144,215.736679 
	C382.327148,215.946457 386.158539,215.833893 389.980103,215.790070 
	C394.160522,215.742157 394.229401,218.577576 394.196899,221.580414 
	C394.165375,224.494949 394.385345,227.497772 390.061371,227.360535 
	C387.604828,227.282547 385.187317,227.445084 385.344269,230.882965 
	C385.517517,234.677490 388.524963,233.344376 391.020630,233.782059 
M390.986176,241.711060 
	C392.538391,237.742477 390.977020,236.050949 386.938080,236.205994 
	C383.731781,236.329102 382.707092,234.759766 382.584717,231.633255 
	C382.409698,227.162659 383.101196,224.025925 388.639008,224.578430 
	C390.700592,224.784103 391.595337,223.398376 391.566406,221.419754 
	C391.536652,219.384842 390.478088,218.384766 388.453796,218.379868 
	C385.962524,218.373840 383.457367,218.528000 380.983337,218.317307 
	C377.467316,218.017899 375.722992,219.250534 375.708099,222.974060 
	C375.673004,231.770676 375.252930,240.569794 375.381439,249.362137 
	C375.594330,263.930542 372.591705,261.489746 388.054779,261.713684 
	C390.277039,261.745880 392.551575,261.832581 392.605225,258.604797 
	C392.658752,255.386383 390.419922,255.492706 388.179199,255.323273 
	C386.328400,255.183334 383.720978,256.140717 383.051270,253.526947 
	C382.271301,250.482910 382.018829,247.110397 383.169861,244.200943 
	C384.232391,241.515182 387.323517,243.102051 389.448914,242.522949 
	C389.767578,242.436111 390.078827,242.321930 390.986176,241.711060 
z"/>
<path fill="#000000" opacity="1.000000" stroke="none" 
	d="
M354.701904,248.994766 
	C354.703705,242.844238 354.686310,237.192688 354.717712,231.541428 
	C354.729462,229.425400 354.451538,227.944656 351.928223,227.032410 
	C347.740936,225.518570 349.948486,221.614929 349.785034,218.770065 
	C349.606018,215.654800 352.295349,215.803467 354.464569,215.784012 
	C358.619629,215.746735 362.775269,215.788376 366.930603,215.773590 
	C369.197693,215.765518 371.557678,215.867233 371.742188,218.798172 
	C371.929382,221.771988 373.407562,225.619492 369.432892,227.044861 
	C366.391693,228.135452 366.364655,230.067886 366.364197,232.441467 
	C366.362518,241.251053 366.197906,250.064621 366.420746,258.868439 
	C366.526154,263.033020 364.962433,264.423615 360.892059,264.350922 
	C357.029297,264.281952 354.321655,263.757874 354.678497,258.964935 
	C354.912262,255.824722 354.709442,252.652023 354.701904,248.994766 
M357.309479,230.708527 
	C357.311707,239.344040 357.280365,247.979797 357.339630,256.614929 
	C357.354553,258.787476 356.535614,261.625977 360.306976,261.662476 
	C364.209045,261.700195 363.725983,258.818573 363.738831,256.380066 
	C363.783417,247.910843 363.771820,239.441284 363.766418,230.971848 
	C363.764587,228.122528 363.438812,225.262970 367.362488,224.400284 
	C369.345154,223.964340 369.421478,221.964035 369.222748,220.278091 
	C369.018738,218.547073 367.570190,218.386292 366.200378,218.379486 
	C362.215607,218.359650 358.230499,218.377167 354.245667,218.401138 
	C352.400421,218.412247 351.587616,219.456390 351.475677,221.221100 
	C351.373535,222.830872 351.498230,224.434738 353.480133,224.593658 
	C356.872284,224.865662 357.485931,226.977173 357.309479,230.708527 
z"/>
<path fill="#000000" opacity="1.000000" stroke="none" 
	d="
M347.394714,263.337921 
	C345.423553,263.857208 343.792236,264.105530 342.151642,264.244843 
	C339.061493,264.507324 337.602814,263.239685 337.627380,259.944061 
	C337.726715,246.622269 337.727570,233.299026 337.643158,219.977081 
	C337.621521,216.563568 339.363312,215.602783 342.330719,215.808380 
	C344.833771,215.981796 348.273712,214.951950 348.240723,219.143585 
	C348.125671,233.768524 349.050842,248.407516 347.394714,263.337921 
M339.345245,234.506500 
	C339.349121,242.337692 339.362915,250.168915 339.350098,258.000092 
	C339.346802,260.015076 339.642273,261.644135 342.233185,261.710449 
	C344.747009,261.774780 345.932037,260.713348 345.926422,258.182068 
	C345.899719,246.185883 345.912689,234.189575 345.891083,222.193359 
	C345.887604,220.259659 345.658142,218.467728 343.049591,218.386597 
	C340.494263,218.307144 339.408630,219.563004 339.406952,222.014069 
	C339.404297,225.846115 339.367401,229.678116 339.345245,234.506500 
z"/>
<path fill="#000000" opacity="1.000000" stroke="none" 
	d="
M270.250916,288.712219 
	C272.036865,288.716827 273.304321,288.974213 273.298889,290.816956 
	C273.293915,292.483032 272.400360,293.764832 271.052948,294.461090 
	C267.906006,296.087158 264.819946,295.957428 262.730011,292.780914 
	C260.837799,289.904846 261.173309,286.818481 264.066650,284.867615 
	C267.044434,282.859833 270.173340,282.723419 272.725433,286.780396 
	C269.621063,287.489716 265.148560,284.265289 264.590820,289.577454 
	C264.298553,292.361206 266.461914,293.143250 268.861725,292.673706 
	C271.061951,291.713379 266.083221,289.211975 270.250916,288.712219 
z"/>
<path fill="#000000" opacity="1.000000" stroke="none" 
	d="
M350.676971,291.498779 
	C348.555389,295.948578 345.224091,296.246735 341.745483,294.482544 
	C339.128052,293.155090 338.165833,290.538666 339.223877,287.630859 
	C340.450775,284.258881 343.189819,283.060608 346.438660,283.883392 
	C350.003510,284.786255 351.507080,287.405457 350.676971,291.498779 
M348.118408,290.197144 
	C348.241669,287.800537 347.146301,286.414917 344.710114,286.416718 
	C343.277985,286.417755 342.275421,287.322510 341.729462,288.630341 
	C341.118958,290.092743 341.773834,291.245911 342.929840,292.028442 
	C344.950317,293.396179 346.631378,292.864014 348.118408,290.197144 
z"/>
<path fill="#000000" opacity="1.000000" stroke="none" 
	d="
M239.038086,286.605316 
	C239.690384,283.828552 240.870956,283.585785 242.508484,285.320160 
	C243.613556,286.490540 244.656006,287.720062 245.739304,288.937561 
	C247.434662,287.730957 246.030945,285.355682 248.556580,284.302826 
	C249.814011,287.919037 249.737808,291.335449 248.504562,294.936523 
	C245.010040,294.641296 244.925781,290.885406 242.433655,289.832428 
	C240.472885,290.884735 242.335739,293.443726 240.071671,294.772156 
	C238.172455,292.405579 239.198318,289.576782 239.038086,286.605316 
z"/>
<path fill="#000000" opacity="1.000000" stroke="none" 
	d="
M371.235931,286.855743 
	C370.329132,289.746979 370.873413,292.298553 371.325653,294.780884 
	C368.728241,295.321808 368.679321,292.799896 367.205872,292.140991 
	C365.707581,292.339996 366.312469,294.664795 364.591309,294.770020 
	C363.062286,294.039459 363.459686,292.496063 363.644043,291.375214 
	C364.062561,288.830811 362.045868,285.360046 365.568726,283.957214 
	C367.766968,283.081909 370.208527,283.617218 371.235931,286.855743 
z"/>
<path fill="#000000" opacity="1.000000" stroke="none" 
	d="
M170.662567,285.341003 
	C172.930557,288.455231 173.033722,291.329346 170.600250,293.804108 
	C168.488510,295.951691 165.728806,295.924316 163.209885,294.555054 
	C160.643509,293.159973 160.277420,290.612366 160.813721,288.011353 
	C161.653564,283.938019 165.440765,282.805359 170.662567,285.341003 
M164.438095,286.965820 
	C162.736404,288.690735 162.584061,290.502533 164.436203,292.138275 
	C165.514130,293.090240 166.917740,293.073639 168.175903,292.337280 
	C169.696732,291.447174 170.044571,289.984283 169.537735,288.442871 
	C168.803848,286.210968 167.044693,286.053192 164.438095,286.965820 
z"/>
<path fill="#000000" opacity="1.000000" stroke="none" 
	d="
M139.023254,285.051880 
	C139.503998,284.729156 139.911804,284.623444 140.096878,284.780365 
	C141.373566,285.863037 140.701981,288.681274 143.399399,288.509399 
	C145.860138,288.352600 145.406494,285.830841 146.747208,283.747070 
	C149.026413,287.649323 148.238998,290.984619 147.415298,295.398590 
	C144.814667,290.885681 142.268051,289.107727 139.554764,295.633789 
	C138.260254,291.451263 138.652969,288.411285 139.023254,285.051880 
z"/>
<path fill="#000000" opacity="1.000000" stroke="none" 
	d="
M186.138062,284.047729 
	C188.721893,283.667572 191.091309,283.258911 192.028458,285.928528 
	C192.910904,288.442200 191.664993,290.087921 189.222702,290.825104 
	C187.355438,291.388672 187.585739,293.623505 185.370850,295.074219 
	C184.503555,291.143402 183.993408,287.729889 186.138062,284.047729 
z"/>
<path fill="#000000" opacity="1.000000" stroke="none" 
	d="
M206.174438,294.200745 
	C203.458557,291.562836 204.694870,288.270752 205.063660,285.211395 
	C205.285522,283.371094 207.344711,283.720032 208.789566,283.760101 
	C210.427826,283.805511 211.648102,284.567291 212.078369,286.230499 
	C212.491852,287.828827 212.138306,289.398743 210.597641,290.035614 
	C208.633392,290.847656 207.206863,291.992371 206.174438,294.200745 
z"/>
<path fill="#000000" opacity="1.000000" stroke="none" 
	d="
M123.128372,287.603271 
	C125.379974,289.520386 127.815018,291.432037 125.374184,294.262390 
	C123.631668,296.282990 121.323921,295.566986 119.497803,294.053009 
	C119.898315,291.359894 121.894279,293.267456 122.963028,291.990082 
	C122.096939,289.944885 118.188606,288.988037 119.663086,285.859222 
	C121.069679,282.874481 123.210609,283.067383 125.323997,284.922455 
	C125.448677,286.964417 123.332680,286.170929 123.128372,287.603271 
z"/>
<path fill="#000000" opacity="1.000000" stroke="none" 
	d="
M304.020264,283.788452 
	C305.549927,283.734406 306.902008,283.696991 307.283356,285.035980 
	C307.774109,286.759064 305.731476,286.295013 304.974762,287.342438 
	C306.748444,289.318573 310.246643,291.219421 307.239410,294.399506 
	C305.467224,296.273560 303.141663,295.637207 301.413879,293.936157 
	C301.976715,291.385803 303.880127,293.237823 305.000488,291.977753 
	C303.741638,289.555206 298.165283,287.410461 304.020264,283.788452 
z"/>
<path fill="#000000" opacity="1.000000" stroke="none" 
	d="
M387.107239,287.194427 
	C387.083069,289.063477 389.044678,288.311798 389.578033,289.596100 
	C388.870117,290.363861 388.110504,291.187714 387.471466,291.880798 
	C387.413239,293.879211 390.055481,292.850464 390.013367,294.918854 
	C388.009125,295.499268 385.423767,296.261475 384.329834,294.156952 
	C382.879028,291.365692 382.944305,287.800507 384.302368,284.979828 
	C385.373535,282.755005 388.012970,283.550995 390.109436,284.141022 
	C390.494690,286.594391 387.965820,285.818146 387.107239,287.194427 
z"/>
<path fill="#000000" opacity="1.000000" stroke="none" 
	d="
M325.252136,290.267334 
	C325.033051,292.034851 325.607208,293.704620 323.485016,294.629425 
	C321.476440,291.631836 324.251160,287.141541 319.609863,284.765991 
	C322.694214,283.318939 324.901215,283.420563 327.273560,284.294159 
	C327.089386,286.478180 324.794403,287.684723 325.252136,290.267334 
z"/>
<path fill="#000000" opacity="1.000000" stroke="none" 
	d="
M226.348724,288.205505 
	C226.192429,290.555603 226.803940,292.574158 225.087234,295.224426 
	C223.279434,291.257233 223.339203,288.014771 224.756973,284.327545 
	C226.634644,285.199707 226.162811,286.626465 226.348724,288.205505 
z"/>
</svg>