<svg version="1.1" id="Layer_1" xmlns="http://www.w3.org/2000/svg" xmlns:xlink="http://www.w3.org/1999/xlink" x="0px" y="0px"
	 width="100%" viewBox="0 0 500 500" enable-background="new 0 0 500 500" xml:space="preserve">
<path fill="#000000" opacity="1.000000" stroke="none" 
	d="
M249.219360,500.720581 
	C167.738434,501.000000 86.476822,500.967651 5.215494,501.104797 
	C1.526472,501.111053 0.903591,500.242188 0.908736,496.722687 
	C1.027049,415.794342 1.000000,334.865814 1.000000,253.468658 
	C3.430388,251.524567 4.707878,253.559586 6.001088,254.849716 
	C17.007071,265.829651 28.121246,276.702332 39.157700,288.183685 
	C41.046974,291.931915 40.397884,295.617035 40.415756,299.196686 
	C40.431568,302.363708 41.751637,303.614258 44.877766,303.579163 
	C48.147923,303.542450 51.470207,303.169250 55.023033,304.392273 
	C66.783501,315.077850 77.395775,326.417908 88.482109,337.278320 
	C90.015999,338.780975 91.494202,340.340057 93.319962,342.051575 
	C104.029495,352.922150 114.603218,363.427704 125.435898,374.172668 
	C165.462341,414.368347 205.421188,454.133423 245.217239,494.061066 
	C247.012054,495.861786 249.648117,497.253418 249.219360,500.720581 
z"/>
<path fill="#000000" opacity="1.000000" stroke="none" 
	d="
M500.705933,252.779129 
	C501.000000,334.261566 500.967651,415.523163 501.104797,496.784485 
	C501.111053,500.473419 500.242279,501.096405 496.722717,501.091248 
	C415.794373,500.972931 334.865814,501.000000 253.468658,501.000000 
	C251.638763,499.088684 253.176559,497.917084 254.184036,496.697021 
	C255.346939,495.288788 256.723114,494.066681 258.015900,492.772980 
	C305.264587,445.490509 352.579834,398.274597 400.035278,350.701721 
	C406.921967,343.975769 413.451385,337.389496 420.210632,330.531769 
	C429.074646,321.914764 437.320557,313.176971 446.382477,304.725891 
	C450.514191,302.890259 454.528748,303.653717 458.456573,303.544250 
	C464.277679,303.382019 464.405121,303.261963 464.540802,297.290314 
	C464.630219,293.353973 463.978363,289.349762 465.612976,285.166260 
	C475.906219,274.997070 485.772461,264.924652 495.797577,255.012146 
	C497.068146,253.755798 498.259125,252.215622 500.705933,252.779129 
z"/>
<path fill="#000000" opacity="1.000000" stroke="none" 
	d="
M1.294466,249.220978 
	C1.000000,167.738449 1.032358,86.476845 0.895221,5.215523 
	C0.888996,1.526587 1.757709,0.903586 5.277286,0.908731 
	C86.205627,1.027050 167.134171,1.000000 248.531342,1.000000 
	C250.359360,2.914592 248.822784,4.088851 247.812408,5.311709 
	C246.647034,6.722181 245.268753,7.946517 243.972961,9.241693 
	C188.956223,64.232170 133.973343,119.256508 78.956367,174.246735 
	C74.128838,179.071915 69.235634,183.833130 64.302933,189.093094 
	C58.370178,191.527832 52.513222,190.235550 46.771893,190.471802 
	C40.817863,190.716827 40.659519,190.796265 40.491356,196.606628 
	C40.338573,201.885590 41.091293,207.203079 39.719322,212.807068 
	C28.553583,225.260147 16.600979,236.418182 5.102165,248.024612 
	C4.171044,248.964432 3.078834,249.763199 1.294466,249.220978 
z"/>
<path fill="#000000" opacity="1.000000" stroke="none" 
	d="
M252.780411,1.281559 
	C334.261566,1.000000 415.523163,1.032356 496.784485,0.895221 
	C500.473419,0.888995 501.096405,1.757729 501.091248,5.277286 
	C500.972931,86.205627 501.000000,167.134171 501.000000,248.531342 
	C499.365967,250.248398 498.094086,249.168533 497.069855,248.154999 
	C485.735565,236.939224 474.309479,225.813965 463.308228,214.266525 
	C462.846375,213.781738 462.622955,213.135590 462.399384,212.099487 
	C462.569000,206.759567 462.350922,201.797318 462.571777,196.853775 
	C462.757233,192.701385 460.987427,191.237259 457.003021,191.437332 
	C453.215271,191.627548 449.408356,191.499725 445.609924,191.453110 
	C443.093750,191.422211 440.681122,190.993591 438.145569,189.506439 
	C377.851807,128.712128 317.309662,68.696022 257.147125,8.300980 
	C255.239807,6.386273 252.409958,4.942689 252.780411,1.281559 
z"/>
<path fill="#E8E8E8" opacity="1.000000" stroke="none" 
	d="
M252.600006,1.000000 
	C252.492447,3.460755 254.788589,4.130320 255.987656,5.331812 
	C316.402100,65.868332 376.870941,126.350601 437.525940,187.112152 
	C437.749786,187.641830 437.781525,187.898087 437.499084,188.369141 
	C433.922058,189.195450 432.432343,186.582977 430.632538,184.789001 
	C405.625580,159.862411 380.672302,134.881973 355.705322,109.915314 
	C322.494476,76.704941 289.284607,43.493629 256.072876,10.284159 
	C251.006180,5.217825 250.996780,5.215421 246.041077,10.170875 
	C188.215500,67.993553 130.397583,125.823921 72.544952,183.619522 
	C70.477875,185.684555 68.803406,188.426819 65.074860,188.662384 
	C64.497444,188.407745 64.288712,188.254028 64.199493,187.730316 
	C92.199974,159.406128 120.064293,131.435303 147.966278,103.502121 
	C180.700470,70.731308 213.469162,37.994949 246.213028,5.233802 
	C247.384048,4.062147 248.450241,2.785698 249.282654,1.279043 
	C250.066666,1.000000 251.133347,1.000000 252.600006,1.000000 
z"/>
<path fill="#E8E8E8" opacity="1.000000" stroke="none" 
	d="
M401.180450,350.799927 
	C387.132141,365.198425 373.233368,379.287445 359.249451,393.291412 
	C324.786072,427.804047 290.282135,462.276093 255.803589,496.773560 
	C254.632950,497.944885 253.560333,499.214172 252.721008,500.718903 
	C251.933334,501.000000 250.866653,501.000000 249.399994,501.000000 
	C249.591202,498.734131 247.469070,498.084656 246.390244,497.003174 
	C206.030640,456.545441 165.612213,416.146393 125.068115,375.435852 
	C124.716866,374.658875 124.768486,374.227875 125.461655,373.690674 
	C128.869919,373.615173 130.305191,376.149750 132.126160,377.967499 
	C169.604462,415.379303 207.029221,452.844727 244.496552,490.267517 
	C251.843353,497.605621 250.134125,497.630920 257.680664,490.091003 
	C302.917175,444.894135 348.119415,399.662933 393.356293,354.466461 
	C395.215332,352.609070 396.780914,350.329498 399.859680,349.523438 
	C400.691406,349.708557 401.041931,350.021088 401.180450,350.799927 
z"/>
<path fill="#E8E8E8" opacity="1.000000" stroke="none" 
	d="
M1.000000,249.399994 
	C3.236283,249.957520 3.658141,247.684799 4.607563,246.748886 
	C15.574219,235.938232 26.433512,225.018661 37.637802,214.008438 
	C38.326206,214.215103 38.589550,214.611008 38.755829,215.448013 
	C38.473370,218.165604 36.660011,219.505798 35.157719,221.017792 
	C27.067230,229.160461 18.935736,237.262360 10.820074,245.380020 
	C5.202631,250.998840 5.202037,251.000137 10.648276,256.447906 
	C18.646179,264.448029 26.655579,272.436737 34.636837,280.453461 
	C36.152061,281.975403 37.882275,283.345245 38.725914,285.821503 
	C38.779476,286.668640 38.669186,287.137085 38.214924,287.846497 
	C27.276625,277.552246 16.602411,266.992432 5.910695,256.450378 
	C4.505352,255.064697 3.010466,253.769836 1.278520,252.716461 
	C1.000000,251.933334 1.000000,250.866653 1.000000,249.399994 
z"/>
<path fill="#E8E8E8" opacity="1.000000" stroke="none" 
	d="
M462.840637,212.744858 
	C474.106354,223.811279 485.078094,234.666580 496.066101,245.505417 
	C497.480347,246.900467 498.978912,248.210022 500.719177,249.279587 
	C501.000000,250.066666 501.000000,251.133347 501.000000,252.600006 
	C498.767578,252.063019 498.348694,254.327011 497.393524,255.264008 
	C487.582397,264.888275 477.884186,274.627655 467.879639,284.525879 
	C467.351898,284.771179 467.099030,284.825531 466.662048,284.547791 
	C465.864716,281.420349 467.911041,279.940369 469.509583,278.325043 
	C477.236969,270.516205 485.040588,262.782990 492.791687,254.997620 
	C496.742157,251.029678 496.750610,250.979630 492.894867,247.108673 
	C483.379852,237.556137 473.816742,228.051483 464.316284,218.484558 
	C462.828796,216.986618 460.892273,215.727036 460.954041,212.985168 
	C461.605499,212.490952 462.070923,212.444397 462.840637,212.744858 
z"/>
<path fill="#FEFEFE" opacity="1.000000" stroke="none" 
	d="
M38.126854,288.487152 
	C37.980438,287.601471 38.004589,287.096405 38.036755,286.212219 
	C37.585186,277.308655 36.754593,268.852020 37.260494,260.231415 
	C37.967705,248.180603 37.438000,236.059845 37.441212,223.969009 
	C37.441826,221.648697 37.415771,219.329926 38.066540,216.621063 
	C38.030445,215.661255 38.014435,215.154602 37.976349,214.268402 
	C40.048920,207.600708 38.754803,201.124496 38.776020,194.756638 
	C38.789337,190.759567 39.548805,189.175461 43.857151,189.554077 
	C48.626366,189.973190 53.461311,189.610382 58.266659,189.668411 
	C60.311054,189.693085 62.255733,189.621414 64.006989,187.626373 
	C64.560555,187.559494 64.802132,187.758698 65.415222,188.245255 
	C68.099396,188.891129 70.417923,188.548615 72.732964,188.562439 
	C85.269020,188.637329 93.262611,195.392258 95.026077,207.991592 
	C95.902473,214.253204 95.722237,220.623779 95.061287,226.917648 
	C94.578903,231.511093 92.786415,235.644470 89.016068,238.572983 
	C87.168373,240.008118 86.658401,241.010803 88.872124,242.652908 
	C92.824974,245.585083 94.632095,249.832047 95.518143,254.562653 
	C97.722176,266.330048 97.440323,278.046967 94.059143,289.512756 
	C90.787483,300.607056 83.587250,305.868225 72.026260,306.368744 
	C67.705963,306.555786 63.374802,306.254181 58.649017,306.658173 
	C57.687267,306.723633 57.147797,306.627808 56.261662,306.243011 
	C51.530506,303.889099 46.878540,305.241638 42.372543,305.105988 
	C39.591457,305.022278 38.823215,304.298523 38.826721,301.522949 
	C38.832043,297.311127 39.628265,293.031311 38.126854,288.487152 
z"/>
<path fill="#E8E8E8" opacity="1.000000" stroke="none" 
	d="
M56.015118,306.361938 
	C56.390259,306.022766 56.881565,306.001099 57.741730,305.975769 
	C59.847279,305.635590 60.925255,306.763702 61.974556,307.807495 
	C72.241737,318.020996 82.506493,328.237091 92.685829,338.538330 
	C93.507843,339.370209 94.229973,340.289154 94.476967,341.844788 
	C94.295380,342.684601 93.982376,343.039368 93.198692,343.181244 
	C80.609245,330.940033 68.370262,318.809723 56.015118,306.361938 
z"/>
<path fill="#DBDBDB" opacity="1.000000" stroke="none" 
	d="
M92.979576,343.382294 
	C93.164314,342.839447 93.480385,342.608521 93.930176,342.112061 
	C95.591003,341.500732 96.583405,342.466003 97.508179,343.378937 
	C106.671921,352.425171 115.791183,361.516266 124.819702,370.697754 
	C125.517136,371.407043 126.083595,372.224976 126.202660,373.595093 
	C125.827583,374.170929 125.517052,374.394775 125.070511,374.875427 
	C114.326645,364.652924 103.718781,354.173553 92.979576,343.382294 
z"/>
<path fill="#FEFEFE" opacity="1.000000" stroke="none" 
	d="
M463.238281,212.554825 
	C462.638855,212.971481 462.148132,212.981888 461.289764,213.011169 
	C456.512543,214.279297 452.012177,213.424683 447.562012,213.500610 
	C443.956055,213.562134 442.509155,214.947723 442.538330,218.553238 
	C442.670746,234.912582 441.064301,232.172333 455.734222,232.443436 
	C463.627441,232.589310 464.487335,233.415848 464.544495,241.448746 
	C464.569336,244.936691 464.575256,248.424850 464.486664,251.913773 
	C464.393341,255.588455 462.533966,257.337616 458.911499,257.470612 
	C455.090851,257.610901 451.269623,257.571381 447.450317,257.562408 
	C444.199005,257.554779 442.513794,258.824799 442.559631,262.269226 
	C442.621552,266.919159 442.653839,271.574310 442.551392,276.222443 
	C442.464813,280.147980 444.399933,281.510468 448.054596,281.444092 
	C451.706848,281.377808 455.364136,281.396576 459.018280,281.464996 
	C461.337494,281.508423 463.690063,281.429993 466.138245,282.949188 
	C466.655701,283.490631 466.841919,283.738617 467.316467,284.351715 
	C464.048737,288.152466 465.795837,292.547546 465.673981,296.503632 
	C465.412415,304.996246 465.592102,304.904724 457.079742,305.049652 
	C453.675964,305.107605 450.187866,304.252136 446.485352,305.855774 
	C445.566589,306.351074 444.988495,306.568512 443.913513,306.728088 
	C437.202545,306.340912 430.949524,306.686432 424.701447,306.558685 
	C422.568359,306.515076 420.407104,306.650482 418.016724,305.398987 
	C415.447937,298.840729 417.127533,292.352966 416.548950,285.509277 
	C416.212982,254.976181 416.355225,224.923904 416.481628,194.872467 
	C416.505524,189.187805 418.070221,187.978790 423.865540,188.275345 
	C427.675629,188.470306 431.509247,188.046005 435.771057,188.646423 
	C436.491608,188.371140 436.738861,188.176498 437.352081,187.683716 
	C439.380341,189.272827 441.462128,189.766617 443.942902,189.699280 
	C449.409058,189.550903 454.893463,189.865891 460.347900,189.572723 
	C463.562897,189.399918 464.347076,190.523422 464.074524,193.483917 
	C463.503479,199.686935 464.929016,205.975693 463.238281,212.554825 
z"/>
<path fill="#E8E8E8" opacity="1.000000" stroke="none" 
	d="
M443.553345,305.907898 
	C444.396973,305.985718 444.887665,305.995758 445.745819,306.028015 
	C437.993683,314.301758 429.874084,322.553253 421.451813,330.939392 
	C420.671204,331.293762 420.236023,331.240814 419.692505,330.541382 
	C419.367859,328.740997 420.204315,327.696899 421.123413,326.755341 
	C427.551056,320.170654 434.066132,313.672729 440.634888,307.228821 
	C441.350952,306.526337 442.203766,306.041656 443.553345,305.907898 
z"/>
<path fill="#DBDBDB" opacity="1.000000" stroke="none" 
	d="
M419.598145,329.806824 
	C420.177368,330.185638 420.404205,330.495605 420.890076,330.939819 
	C414.664490,337.679352 408.179871,344.284607 401.382446,351.018982 
	C400.842163,350.836823 400.614685,350.525543 400.127136,350.080139 
	C399.731110,349.458374 399.644653,348.873230 399.954926,348.522095 
	C405.914215,341.778809 411.786530,334.941681 419.598145,329.806824 
z"/>
<path fill="#020202" opacity="1.000000" stroke="none" 
	d="
M420.085052,329.573090 
	C413.342590,336.357452 406.734589,342.839233 399.996887,349.633545 
	C385.326874,364.370697 370.748505,378.757233 356.253998,393.227753 
	C322.285065,427.140656 288.324005,461.061707 254.472992,495.092102 
	C251.788956,497.790283 250.423203,497.997406 247.604263,495.165100 
	C207.397537,454.767914 167.054016,414.506897 126.440804,374.080048 
	C115.654572,363.335114 105.171036,352.723175 94.375694,341.978851 
	C82.288322,329.961548 70.512764,318.076630 58.423897,306.081909 
	C60.543652,303.913361 63.423790,305.087463 66.048149,305.069305 
	C85.076447,304.937378 91.537743,299.742371 94.603897,281.137482 
	C95.906158,273.235565 96.098961,265.198700 94.785782,257.249298 
	C93.603310,250.091064 91.018913,243.718781 82.850098,240.726166 
	C89.896057,238.051804 93.063362,232.998260 93.735832,226.597809 
	C94.447639,219.822968 94.685730,212.963242 93.232224,206.201584 
	C90.992088,195.780563 85.251900,190.752228 74.697403,189.905258 
	C71.763245,189.669815 68.831024,189.410187 65.842331,188.847137 
	C96.456436,157.940369 127.138863,127.360878 157.792206,96.752274 
	C187.626572,66.961449 217.478241,37.187496 247.176346,7.261294 
	C250.157944,4.256788 251.583496,3.956519 254.777969,7.161446 
	C315.007355,67.587982 375.384735,127.867004 435.987793,188.371307 
	C431.814301,190.955841 426.960510,189.892288 422.509064,189.392807 
	C418.142365,188.902847 417.871002,190.427338 417.878845,193.817871 
	C417.948425,223.876083 417.918427,253.934494 417.907837,284.456390 
	C417.650879,285.130737 417.403870,285.341522 416.730042,285.786102 
	C410.020844,287.176086 403.693054,286.619781 397.385468,286.434265 
	C393.884064,286.331268 391.925568,284.308685 391.559265,280.790375 
	C391.334381,278.630768 391.371613,276.465210 391.371124,274.300781 
	C391.365631,249.483093 391.377472,224.665390 391.362854,199.847702 
	C391.358063,191.748062 391.255707,191.606735 383.413269,191.646301 
	C370.495056,191.711472 371.672821,190.369659 371.645935,203.504410 
	C371.596161,227.822311 371.641113,252.140396 371.619324,276.458405 
	C371.616943,279.109314 371.876221,281.803162 370.563446,284.763367 
	C363.028381,287.912415 355.557220,286.548157 348.150726,286.131256 
	C346.074493,286.014374 345.085846,284.329071 344.713196,282.363861 
	C344.275330,280.054901 344.371521,277.717194 344.370605,275.387756 
	C344.360596,250.069046 344.378845,224.750320 344.357025,199.431625 
	C344.350525,191.869217 344.126862,191.620575 336.448761,191.650803 
	C323.227020,191.702850 324.681519,190.437637 324.653442,203.415970 
	C324.583527,235.730499 324.661621,268.045227 324.641479,300.763641 
	C324.731018,301.658020 324.837830,302.137695 325.241150,302.849854 
	C326.057617,303.521301 326.738739,303.609467 327.828491,303.615448 
	C331.027863,303.606689 333.839417,303.628601 337.099121,303.548828 
	C347.887390,303.252869 358.228668,303.450134 369.041382,303.471558 
	C369.830322,303.522858 370.147156,303.528778 370.940247,303.523071 
	C386.109497,303.377319 400.802704,303.158051 415.963165,303.760681 
	C416.725067,304.023651 417.017761,304.161804 417.721069,304.559021 
	C426.616364,304.934753 435.101105,305.051453 443.746033,305.571899 
	C436.010712,313.740601 428.115112,321.505554 420.085052,329.573090 
z"/>
<path fill="#040404" opacity="1.000000" stroke="none" 
	d="
M37.926025,216.474945 
	C39.812355,217.387146 38.865730,219.193176 38.874779,220.684860 
	C38.958447,234.479599 39.350159,248.293350 38.758896,262.063202 
	C38.422752,269.891785 39.706722,277.666229 38.422855,285.645203 
	C27.434095,275.125916 16.881622,264.359924 6.162641,253.762360 
	C4.069249,251.692642 3.715053,250.598984 6.038577,248.342270 
	C16.745235,237.943314 27.236856,227.322937 37.926025,216.474945 
z"/>
<path fill="#050505" opacity="1.000000" stroke="none" 
	d="
M466.657410,282.982727 
	C459.389343,281.904510 452.241699,282.776886 445.129822,282.707397 
	C442.082642,282.677643 441.095276,281.825989 441.202881,278.749329 
	C441.423431,272.443817 441.446350,266.118103 441.194519,259.814941 
	C441.067841,256.643524 442.144073,255.837723 445.148041,255.979111 
	C450.121155,256.213196 455.118103,255.913269 460.095398,256.097321 
	C462.559082,256.188446 463.180450,255.330765 463.111328,252.992294 
	C462.954315,247.680527 462.943176,242.357117 463.114014,237.046219 
	C463.193695,234.569305 462.367828,234.074799 460.003601,234.180389 
	C454.863556,234.409927 449.701965,234.127930 444.557678,234.303833 
	C441.885284,234.395218 441.136902,233.409134 441.219818,230.851532 
	C441.386627,225.706665 441.373535,220.549561 441.223572,215.403656 
	C441.152649,212.969025 441.607086,211.633377 444.437653,211.910141 
	C449.666138,212.421341 454.986023,211.097031 460.548523,212.834091 
	C472.367310,224.602341 483.732483,236.255768 495.320251,247.683502 
	C497.859131,250.187302 498.300873,251.491501 495.462952,254.213577 
	C485.747375,263.532745 476.358704,273.192780 466.657410,282.982727 
z"/>
<path fill="#111111" opacity="1.000000" stroke="none" 
	d="
M64.744781,284.770264 
	C61.305962,285.209076 61.282112,283.257599 61.294811,281.080444 
	C61.343124,272.797058 61.225010,264.511414 61.387249,256.230896 
	C61.420891,254.513824 59.991882,251.707489 62.783245,251.186142 
	C65.816589,250.619583 69.253654,250.574158 71.124214,253.959335 
	C71.823456,255.224762 72.258858,256.732422 72.431984,258.175537 
	C73.203766,264.608856 72.989044,271.079865 72.630127,277.520142 
	C72.381081,281.989166 69.444077,284.196838 64.744781,284.770264 
z"/>
<path fill="#0E0E0E" opacity="1.000000" stroke="none" 
	d="
M61.323372,215.366272 
	C61.550201,212.463242 61.127186,209.675568 62.180202,207.658463 
	C63.311703,205.491013 70.498161,207.740479 70.811478,210.494781 
	C71.521240,216.734177 71.693687,223.067902 70.663620,229.286652 
	C70.026375,233.133835 66.730835,233.147751 63.616436,233.031036 
	C59.730370,232.885422 61.509998,229.933685 61.405472,228.228943 
	C61.152721,224.106735 61.323364,219.958572 61.323372,215.366272 
z"/>
<path fill="#888888" opacity="1.000000" stroke="none" 
	d="
M418.138123,304.361267 
	C417.921387,304.799347 417.711121,304.780609 417.185486,304.790039 
	C415.299988,303.052338 415.602020,300.874725 415.552063,298.325531 
	C415.643646,293.977112 414.953461,290.037781 416.471863,285.839600 
	C416.936310,285.386566 417.131195,285.298615 417.611938,285.065308 
	C417.980103,291.248077 418.062347,297.576263 418.138123,304.361267 
z"/>
<path fill="#FEFEFE" opacity="1.000000" stroke="none" 
	d="
M213.391327,228.752365 
	C212.191132,235.786728 209.952286,241.624054 202.651184,244.629623 
	C210.345474,247.654907 211.975082,253.731155 211.982742,260.594299 
	C211.997055,273.416504 211.904236,286.238892 211.765564,299.520691 
	C204.697083,302.931213 197.533463,304.356720 189.668503,302.299164 
	C189.280716,288.667542 189.217529,275.355347 189.128799,262.043304 
	C189.116592,260.215363 189.167374,258.355316 188.857178,256.567688 
	C188.224319,252.920471 185.115326,252.397247 182.338379,252.486481 
	C179.095749,252.590698 180.559326,255.532715 180.542709,257.156555 
	C180.396225,271.471954 180.429047,285.789215 180.277802,300.559753 
	C178.604599,302.217926 176.927887,301.688141 175.369324,301.211548 
	C169.494141,299.415100 163.383667,298.338654 157.538635,295.270691 
	C157.191360,260.628784 157.132370,226.272018 157.150146,191.451447 
	C157.340240,190.806610 157.453583,190.625580 157.783325,190.208328 
	C170.803802,189.394485 183.618912,189.350525 196.410614,189.992279 
	C204.396759,190.392944 209.964355,195.618698 211.822174,203.954742 
	C212.649139,207.665390 212.797302,211.527313 213.275558,215.721588 
	C215.064804,220.161255 214.677048,224.259811 213.391327,228.752365 
z"/>
<path fill="#FBFBFB" opacity="1.000000" stroke="none" 
	d="
M116.282516,304.521088 
	C104.846458,301.563934 97.653732,292.932037 97.144836,280.077820 
	C96.255386,257.611389 96.231789,235.100983 97.139481,212.636795 
	C97.710243,198.511093 107.045593,189.863388 121.196671,188.823227 
	C123.678795,188.640778 126.195084,188.622620 128.677429,188.793060 
	C143.124100,189.784958 151.973022,197.837204 153.048615,212.222031 
	C154.626923,233.329788 153.559937,254.504425 153.563156,275.650085 
	C153.563751,279.633514 152.929626,283.610077 151.796982,287.467407 
	C151.704498,287.782349 151.527237,288.072449 151.164444,288.686493 
	C149.629349,290.296692 147.930405,290.434601 146.280670,290.299591 
	C133.689743,289.269196 124.067490,294.488617 116.282516,304.521088 
z"/>
<path fill="#FEFEFE" opacity="1.000000" stroke="none" 
	d="
M273.515533,277.277771 
	C273.190826,248.633469 273.132111,220.274368 273.150146,191.451477 
	C273.340210,190.806641 273.453552,190.625610 273.783234,190.208359 
	C288.125519,189.867767 302.251801,189.796402 316.376892,189.623215 
	C318.474823,189.597504 319.546051,190.154419 319.228424,192.391327 
	C319.205322,192.554337 319.227966,192.723602 319.226288,192.889938 
	C319.164124,199.036942 319.101562,205.183929 319.039093,211.330933 
	C313.154541,212.689926 307.181549,211.894745 301.266144,211.837143 
	C297.665161,211.802078 296.259064,212.513718 296.589417,216.409973 
	C296.981567,221.034683 296.854675,225.726837 296.619202,230.372833 
	C296.469269,233.331223 297.166351,234.518311 300.398407,234.319107 
	C305.204468,234.022934 310.046295,234.360199 314.864929,234.194946 
	C317.396942,234.108093 318.681519,234.816940 318.302185,237.511566 
	C318.279236,237.674667 318.301147,237.843887 318.299622,238.010223 
	C318.246826,243.823288 320.405090,251.466782 317.528168,254.942413 
	C314.561218,258.526794 306.613434,255.914917 300.853729,255.966095 
	C297.817688,255.993073 296.418854,256.461884 296.595245,259.970734 
	C296.903870,266.110291 296.834778,272.282349 296.612274,278.429504 
	C296.497467,281.600555 297.269897,282.896820 300.717651,282.695068 
	C305.857178,282.394287 311.039307,282.828705 316.179962,282.537659 
	C319.749695,282.335571 321.465027,283.125153 320.935089,287.097900 
	C320.586090,289.714172 320.853485,292.412628 320.753418,295.531494 
	C311.296478,300.555176 302.534973,297.407227 294.071014,293.476318 
	C289.423462,291.317902 285.588623,287.671417 281.857697,284.136505 
	C279.317871,281.730042 276.662506,279.522522 273.515533,277.277771 
z"/>
<path fill="#FDFDFD" opacity="1.000000" stroke="none" 
	d="
M214.653320,216.272751 
	C216.729263,193.637558 233.886002,182.731125 254.885681,190.544006 
	C264.992310,194.304153 270.272247,201.867920 270.909790,212.471863 
	C271.308777,219.107925 270.959595,225.786087 271.102783,232.441986 
	C271.152130,234.736084 270.581299,235.716660 268.068573,235.642807 
	C262.413513,235.476547 256.747772,235.492905 251.091400,235.635117 
	C248.621506,235.697220 247.982239,234.747116 248.033081,232.419754 
	C248.153030,226.929764 248.121521,221.432022 247.972641,215.942276 
	C247.885757,212.738419 247.014511,209.976669 242.945526,209.863464 
	C238.868378,209.750046 237.933884,212.449097 237.602737,215.660294 
	C237.398544,217.640610 237.338745,219.642868 237.334091,221.635574 
	C237.289749,240.608612 237.318298,259.582031 237.194199,278.554474 
	C237.175552,281.401825 238.348114,283.137695 240.934113,284.644073 
	C241.248138,286.548950 240.423187,287.838379 239.233795,288.714447 
	C233.959274,292.599579 228.470413,296.105621 221.591873,297.201721 
	C215.299820,290.724792 214.453186,282.823883 214.392273,274.772217 
	C214.279129,259.815979 214.346649,244.858353 214.281219,229.433563 
	C213.991623,224.857101 213.637817,220.746338 214.653320,216.272751 
z"/>
<path fill="#FEFEFE" opacity="1.000000" stroke="none" 
	d="
M370.147888,304.471527 
	C359.208496,304.829681 348.576050,304.903046 337.480042,304.911255 
	C333.918671,303.348206 330.733032,303.890594 327.265289,304.642029 
	C326.235931,304.889099 325.488495,304.932495 324.371033,304.910950 
	C323.831299,304.724579 323.661499,304.603119 323.294556,304.238342 
	C323.038025,266.863251 323.004700,229.731354 322.862335,192.599884 
	C322.852509,190.046677 323.745087,189.550461 326.034821,189.612564 
	C331.359802,189.756973 336.704102,189.880905 342.015747,189.577972 
	C345.405640,189.384628 346.067078,190.590897 346.054230,193.743271 
	C345.937317,222.385712 346.134796,251.030350 345.845001,279.670319 
	C345.794250,284.690674 347.251831,285.724243 351.876038,285.437897 
	C357.656982,285.079865 363.489685,285.557770 369.649689,286.011322 
	C370.194458,286.552917 370.389587,286.758057 370.756042,287.351807 
	C369.675293,293.191101 371.748688,298.737305 370.147888,304.471527 
z"/>
<path fill="#FFFFFF" opacity="1.000000" stroke="none" 
	d="
M370.137573,286.839569 
	C369.980927,286.448578 369.996460,286.378571 369.997894,286.363190 
	C370.093872,269.533875 370.218201,252.720016 370.273651,235.905945 
	C370.319214,222.084167 370.457520,208.258545 370.176086,194.442352 
	C370.092163,190.324585 371.443390,189.343353 375.234283,189.590302 
	C379.877380,189.892807 384.572845,189.911484 389.212433,189.583267 
	C392.887970,189.323242 393.523071,190.758362 393.508362,194.097824 
	C393.382172,222.740295 393.554291,251.384567 393.314728,280.025604 
	C393.276672,284.576355 394.561493,285.705109 398.867371,285.416748 
	C404.503693,285.039337 410.184998,285.333618 416.294189,285.406738 
	C416.771179,289.342834 416.800995,293.211121 416.782166,297.534729 
	C415.526672,298.989014 414.169922,298.657318 412.943970,298.211639 
	C399.700317,293.397064 385.758789,292.054413 371.605743,289.708832 
	C370.463959,288.938446 370.586273,287.999207 370.137573,286.839569 
z"/>
<path fill="#F8F8F8" opacity="1.000000" stroke="none" 
	d="
M273.161713,277.453644 
	C276.383972,276.916840 278.391907,278.870270 280.402985,280.889557 
	C288.425323,288.944641 297.094513,295.593048 309.109039,296.716827 
	C312.870605,297.068695 316.256287,295.886139 320.253113,295.988159 
	C321.274597,304.998322 321.274597,305.001587 312.361969,304.997375 
	C302.885223,304.992889 293.408508,304.981354 283.468750,304.898254 
	C278.859894,302.771606 276.627533,298.813141 273.501831,295.253235 
	C273.205933,289.298767 273.139893,283.606750 273.161713,277.453644 
z"/>
<path fill="#FDFDFD" opacity="1.000000" stroke="none" 
	d="
M370.817902,289.406677 
	C386.480560,289.791626 401.514069,292.503906 416.377045,297.936493 
	C416.774780,299.982117 416.815979,301.974152 416.863647,304.392212 
	C401.915436,304.873322 386.960754,304.928467 371.544891,304.935516 
	C370.158234,299.889038 369.482117,294.882111 370.817902,289.406677 
z"/>
<path fill="#FDFDFD" opacity="1.000000" stroke="none" 
	d="
M248.466736,279.262054 
	C248.122437,272.373444 248.228317,265.750641 248.021683,259.137634 
	C247.931274,256.244263 248.525223,254.961517 251.781158,255.132690 
	C257.063293,255.410385 262.375580,255.343292 267.665375,255.152130 
	C270.430664,255.052200 271.453522,255.833572 271.358459,258.734772 
	C271.125519,265.845276 271.195923,272.965729 271.031006,280.538605 
	C270.782135,281.087708 270.635345,281.274231 270.512482,281.259644 
	C263.294006,280.399963 256.054321,279.812469 248.466736,279.262054 
z"/>
<path fill="#E8E8E8" opacity="1.000000" stroke="none" 
	d="
M147.716614,327.539185 
	C150.388306,327.780365 152.754639,327.856049 155.548035,327.803467 
	C156.723572,327.218353 157.526443,326.983612 158.727921,327.109375 
	C163.591812,326.608337 166.947495,323.714722 170.600769,321.381317 
	C172.094360,320.427307 173.757233,319.738403 175.655457,318.752808 
	C176.429626,318.389893 176.908646,318.318817 177.751892,318.487488 
	C178.179108,319.309326 178.259262,320.006927 178.152954,321.025452 
	C177.438141,321.715454 177.312531,322.195892 177.698395,323.030945 
	C178.345169,324.725555 178.862900,326.171326 179.625732,327.834473 
	C181.140976,329.042694 182.023712,330.237183 181.852158,332.319092 
	C181.464188,333.380646 180.941513,333.881897 179.960388,334.396240 
	C178.444855,334.793060 177.413788,334.090027 175.999832,334.063782 
	C175.368561,334.307159 175.065796,334.547333 174.615723,335.077667 
	C173.326248,337.052063 171.509613,337.764465 169.594421,338.855408 
	C168.262650,339.057922 167.101624,338.985321 165.502319,338.869873 
	C163.974792,338.718689 163.024170,337.996582 162.928986,337.115173 
	C162.363861,331.881775 159.184921,331.043121 154.459152,331.949280 
	C152.544373,331.396057 150.966965,331.188019 149.033310,331.857117 
	C145.918381,332.522766 143.203369,332.211243 140.501572,331.432037 
	C135.722473,330.053741 135.714310,330.072418 135.281219,334.935028 
	C135.223465,335.583405 135.178284,336.232666 135.033630,337.224609 
	C134.306351,339.250824 134.632553,340.777405 135.828827,342.544922 
	C136.777740,346.830322 136.466797,350.791046 136.204697,355.114807 
	C135.921951,356.623718 135.113663,357.538513 134.855072,359.007385 
	C134.744904,359.763489 134.605652,360.170959 134.141693,360.756470 
	C133.257599,361.484589 132.624557,362.009399 131.575134,362.431458 
	C129.080475,359.350159 130.009735,355.978363 130.174133,352.812714 
	C130.309219,350.211243 130.458862,347.606476 130.524933,344.645569 
	C130.541550,344.004669 130.616928,343.717468 130.607849,343.435791 
	C130.592346,342.955627 130.545166,342.906982 130.531845,343.582458 
	C130.962555,349.845184 128.897690,355.832275 130.852203,362.132629 
	C132.679428,363.881775 131.261185,364.403198 130.264313,364.772278 
	C129.038239,365.226227 127.956161,364.713196 127.282814,363.590240 
	C126.030663,361.501953 125.849747,359.143311 125.976967,356.819580 
	C126.854492,340.792938 129.325623,325.111084 136.710419,310.154541 
	C138.946350,311.821503 139.338913,314.496460 140.470276,317.172974 
	C140.663956,318.768646 140.089035,319.735046 139.427353,320.724396 
	C136.777588,324.686127 136.821228,324.606201 141.659683,325.962189 
	C143.567505,326.496887 145.492477,326.910950 147.716614,327.539185 
z"/>
<path fill="#F2F2F2" opacity="1.000000" stroke="none" 
	d="
M248.019135,279.334290 
	C255.593430,278.357544 263.053284,277.608704 270.540222,280.948303 
	C271.267639,283.155029 270.814545,285.215820 270.000610,287.615845 
	C268.048004,289.676483 266.180603,288.664368 264.297913,288.137085 
	C256.243347,285.881348 252.179642,287.473358 247.645660,294.635376 
	C245.356979,298.250671 243.218033,301.965485 240.245789,305.561584 
	C232.603180,305.815308 226.529175,302.887848 221.398636,297.286499 
	C228.133682,293.759460 235.674728,291.683594 240.881561,285.092407 
	C245.011902,285.210327 247.118713,283.295776 248.019135,279.334290 
z"/>
<path fill="#080808" opacity="1.000000" stroke="none" 
	d="
M134.100952,357.297180 
	C135.331757,352.307922 134.653519,347.604797 134.332642,342.477203 
	C133.984207,340.935913 134.028214,339.816254 133.904602,338.373230 
	C134.465057,335.108734 132.124084,331.251221 134.211517,329.468018 
	C136.327164,327.660706 139.768250,330.370544 142.713013,330.580994 
	C144.533554,330.711121 146.348907,330.913361 148.593445,331.004639 
	C150.466202,331.038666 151.913635,331.017578 153.670944,330.956177 
	C156.947037,331.416321 159.757050,330.341827 163.131638,329.869537 
	C163.247711,332.788330 162.581680,335.842133 164.909164,338.491943 
	C163.873657,340.660370 162.464478,339.768463 161.173080,339.055237 
	C157.808914,337.197205 154.304749,336.076996 150.432236,335.550720 
	C144.837631,334.790436 140.663818,337.421021 140.072662,343.216125 
	C139.603394,347.816345 137.454208,352.077820 137.756241,356.861298 
	C137.857895,358.471344 136.827621,360.435791 134.268097,360.932434 
	C133.887314,360.513397 133.884003,360.066986 133.844070,359.284363 
	C133.898682,358.510254 133.980255,358.070557 134.100952,357.297180 
z"/>
<path fill="#E8E8E8" opacity="1.000000" stroke="none" 
	d="
M247.276779,338.682434 
	C246.265030,338.779144 245.631165,338.817749 244.676849,338.852844 
	C242.049942,337.365906 243.458038,335.271149 243.447662,333.104065 
	C243.326019,332.427002 243.111404,332.136078 242.466095,331.922760 
	C241.738174,331.900452 241.315964,331.862244 240.571625,331.690033 
	C240.056000,331.452057 239.864868,331.319489 239.494843,330.880737 
	C239.126175,329.293732 239.736389,328.258667 240.655075,327.585205 
	C244.433258,324.815521 246.068298,320.775970 247.643463,316.251160 
	C248.756180,312.845245 249.666168,309.741821 250.784882,306.323059 
	C250.455215,300.278076 253.357773,295.841858 256.623444,291.646271 
	C258.110016,289.736359 260.355865,289.470825 262.472534,290.759949 
	C264.978485,292.286194 265.493561,294.556854 264.211487,297.591614 
	C263.265625,300.204285 262.551392,302.461060 261.818481,305.075500 
	C260.517548,309.806580 259.001404,314.028473 254.351288,316.227417 
	C252.456482,314.309326 253.398239,312.604828 254.143890,310.976105 
	C255.175766,308.722290 256.265656,306.498840 257.029114,303.746765 
	C257.933289,301.425568 259.119293,299.582611 259.219604,297.120117 
	C257.812317,298.870758 257.748688,300.892548 256.913025,302.980774 
	C254.214294,306.982819 253.458099,311.324036 252.149612,315.807007 
	C251.771515,316.355804 251.549301,316.590546 251.283844,316.778839 
	C251.005753,316.976044 251.116287,316.966980 251.846176,316.519592 
	C252.647751,315.890381 253.248886,315.655823 254.178635,316.210876 
	C256.016479,319.793152 253.129379,321.593323 251.888107,323.977051 
	C250.831207,326.006683 248.226639,327.864044 251.115479,330.775879 
	C252.551117,334.774719 249.879272,336.590454 247.276779,338.682434 
z"/>
<path fill="#E8E8E8" opacity="1.000000" stroke="none" 
	d="
M310.142792,335.097473 
	C309.616425,334.302795 309.440033,333.605072 310.178894,333.241425 
	C316.369598,330.194122 320.857239,324.550293 327.666443,321.784454 
	C328.420532,321.400055 328.885284,321.343079 329.693115,321.541199 
	C330.844421,324.183167 334.321869,322.129028 335.369781,324.905548 
	C337.924866,326.471405 337.178833,330.345459 340.732239,330.983948 
	C342.481812,331.811340 343.895203,331.168671 345.648499,330.877197 
	C346.467133,330.429291 346.963409,330.166229 347.836243,330.281250 
	C351.357758,330.039825 354.071289,328.389374 357.282776,326.775970 
	C358.044647,327.782227 358.295471,328.895966 357.692993,330.424988 
	C357.191315,331.272339 356.814209,331.682526 356.049072,332.279846 
	C353.826599,333.536255 351.895660,334.386841 349.283447,333.815704 
	C347.756317,333.897034 346.606293,334.090057 345.169434,334.482544 
	C342.512695,337.059631 339.670593,335.938873 336.597076,335.734619 
	C335.777222,335.723755 335.318115,335.764343 334.550507,335.976624 
	C332.268341,337.214386 330.490936,338.763428 327.723663,338.738159 
	C326.573730,338.375275 325.901367,337.697449 324.624939,337.721252 
	C322.308655,337.358002 321.908813,335.664398 321.298950,334.166229 
	C320.814941,332.977295 320.223907,332.084503 318.469910,333.152832 
	C317.748535,333.669159 317.313477,333.958649 316.491882,334.447327 
	C315.285919,335.063019 314.401184,335.254272 313.014191,335.410645 
	C311.880676,335.511108 311.237976,335.441650 310.142792,335.097473 
z"/>
<path fill="#F8F8F8" opacity="1.000000" stroke="none" 
	d="
M116.366058,304.922913 
	C117.149887,299.243378 121.666191,296.508209 125.783234,293.728607 
	C131.221237,290.057190 137.409958,288.432953 144.076874,288.975372 
	C146.043579,289.135345 148.034332,288.999878 150.476776,288.999390 
	C150.846985,291.173737 149.445404,292.785065 148.244934,294.795776 
	C147.710739,295.204559 147.413055,295.520142 147.136703,295.479675 
	C137.283798,294.036285 130.371933,299.582703 123.275589,305.596191 
	C120.830666,306.209442 118.794044,305.548401 116.366058,304.922913 
z"/>
<path fill="#080808" opacity="1.000000" stroke="none" 
	d="
M244.448395,330.826202 
	C244.566620,333.403625 244.397171,335.740234 244.292068,338.463104 
	C235.115433,338.597443 225.966644,343.495331 216.616364,339.086487 
	C211.825562,336.827515 206.333893,337.562347 201.066071,335.838806 
	C201.225571,333.991882 202.652237,333.610596 203.916443,332.585205 
	C204.815155,331.810394 205.370316,331.130463 206.462708,330.629333 
	C206.974396,330.470734 207.180695,330.413788 207.704956,330.313171 
	C208.880127,330.308838 209.675262,330.610931 210.780182,330.947266 
	C211.263412,331.126099 211.451462,331.208740 211.897156,331.456421 
	C212.740875,332.164642 213.227646,332.806305 214.063385,333.527893 
	C214.411285,333.893005 214.537415,334.051941 214.837524,334.458801 
	C215.360260,335.212982 215.788116,335.620422 216.702454,335.874878 
	C222.756348,337.012665 228.201004,335.760223 233.888824,333.740967 
	C236.450455,333.162994 238.367722,331.791168 240.941620,331.242584 
	C241.599777,331.151184 241.914429,331.076477 242.444901,330.846375 
	C243.164001,330.632324 243.655457,330.561218 244.448395,330.826202 
z"/>
<path fill="#DBDBDB" opacity="1.000000" stroke="none" 
	d="
M240.406799,305.916321 
	C242.943817,298.625732 246.617401,291.723236 252.879196,287.011353 
	C256.049835,284.625519 260.500610,285.632263 264.337799,286.752472 
	C265.904022,287.209747 267.314209,288.205017 269.457092,287.987762 
	C269.653320,290.776917 268.178192,293.045959 266.511353,295.588989 
	C265.098999,295.388458 265.168732,294.220612 264.688385,293.388672 
	C262.332367,289.307922 259.198334,288.996002 255.846863,292.305664 
	C252.084183,296.021423 250.558914,301.140808 247.207520,305.500061 
	C244.905243,305.823853 242.870010,305.917633 240.406799,305.916321 
z"/>
<path fill="#F2F2F2" opacity="1.000000" stroke="none" 
	d="
M157.160400,295.437378 
	C164.871460,296.029633 171.900055,299.277802 179.752396,300.971191 
	C181.167938,304.019897 180.239334,305.207428 176.941879,305.061157 
	C171.963776,304.840302 166.938889,304.664276 161.989838,305.102051 
	C157.624496,305.488190 156.397507,303.861389 157.028809,299.874359 
	C157.234329,298.576324 157.067169,297.219269 157.160400,295.437378 
z"/>
<path fill="#E8E8E8" opacity="1.000000" stroke="none" 
	d="
M214.002670,335.175781 
	C213.342926,334.757568 212.927109,334.480499 212.105560,333.573212 
	C213.840347,331.976440 216.088852,331.686951 218.427612,331.651184 
	C220.001923,331.627136 222.033829,331.962006 222.664337,329.964661 
	C223.181076,328.327759 221.645584,327.308716 220.651337,326.259888 
	C219.203003,324.732117 217.543121,324.533173 215.767670,325.758423 
	C214.281189,326.784241 212.945724,328.063538 210.759613,328.584106 
	C209.565109,328.531891 208.941147,328.152161 208.702179,327.010010 
	C212.493607,322.690033 215.101654,317.428192 221.576889,317.064575 
	C222.414322,320.257690 223.191971,322.859283 225.711975,324.956726 
	C225.867569,325.572571 225.984802,325.824921 226.450592,326.076538 
	C228.421982,329.197388 229.899750,332.676056 234.868469,331.679688 
	C235.650818,332.562958 235.740662,333.296875 235.208847,334.396454 
	C228.990112,336.527679 223.036774,338.648163 216.325729,336.758209 
	C215.385345,336.297516 214.811386,335.813080 214.002670,335.175781 
z"/>
<path fill="#0E0E0E" opacity="1.000000" stroke="none" 
	d="
M254.655396,316.319031 
	C255.804810,314.985779 259.380066,309.738190 261.521027,305.670959 
	C262.437347,307.649597 261.517120,309.773376 260.792480,311.634918 
	C258.931702,316.415039 258.522858,321.109894 260.042236,326.399780 
	C257.925842,329.001923 254.275894,327.953430 251.685242,330.756836 
	C248.189438,330.568115 247.889969,328.658295 249.011200,326.559631 
	C250.824585,323.165375 252.949478,319.937592 254.655396,316.319031 
z"/>
<path fill="#080808" opacity="1.000000" stroke="none" 
	d="
M326.702515,337.357483 
	C329.680450,338.455017 331.354279,336.015320 333.770996,335.286041 
	C334.114563,334.823700 334.294312,334.676788 334.745789,334.311951 
	C338.030060,334.232361 341.042633,334.370605 344.468872,334.595459 
	C342.599945,339.169922 337.917999,337.927368 334.279633,338.897095 
	C326.623718,340.937592 319.153809,337.419220 311.244690,337.198853 
	C311.152100,334.695862 313.078308,334.968506 314.690491,334.208099 
	C315.439209,333.631470 315.932892,333.282959 316.716309,332.844208 
	C317.188995,332.658051 317.372009,332.562134 317.748352,332.223938 
	C319.536896,331.002441 321.369019,328.431396 321.853790,332.922241 
	C322.009003,334.360382 322.812256,335.973633 324.624573,336.975342 
	C325.459076,337.045654 325.920166,337.114960 326.702515,337.357483 
z"/>
<path fill="#F2F2F2" opacity="1.000000" stroke="none" 
	d="
M123.433823,305.911987 
	C126.863075,298.865417 138.993683,291.384521 147.555984,294.979187 
	C147.572540,296.624756 146.321487,297.530426 144.851685,298.687256 
	C140.087753,300.559357 134.972931,300.996826 131.260406,305.256958 
	C128.645996,306.334381 126.238228,305.906006 123.433823,305.911987 
z"/>
<path fill="#111111" opacity="1.000000" stroke="none" 
	d="
M235.151001,331.592102 
	C232.694183,332.059540 230.196640,333.613007 228.424850,333.015259 
	C226.188904,332.260864 228.548126,328.809052 226.764297,326.573120 
	C227.321274,326.133881 228.107452,325.886749 228.630951,326.154022 
	C237.280334,330.570099 238.985611,326.787292 243.504715,319.923187 
	C244.519241,318.382233 245.266281,316.701111 247.505646,315.994690 
	C248.212708,323.213959 243.555481,326.880951 237.552277,330.093445 
	C237.681808,331.860626 237.681808,331.860626 235.151001,331.592102 
z"/>
<path fill="#080808" opacity="1.000000" stroke="none" 
	d="
M247.108032,339.036377 
	C248.074203,335.986664 251.360413,334.675781 251.472931,331.262451 
	C251.074951,331.057465 251.044739,331.031647 251.034576,331.036224 
	C255.338226,328.121857 259.492065,327.861053 263.686890,332.066040 
	C264.319519,332.773865 264.580994,333.244446 264.851135,334.153473 
	C264.980682,335.090912 264.919952,335.621582 264.547485,336.483643 
	C258.546661,336.856415 253.137100,339.488403 247.108032,339.036377 
z"/>
<path fill="#E8E8E8" opacity="1.000000" stroke="none" 
	d="
M263.703552,335.266846 
	C263.069336,334.915863 262.718933,334.582397 262.353882,333.879181 
	C262.468292,333.255310 262.597382,333.001221 263.093994,332.531616 
	C266.835571,331.541260 270.043640,332.734467 273.718445,333.249512 
	C280.329346,331.671997 285.876923,328.948151 289.930389,323.244873 
	C290.608643,322.614380 291.113617,322.446320 292.062073,322.705353 
	C293.358124,324.565643 291.636322,325.825867 291.811646,327.687439 
	C292.044983,328.150757 292.215210,328.292175 292.332092,328.759369 
	C291.116058,330.234589 291.981750,332.080353 290.569153,333.406311 
	C289.641724,333.755524 289.005219,333.715027 288.089722,333.377625 
	C287.259216,332.995544 286.701508,332.795227 285.790283,332.970490 
	C283.667816,333.748566 282.335754,335.416779 279.977142,335.716522 
	C279.025726,335.723572 278.399536,335.625397 277.477722,335.788574 
	C276.609344,336.099701 276.053375,336.368713 275.168030,336.640656 
	C272.186768,337.175385 269.508301,337.450562 266.435730,336.456482 
	C265.286133,336.067017 264.623383,335.704285 263.703552,335.266846 
z"/>
<path fill="#F2F2F2" opacity="1.000000" stroke="none" 
	d="
M189.250336,302.405884 
	C196.656052,302.812744 203.657135,300.395844 211.259766,299.978088 
	C212.627609,303.681824 211.723969,305.435394 207.387894,305.094360 
	C202.433121,304.704681 197.423447,305.045868 192.438660,304.984680 
	C190.975403,304.966736 188.814301,305.720276 189.250336,302.405884 
z"/>
<path fill="#B4B3B3" opacity="1.000000" stroke="none" 
	d="
M247.345490,305.801270 
	C248.189880,300.713440 250.657410,296.284821 254.087433,292.518402 
	C259.077362,287.039124 263.422333,288.024017 266.168152,295.401764 
	C265.660828,296.571136 265.105011,297.321869 264.264526,298.010071 
	C263.945953,296.964661 263.950317,295.978668 263.870148,294.999603 
	C263.705719,292.991608 262.660797,291.591644 260.702728,291.106720 
	C258.772491,290.628693 257.763580,291.917877 256.759979,293.342194 
	C254.164368,297.025787 252.926773,301.279053 251.224335,305.724243 
	C249.912582,305.962677 248.831543,305.917572 247.345490,305.801270 
z"/>
<path fill="#E8E8E8" opacity="1.000000" stroke="none" 
	d="
M363.687622,322.518860 
	C364.376343,322.934509 364.730438,323.223022 365.346863,323.731995 
	C366.111053,326.088348 366.937927,327.875885 369.817902,327.938477 
	C370.167786,328.271759 370.443573,328.386597 370.432922,328.428497 
	C369.726349,331.203644 363.021545,337.090607 359.911255,337.233795 
	C358.541443,335.251007 359.569702,333.445557 359.504852,331.336975 
	C359.391449,330.593292 359.269684,330.184662 358.938629,329.511536 
	C358.399658,328.688599 358.126068,328.092468 357.733826,327.185669 
	C358.878998,325.663696 360.159027,324.443939 361.709290,322.959076 
	C362.409851,322.468384 362.869049,322.373871 363.687622,322.518860 
z"/>
<path fill="#080808" opacity="1.000000" stroke="none" 
	d="
M360.747528,329.813843 
	C360.547882,332.090302 360.179626,334.166504 359.724396,336.629425 
	C356.005219,336.635864 352.203064,336.967438 348.988342,334.099060 
	C350.379181,332.192841 352.871399,333.498199 354.640991,331.706299 
	C355.204895,331.582428 355.391785,331.517242 355.759460,331.216553 
	C357.296417,330.194122 358.791260,329.513550 358.155945,327.100769 
	C357.724487,326.671539 357.664093,326.941437 357.631531,326.912415 
	C357.351898,328.179871 358.079926,328.685791 359.687866,328.770752 
	C360.219452,329.024445 360.352264,329.339539 360.747528,329.813843 
z"/>
<path fill="#F2F2F2" opacity="1.000000" stroke="none" 
	d="
M273.181549,295.435242 
	C275.085632,294.714203 276.151459,295.807922 276.736786,297.229584 
	C277.997131,300.290802 281.269470,301.481812 282.958130,304.488342 
	C280.289124,304.873474 277.572540,304.923309 274.413788,304.870300 
	C273.819061,304.679382 273.666534,304.591370 273.396667,304.266663 
	C273.216644,301.313232 273.153900,298.596466 273.181549,295.435242 
z"/>
<path fill="#111111" opacity="1.000000" stroke="none" 
	d="
M147.926788,327.357391 
	C146.398605,327.637543 144.746338,327.742401 143.156677,327.475006 
	C133.805511,325.902191 133.810425,325.872955 139.790649,318.255798 
	C140.122177,317.813934 140.263474,317.650146 140.628769,317.721130 
	C141.164261,318.316010 141.774384,318.705505 141.742264,319.031799 
	C141.291290,323.615601 143.484375,326.120209 147.926788,327.357391 
z"/>
<path fill="#080808" opacity="1.000000" stroke="none" 
	d="
M278.711945,335.018494 
	C281.444122,334.873444 283.024994,333.040741 285.336426,331.891968 
	C286.238342,331.593903 286.827179,331.523560 287.859009,331.713562 
	C288.500000,332.259766 288.713013,332.670959 289.108521,333.227234 
	C290.835327,333.247528 291.121399,334.344849 291.152100,335.868866 
	C290.311157,337.265167 289.396973,338.266052 288.202087,337.812347 
	C283.928955,336.190002 279.604004,337.420868 275.087708,337.017273 
	C275.195404,335.802155 276.029053,336.019226 276.959076,335.775391 
	C277.133942,334.607697 277.845612,334.926117 278.711945,335.018494 
z"/>
<path fill="#080808" opacity="1.000000" stroke="none" 
	d="
M169.779099,339.165527 
	C170.821014,337.592529 172.218338,336.054535 173.802521,334.242188 
	C174.148575,333.829956 174.307785,333.692017 174.622803,333.279236 
	C176.580704,330.103424 177.299881,333.172913 178.819565,333.802551 
	C180.708328,334.709167 182.208588,335.554993 183.078918,337.476807 
	C178.901245,339.625092 174.530884,339.532990 169.779099,339.165527 
z"/>
<path fill="#343333" opacity="1.000000" stroke="none" 
	d="
M131.458527,341.918335 
	C131.882126,348.642059 131.478256,355.038422 130.802139,361.861816 
	C131.158737,362.328674 131.093567,362.392181 131.075180,362.434082 
	C128.191391,360.307648 128.644638,357.178345 128.814575,354.229034 
	C129.034424,350.413574 129.498077,346.612122 129.933136,342.406372 
	C130.354858,341.648407 130.774170,341.533417 131.458527,341.918335 
z"/>
<path fill="#DBDBDB" opacity="1.000000" stroke="none" 
	d="
M131.279755,305.561920 
	C133.585251,299.969208 138.186035,298.426727 144.240845,298.956360 
	C143.846222,300.605408 142.188980,301.262177 140.602844,302.504852 
	C139.992615,304.165588 138.995651,304.637604 137.301361,304.378662 
	C135.187592,304.718567 133.401978,305.213013 131.279755,305.561920 
z"/>
<path fill="#E8E8E8" opacity="1.000000" stroke="none" 
	d="
M382.973663,332.709778 
	C384.785461,333.261871 386.019440,333.780975 387.591125,334.261536 
	C389.078552,334.004211 390.233948,333.977295 391.737305,334.179108 
	C393.405518,333.966431 394.730865,333.693573 396.460449,333.354950 
	C397.335968,333.850006 397.540985,334.495392 397.281433,335.713257 
	C391.898560,338.524048 386.854675,338.609650 381.819153,334.979370 
	C381.500549,333.883698 381.762054,333.208221 382.973663,332.709778 
z"/>
<path fill="#E8E8E8" opacity="1.000000" stroke="none" 
	d="
M303.337341,339.194580 
	C300.945740,338.918304 298.892517,338.783569 296.441528,338.456696 
	C294.818481,337.761414 294.315460,336.841064 294.617126,335.231018 
	C294.962189,334.808411 295.160431,334.695435 295.687073,334.678894 
	C296.407440,335.001495 296.799438,335.227692 297.534058,335.439087 
	C299.383911,334.881226 300.924194,334.957306 302.792908,335.266296 
	C304.406097,335.082397 305.710175,334.856018 306.987213,334.525208 
	C307.922699,334.282867 308.892883,333.651459 309.459534,335.015442 
	C310.165619,336.715057 308.505096,336.782654 307.364563,337.739502 
	C306.050964,338.861450 304.941193,339.295868 303.337341,339.194580 
z"/>
<path fill="#E8E8E8" opacity="1.000000" stroke="none" 
	d="
M184.849854,334.859070 
	C187.140915,334.675995 189.145309,334.808746 191.562668,334.811279 
	C192.457153,334.410339 192.940430,334.144440 193.788422,334.161743 
	C195.140808,333.916443 196.218781,333.640533 197.580933,333.332703 
	C198.329437,333.839447 198.530655,334.463043 198.253876,335.634583 
	C194.239609,338.471832 190.098297,338.422882 185.455551,337.670746 
	C184.336288,336.851196 184.273270,336.048279 184.849854,334.859070 
z"/>
<path fill="#E8E8E8" opacity="1.000000" stroke="none" 
	d="
M262.975647,333.244659 
	C259.397308,328.377747 255.484604,329.883911 251.259186,331.482056 
	C252.249329,327.540802 253.707489,326.791962 259.628143,326.824890 
	C261.087616,327.809143 262.123077,328.808716 263.434509,329.964691 
	C264.522430,330.372345 265.242401,330.704071 264.963379,332.006348 
	C264.394836,332.498413 264.003448,332.739166 262.975647,333.244659 
z"/>
<path fill="#888888" opacity="1.000000" stroke="none" 
	d="
M140.968536,317.651733 
	C140.852768,317.955872 140.417526,317.994568 140.199203,317.986145 
	C139.980148,317.656799 140.043442,317.070740 139.969513,317.052887 
	C135.918884,316.074768 138.267303,312.859283 137.400665,310.265564 
	C137.083420,309.858856 137.271683,309.766907 137.323792,309.775269 
	C138.556549,309.647858 139.238312,308.415131 140.810211,308.379272 
	C141.375488,308.447693 141.594879,308.515991 142.074051,308.809631 
	C142.535690,309.444031 142.658127,309.874542 142.650909,310.660156 
	C142.465652,312.008972 141.322754,312.767639 142.006622,314.225861 
	C142.798706,315.819397 141.445724,316.393616 140.968536,317.651733 
z"/>
<path fill="#0E0E0E" opacity="1.000000" stroke="none" 
	d="
M265.122375,332.407837 
	C264.420502,331.685516 264.054718,331.113403 263.699707,330.331207 
	C267.297760,330.015533 270.691193,330.671631 273.930664,333.013123 
	C271.099426,334.537598 268.213715,334.259399 265.122375,332.407837 
z"/>
<path fill="#E8E8E8" opacity="1.000000" stroke="none" 
	d="
M141.847198,308.446533 
	C140.218842,308.778076 139.702255,310.693665 137.670090,310.121002 
	C137.443817,309.246246 137.511703,308.708832 137.709198,307.761993 
	C139.229935,306.548401 139.605637,304.603668 141.710052,304.173279 
	C143.910904,304.583527 145.853821,304.939941 145.497192,307.955688 
	C145.277710,308.376068 144.848358,308.472015 145.067902,308.485596 
	C145.140808,309.203491 144.994156,309.907806 144.586639,310.874268 
	C143.819595,311.441559 143.275146,311.544800 142.329819,311.220947 
	C142.069901,310.637665 142.172577,310.279694 142.338409,309.649170 
	C142.524536,309.004425 142.420898,308.712708 141.847198,308.446533 
z"/>
<path fill="#DBDBDB" opacity="1.000000" stroke="none" 
	d="
M294.930908,334.614990 
	C295.295990,335.884766 295.593567,336.793152 295.967438,337.983032 
	C293.922943,339.231628 292.663116,338.082550 291.274445,336.349121 
	C290.436249,335.508545 289.921265,334.774506 289.348663,333.706360 
	C290.601196,332.785675 291.006989,332.092651 289.886047,330.830109 
	C288.782928,329.587616 289.892578,329.248962 291.189880,328.966858 
	C293.919617,329.902679 293.541962,332.617828 294.930908,334.614990 
z"/>
<path fill="#111111" opacity="1.000000" stroke="none" 
	d="
M225.925140,324.854553 
	C223.702271,323.370300 219.177353,323.000122 221.621429,317.904968 
	C221.874786,317.533875 221.875076,317.518646 221.933411,317.549652 
	C222.202682,316.820404 222.521957,316.140411 223.667175,315.942200 
	C223.311218,319.184235 225.966400,321.512543 225.925140,324.854553 
z"/>
<path fill="#888888" opacity="1.000000" stroke="none" 
	d="
M370.985474,288.641235 
	C371.027283,293.991241 370.986755,298.984039 371.014954,304.432159 
	C370.870636,304.921661 370.657562,304.955902 370.142700,304.873169 
	C369.310638,298.953156 368.952789,293.149384 369.877014,286.894806 
	C370.785370,286.810638 370.807434,287.565857 370.985474,288.641235 
z"/>
<path fill="#0E0E0E" opacity="1.000000" stroke="none" 
	d="
M341.027893,330.754211 
	C336.533417,332.288696 335.019287,330.233765 335.565277,325.569031 
	C339.230438,325.056732 339.984100,327.882233 341.027893,330.754211 
z"/>
<path fill="#888888" opacity="1.000000" stroke="none" 
	d="
M214.478760,215.930023 
	C214.847687,220.052292 214.819244,224.213928 214.507111,228.670685 
	C214.048309,229.024246 213.873169,229.082687 213.421143,229.134689 
	C213.088806,225.035339 213.033325,220.942444 213.137711,216.486084 
	C213.558838,216.071548 213.820099,216.020462 214.478760,215.930023 
z"/>
<path fill="#0E0E0E" opacity="1.000000" stroke="none" 
	d="
M370.030670,328.157593 
	C367.723541,326.247406 367.036865,329.895020 365.122009,329.479645 
	C364.297577,327.932861 365.378418,326.379333 365.525024,324.364319 
	C367.306885,323.869110 368.891510,324.106720 370.272888,325.740479 
	C371.683014,326.413086 371.042206,326.998444 370.317993,327.813171 
	C370.036133,328.056763 370.035645,328.124237 370.030670,328.157593 
z"/>
<path fill="#DBDBDB" opacity="1.000000" stroke="none" 
	d="
M185.032684,334.334717 
	C185.101624,335.288818 185.066757,336.034393 185.032501,337.153717 
	C184.601028,337.641388 184.168915,337.755280 183.400513,337.835114 
	C181.781616,336.725403 180.499008,335.649689 179.185547,334.251282 
	C179.858261,333.565521 180.561844,333.202454 181.635468,332.699158 
	C182.579163,332.504639 183.150772,332.470886 183.790802,332.995422 
	C184.234833,333.552032 184.581848,333.839111 185.032684,334.334717 
z"/>
<path fill="#B4B3B3" opacity="1.000000" stroke="none" 
	d="
M289.358490,319.554077 
	C288.416534,316.772369 290.941956,313.250702 292.864288,314.202606 
	C295.786987,315.649902 293.410767,316.954742 292.102905,318.460815 
	C291.384827,319.527222 290.635925,319.764801 289.358490,319.554077 
z"/>
<path fill="#E8E8E8" opacity="1.000000" stroke="none" 
	d="
M398.693970,333.128113 
	C400.409393,331.179535 402.061584,329.934998 404.054260,328.729736 
	C405.193695,328.539459 405.999084,328.513977 407.205414,329.161499 
	C405.483185,332.000977 402.789154,333.553131 399.635559,335.041229 
	C399.050873,334.675873 398.840790,334.253998 398.693970,333.128113 
z"/>
<path fill="#0E0E0E" opacity="1.000000" stroke="none" 
	d="
M295.257141,334.948761 
	C293.261017,333.601318 291.283386,332.389130 291.471680,329.346191 
	C291.510254,328.782898 291.518066,328.602783 291.700317,328.216003 
	C295.735260,328.315765 294.992523,331.779633 296.012268,334.406006 
	C295.848907,334.823883 295.682404,334.872528 295.257141,334.948761 
z"/>
<path fill="#E8E8E8" opacity="1.000000" stroke="none" 
	d="
M327.432556,304.930298 
	C330.017487,301.479340 333.399872,302.730835 336.903992,304.476013 
	C333.971558,304.902313 330.926636,304.958588 327.432556,304.930298 
z"/>
<path fill="#DBDBDB" opacity="1.000000" stroke="none" 
	d="
M198.400208,336.089539 
	C198.008316,335.475586 197.977707,334.853516 197.906097,333.766113 
	C199.350708,332.468811 200.836334,331.636841 202.646484,330.764099 
	C203.442337,331.384552 204.284241,331.667297 204.791061,332.685028 
	C204.025391,334.197662 202.747223,334.734283 201.089905,335.263062 
	C200.145294,335.674225 199.453400,335.877808 198.400208,336.089539 
z"/>
<path fill="#191919" opacity="1.000000" stroke="none" 
	d="
M141.941162,303.871429 
	C140.843857,305.114594 139.632706,306.095795 138.130188,307.214783 
	C137.564880,306.491608 137.290924,305.630615 136.995087,304.496887 
	C137.906158,303.761993 138.839127,303.299896 140.082855,302.800415 
	C140.871506,303.045135 141.349411,303.327301 141.941162,303.871429 
z"/>
<path fill="#E8E8E8" opacity="1.000000" stroke="none" 
	d="
M370.259155,328.495361 
	C369.230072,327.488861 369.571442,326.990631 370.307312,326.232697 
	C372.190094,325.649780 373.895905,325.339783 375.921051,325.217377 
	C376.499420,326.030396 376.574371,326.677185 376.205566,327.767822 
	C374.124481,328.438232 372.303345,328.686096 370.259155,328.495361 
z"/>
<path fill="#111111" opacity="1.000000" stroke="none" 
	d="
M183.897430,332.891418 
	C183.425201,333.076447 182.962585,332.887939 182.252747,332.629211 
	C181.297516,331.298309 180.589493,330.037689 179.876160,328.414429 
	C182.799347,328.109802 183.266144,330.392517 183.897430,332.891418 
z"/>
<path fill="#E8E8E8" opacity="1.000000" stroke="none" 
	d="
M379.244843,328.478363 
	C380.605194,329.434387 381.419373,330.360901 382.359497,331.573059 
	C381.889069,332.744659 380.964417,332.926025 379.648743,332.943268 
	C378.197205,332.670746 378.451630,331.542084 377.903748,330.611267 
	C377.769257,329.517151 378.054535,328.900085 379.244843,328.478363 
z"/>
<path fill="#0E0E0E" opacity="1.000000" stroke="none" 
	d="
M302.901917,335.019562 
	C301.628448,336.209869 300.034058,335.788391 298.174561,335.587250 
	C299.209259,333.405945 300.905121,333.754913 302.901917,335.019562 
z"/>
<path fill="#DBDBDB" opacity="1.000000" stroke="none" 
	d="
M379.681152,328.169678 
	C379.307587,328.856354 378.824188,329.204803 378.092010,329.926758 
	C377.284851,329.776459 376.726471,329.252686 376.056885,328.459656 
	C376.005310,327.570770 376.064972,326.951141 376.182495,325.868256 
	C377.883362,325.482635 378.703644,326.689606 379.681152,328.169678 
z"/>
<path fill="#E8E8E8" opacity="1.000000" stroke="none" 
	d="
M205.135406,332.819824 
	C203.947678,332.834656 203.147827,332.521759 202.999664,331.061127 
	C204.047104,329.915405 205.123199,329.107544 206.581406,328.160828 
	C207.102249,328.548981 207.240997,329.075958 207.207382,330.401978 
	C206.481140,331.690857 205.927261,332.180695 205.135406,332.819824 
z"/>
<path fill="#080808" opacity="1.000000" stroke="none" 
	d="
M303.047943,339.368958 
	C303.929840,338.196381 305.026978,337.817596 306.644165,337.965515 
	C306.316833,340.025940 305.509552,341.739929 303.047943,339.368958 
z"/>
<path fill="#0E0E0E" opacity="1.000000" stroke="none" 
	d="
M289.013489,319.710510 
	C289.696594,319.244110 290.426636,319.075531 291.523499,318.824951 
	C291.938416,319.501648 291.986542,320.260376 292.045837,321.399109 
	C291.786194,322.274719 291.369507,322.496887 290.446167,322.317444 
	C289.743713,321.462311 289.402069,320.735352 289.013489,319.710510 
z"/>
<path fill="#DBDBDB" opacity="1.000000" stroke="none" 
	d="
M207.299454,331.185486 
	C207.017868,330.671356 207.000702,330.141693 206.973511,328.817017 
	C207.442474,327.567108 207.921448,327.112244 208.611755,326.645447 
	C209.379547,327.068207 209.935989,327.502869 210.861740,327.984131 
	C211.274872,328.229675 211.318695,328.428589 211.265808,328.917969 
	C210.481522,330.009094 209.570923,330.431000 208.333725,330.890259 
	C207.908173,331.091339 207.736023,331.130676 207.299454,331.185486 
z"/>
<path fill="#0E0E0E" opacity="1.000000" stroke="none" 
	d="
M391.881775,333.933899 
	C390.940460,335.133636 389.655426,334.693298 388.170624,334.430786 
	C388.964264,332.660065 390.262390,332.756409 391.881775,333.933899 
z"/>
<path fill="#DBDBDB" opacity="1.000000" stroke="none" 
	d="
M141.694733,311.273621 
	C142.491653,311.022491 143.016068,311.049377 143.933136,311.106354 
	C143.820694,312.158997 143.315613,313.181488 142.494675,314.346802 
	C139.822311,314.052185 140.954391,312.716370 141.694733,311.273621 
z"/>
<path fill="#DBDBDB" opacity="1.000000" stroke="none" 
	d="
M407.588837,329.618073 
	C406.895569,329.409698 406.191284,329.188904 404.940857,328.868530 
	C405.361420,327.839355 406.328094,326.909760 407.614990,325.877411 
	C408.347076,326.410645 409.083954,326.354279 409.938965,326.807343 
	C409.931519,327.432465 409.666718,327.844727 409.140320,328.259399 
	C408.247986,328.086731 407.717896,328.245758 407.418701,329.168091 
	C407.548401,329.595520 407.577789,329.605682 407.588837,329.618073 
z"/>
<path fill="#DBDBDB" opacity="1.000000" stroke="none" 
	d="
M314.069214,334.042542 
	C314.097839,335.388763 312.534454,335.619385 311.090332,336.567535 
	C309.486908,337.010620 308.578583,336.716034 309.640015,334.974854 
	C310.849731,334.659241 312.021332,334.382172 314.069214,334.042542 
z"/>
<path fill="#DBDBDB" opacity="1.000000" stroke="none" 
	d="
M398.489197,332.447693 
	C398.843079,332.869232 398.928955,333.314423 399.137909,334.428650 
	C398.709045,335.464264 398.157135,335.830841 397.344116,336.199280 
	C397.040375,335.553650 396.997742,334.906128 396.909912,333.773926 
	C397.316864,333.016602 397.769043,332.743988 398.489197,332.447693 
z"/>
<path fill="#0E0E0E" opacity="1.000000" stroke="none" 
	d="
M408.982666,325.241821 
	C408.037628,324.186371 407.955933,323.377838 408.947113,323.107239 
	C409.943939,322.835144 410.817444,323.120422 410.660400,324.707764 
	C410.194031,325.150146 409.847809,325.335358 408.982666,325.241821 
z"/>
<path fill="#111111" opacity="1.000000" stroke="none" 
	d="
M158.881927,326.869049 
	C158.235367,327.374817 157.425018,327.609772 156.294861,327.759949 
	C156.364822,325.979980 157.300446,325.675201 158.881927,326.869049 
z"/>
<path fill="#DBDBDB" opacity="1.000000" stroke="none" 
	d="
M379.295105,333.219849 
	C380.137756,332.556671 380.976044,332.244659 382.149872,331.895660 
	C382.780060,331.996124 383.074738,332.133545 383.460449,332.506866 
	C383.063354,333.126129 382.575226,333.509491 381.849304,334.298096 
	C380.416443,335.189728 379.966003,334.149902 379.295105,333.219849 
z"/>
<path fill="#E8E8E8" opacity="1.000000" stroke="none" 
	d="
M224.131271,315.530701 
	C223.510101,316.439850 222.992889,316.800903 222.233704,317.371307 
	C220.090881,316.905029 220.029877,315.659729 221.238495,314.386597 
	C222.368790,313.195953 223.654938,312.697113 224.131271,315.530701 
z"/>
<path fill="#DBDBDB" opacity="1.000000" stroke="none" 
	d="
M263.561829,335.527954 
	C264.287323,334.921753 265.099457,334.904602 265.903839,335.956970 
	C265.666870,336.386841 265.297882,336.529419 264.634094,336.749451 
	C264.127472,336.486755 263.915710,336.146667 263.561829,335.527954 
z"/>
<path fill="#111111" opacity="1.000000" stroke="none" 
	d="
M193.936249,333.940552 
	C193.554443,334.408691 193.046051,334.625000 192.256638,334.761200 
	C192.206528,333.647186 192.556442,332.833221 193.936249,333.940552 
z"/>
<path fill="#111111" opacity="1.000000" stroke="none" 
	d="
M178.041229,318.352295 
	C177.623611,318.637909 177.148254,318.664062 176.320358,318.633453 
	C176.345245,317.188904 176.930649,316.667267 178.041229,318.352295 
z"/>
<path fill="#0E0E0E" opacity="1.000000" stroke="none" 
	d="
M329.983704,321.419403 
	C329.563324,321.695984 329.105774,321.708252 328.310913,321.654358 
	C328.356781,320.193268 328.925720,319.644867 329.983704,321.419403 
z"/>
<path fill="#0E0E0E" opacity="1.000000" stroke="none" 
	d="
M347.992249,330.079102 
	C347.585724,330.533722 347.060242,330.718689 346.258911,330.816711 
	C346.235260,329.646881 346.600739,328.796722 347.992249,330.079102 
z"/>
<path fill="#343333" opacity="1.000000" stroke="none" 
	d="
M177.920593,323.047333 
	C177.098083,323.217041 176.151291,323.510681 175.906769,322.537781 
	C175.850784,322.314941 176.714096,321.861053 177.560394,321.429962 
	C177.982239,321.835907 177.998001,322.325378 177.920593,323.047333 
z"/>
<path fill="#0E0E0E" opacity="1.000000" stroke="none" 
	d="
M363.977295,322.380981 
	C363.568512,322.687256 363.114777,322.728485 362.320251,322.731812 
	C362.285126,321.334656 362.779175,320.612030 363.977295,322.380981 
z"/>
<path fill="#E8E8E8" opacity="1.000000" stroke="none" 
	d="
M408.344269,325.078796 
	C408.809937,324.909454 409.156097,324.855835 410.021240,324.883575 
	C410.608154,325.467072 410.676056,325.969177 410.470154,326.745789 
	C409.560364,326.802979 408.924408,326.585754 408.111816,326.071594 
	C407.929840,325.530426 408.026367,325.337036 408.344269,325.078796 
z"/>
<path fill="#DBDBDB" opacity="1.000000" stroke="none" 
	d="
M290.094666,322.397156 
	C290.522797,322.096161 290.960266,322.003021 291.727386,321.844482 
	C292.163727,321.951447 292.270416,322.123810 292.402832,322.598877 
	C291.929138,322.938721 291.429718,322.975922 290.555573,323.013611 
	C290.180878,323.014099 290.104004,322.605042 290.094666,322.397156 
z"/>
<path fill="#E8E8E8" opacity="1.000000" stroke="none" 
	d="
M323.044220,304.280762 
	C323.369171,304.096466 323.596191,304.259979 323.889771,304.665833 
	C323.664398,304.752869 323.327698,304.659698 323.044220,304.280762 
z"/>
<path fill="#888888" opacity="1.000000" stroke="none" 
	d="
M145.247375,308.471375 
	C145.287460,308.499207 144.816940,308.557465 144.816940,308.557465 
	C144.816940,308.557465 144.990341,308.558533 145.134033,308.467285 
	C145.277710,308.376068 145.207291,308.443573 145.247375,308.471375 
z"/>
<path fill="#F2F2F2" opacity="1.000000" stroke="none" 
	d="
M157.707977,189.943146 
	C157.956146,190.277023 157.822311,190.535141 157.412567,190.867035 
	C157.290024,190.629807 157.353134,190.271988 157.707977,189.943146 
z"/>
<path fill="#F8F8F8" opacity="1.000000" stroke="none" 
	d="
M273.212433,304.265717 
	C273.485168,304.138702 273.659119,304.285217 273.886414,304.618469 
	C273.971619,304.767426 273.488708,304.851379 273.488708,304.851379 
	C273.488708,304.851379 273.145477,304.501465 273.212433,304.265717 
z"/>
<path fill="#F2F2F2" opacity="1.000000" stroke="none" 
	d="
M273.707886,189.943192 
	C273.956085,190.277054 273.822266,190.535156 273.412537,190.867035 
	C273.289978,190.629852 273.353088,190.272064 273.707886,189.943192 
z"/>
<path fill="#E8E8E8" opacity="1.000000" stroke="none" 
	d="
M407.854614,329.464355 
	C407.730927,329.164337 407.913452,328.733124 408.487366,328.281891 
	C408.639404,328.618988 408.400085,328.976074 407.854614,329.464355 
z"/>
<path fill="#040404" opacity="1.000000" stroke="none" 
	d="
M180.674194,216.061554 
	C181.238281,213.911896 179.088043,210.863449 183.084900,210.963287 
	C186.195572,211.040985 189.669266,210.351074 190.470398,214.805893 
	C191.209290,218.914536 191.174957,223.021667 190.507065,227.145844 
	C189.846649,231.223923 187.436401,232.559647 183.484787,232.303864 
	C181.400818,232.168976 180.557175,231.684052 180.632477,229.472351 
	C180.778915,225.170670 180.674622,220.860458 180.674194,216.061554 
z"/>
<path fill="#0A0A0A" opacity="1.000000" stroke="none" 
	d="
M119.475029,264.982208 
	C119.475304,249.988831 119.443169,235.492111 119.506950,220.995804 
	C119.517876,218.514389 119.665329,215.968781 120.244720,213.572540 
	C120.847641,211.079025 122.737526,209.782303 125.462906,209.841278 
	C128.388443,209.904556 129.508118,211.711380 130.004318,214.224396 
	C130.036514,214.387466 130.062531,214.554474 130.065704,214.720139 
	C130.481644,236.374237 130.646637,258.029633 129.940430,279.679199 
	C129.847229,282.536835 128.344879,284.834106 124.985115,284.862701 
	C121.749413,284.890228 120.203743,282.890564 120.012459,279.947754 
	C119.699547,275.133514 119.640907,270.302795 119.475029,264.982208 
z"/>
<path fill="#343333" opacity="1.000000" stroke="none" 
	d="
M166.333420,331.453247 
	C168.188812,327.086273 170.771393,323.987701 175.948303,322.210541 
	C174.393890,326.826874 172.296097,330.077179 170.151093,333.289246 
	C169.441864,334.351318 168.665405,336.061432 167.312958,335.664337 
	C165.550461,335.146759 166.054520,333.273102 166.333420,331.453247 
z"/>
<path fill="#DBDBDB" opacity="1.000000" stroke="none" 
	d="
M153.746857,330.681519 
	C152.520447,331.019745 151.060287,331.102875 149.310226,331.056030 
	C150.383911,329.554413 151.938126,329.897034 153.746857,330.681519 
z"/>
<path fill="#DBDBDB" opacity="1.000000" stroke="none" 
	d="
M133.635315,338.235809 
	C134.047501,339.157257 134.229813,340.273346 134.291077,341.714722 
	C132.583252,341.118958 132.884293,339.798035 133.635315,338.235809 
z"/>
<path fill="#888888" opacity="1.000000" stroke="none" 
	d="
M131.772766,341.862793 
	C131.295319,342.132507 130.931274,342.058929 130.288361,341.996704 
	C129.937653,340.939301 129.613434,339.544769 131.220917,339.569611 
	C132.109802,339.583313 131.843109,340.784515 131.772766,341.862793 
z"/>
<path fill="#DBDBDB" opacity="1.000000" stroke="none" 
	d="
M133.938248,357.050629 
	C134.160965,357.491882 134.170609,358.018188 133.993866,358.746338 
	C132.943253,358.381989 132.966522,357.775543 133.938248,357.050629 
z"/>
<path fill="#DBDBDB" opacity="1.000000" stroke="none" 
	d="
M174.598053,333.120300 
	C174.698746,333.314362 174.618881,333.624329 174.264191,333.951111 
	C174.054871,333.678833 174.197571,333.434937 174.598053,333.120300 
z"/>
<path fill="#343333" opacity="1.000000" stroke="none" 
	d="
M258.285095,302.702576 
	C257.925507,307.575989 254.418152,311.127106 253.917938,315.863586 
	C254.367950,315.998566 254.273315,315.977905 254.273285,316.025024 
	C253.425400,315.161713 252.965408,315.942596 252.249786,316.813324 
	C251.853943,317.206390 251.660156,317.275970 251.177963,317.455994 
	C251.306839,312.511932 252.526825,307.719330 255.728394,303.234833 
	C256.537323,302.589325 257.158783,302.427185 258.285095,302.702576 
z"/>
<path fill="#888888" opacity="1.000000" stroke="none" 
	d="
M258.966980,302.692017 
	C258.118408,302.967682 257.505554,303.020233 256.433655,303.024719 
	C256.031677,299.541901 257.511719,296.744873 260.068542,293.665070 
	C261.585266,297.199249 259.693512,299.778442 258.966980,302.692017 
z"/>
<path fill="#DBDBDB" opacity="1.000000" stroke="none" 
	d="
M234.909592,331.867188 
	C235.542816,331.062561 236.216187,330.663849 237.046509,330.309143 
	C237.877502,330.491028 238.551559,330.628937 240.242569,330.942474 
	C239.965454,333.204987 237.395203,333.359833 235.328201,334.762024 
	C234.969223,333.903564 234.959473,333.088318 234.909592,331.867188 
z"/>
<path fill="#343333" opacity="1.000000" stroke="none" 
	d="
M244.864014,330.702454 
	C244.276215,331.037659 243.816330,331.008240 243.021393,330.888794 
	C243.350952,330.125305 243.907471,328.911072 244.864014,330.702454 
z"/>
<path fill="#B4B3B3" opacity="1.000000" stroke="none" 
	d="
M251.049973,317.713013 
	C251.077789,317.481995 251.266037,317.397491 251.751007,317.224884 
	C251.768616,317.377716 251.489502,317.618652 251.049973,317.713013 
z"/>
<path fill="#343333" opacity="1.000000" stroke="none" 
	d="
M329.541321,325.890930 
	C329.016632,327.776672 328.956177,329.262146 329.931763,330.530396 
	C331.174225,332.145599 331.353607,333.613251 329.269562,334.443756 
	C326.988770,335.352600 325.412811,334.094788 324.660431,332.042206 
	C323.682465,329.374359 326.236664,326.120026 329.541321,325.890930 
z"/>
<path fill="#DBDBDB" opacity="1.000000" stroke="none" 
	d="
M326.971130,337.225128 
	C326.427673,337.530304 325.824402,337.579529 325.105377,337.331543 
	C325.596344,336.014404 326.236542,335.982239 326.971130,337.225128 
z"/>
<path fill="#DBDBDB" opacity="1.000000" stroke="none" 
	d="
M317.747070,332.058411 
	C317.804688,332.289642 317.667694,332.597626 317.268372,332.829773 
	C317.120819,332.488251 317.302979,332.281982 317.747070,332.058411 
z"/>
<path fill="#343333" opacity="1.000000" stroke="none" 
	d="
M334.698914,334.030029 
	C334.876404,334.393677 334.669189,334.636963 334.165344,334.897278 
	C334.083344,334.635742 334.231842,334.300842 334.698914,334.030029 
z"/>
<path fill="#DBDBDB" opacity="1.000000" stroke="none" 
	d="
M355.748199,331.032898 
	C355.795105,331.284637 355.649994,331.588257 355.261475,331.769745 
	C355.120148,331.386108 355.299530,331.198517 355.748199,331.032898 
z"/>
<path fill="#191919" opacity="1.000000" stroke="none" 
	d="
M210.885620,329.489319 
	C211.107956,329.050018 211.114792,328.844269 211.176331,328.334656 
	C211.608688,327.728516 212.044830,327.476715 212.355103,327.116455 
	C216.365417,322.460144 221.702026,323.054108 224.177277,328.650330 
	C225.586945,331.837372 223.009125,332.477173 220.678482,333.184265 
	C217.772858,334.065735 215.436035,331.213043 212.137543,332.521301 
	C211.699814,332.943024 211.806427,332.596069 211.871948,332.565247 
	C211.727173,331.931610 211.313644,331.454071 210.833389,330.649597 
	C210.697250,330.145721 210.683670,329.934296 210.885620,329.489319 
z"/>
<path fill="#343333" opacity="1.000000" stroke="none" 
	d="
M210.792419,329.210510 
	C211.101135,329.255737 211.121948,329.475037 211.043411,329.552246 
	C211.358307,330.217285 211.491241,330.859314 210.919128,331.800781 
	C209.833542,331.790741 209.194366,331.535065 208.317764,331.165680 
	C208.881454,330.423065 209.682571,329.794189 210.792419,329.210510 
z"/>
<path fill="#DBDBDB" opacity="1.000000" stroke="none" 
	d="
M213.862686,335.364929 
	C214.653610,335.002960 215.474564,335.121124 215.949844,336.393219 
	C214.934204,337.183289 214.264740,336.816528 213.862686,335.364929 
z"/>
<path fill="#E8E8E8" opacity="1.000000" stroke="none" 
	d="
M210.783508,332.334717 
	C210.536850,331.498138 210.600952,330.949921 210.814972,330.015564 
	C212.154312,329.955170 213.332413,330.290894 212.475464,332.241669 
	C211.656403,332.563965 211.375336,332.593506 210.783508,332.334717 
z"/>
<path fill="#DBDBDB" opacity="1.000000" stroke="none" 
	d="
M278.840271,334.820038 
	C278.979706,336.036652 278.354279,336.007812 277.433472,335.757874 
	C277.266876,334.729248 277.563812,334.119293 278.840271,334.820038 
z"/>
<path fill="#343333" opacity="1.000000" stroke="none" 
	d="
M288.253723,331.444641 
	C287.702911,331.862854 287.118866,331.877167 286.099670,331.840698 
	C286.346069,330.958771 286.989105,329.996368 288.253723,331.444641 
z"/>
<path fill="#343333" opacity="1.000000" stroke="none" 
	d="
M361.083954,329.670929 
	C360.657227,329.755615 360.398254,329.497101 360.153687,328.956177 
	C360.768280,328.495789 361.131042,328.711243 361.083954,329.670929 
z"/>
<path fill="#888888" opacity="1.000000" stroke="none" 
	d="
M141.783997,308.653442 
	C142.368515,307.794556 142.800903,307.852539 142.553558,309.163635 
	C142.255798,309.222839 142.110016,309.069031 141.783997,308.653442 
z"/>
</svg>