<svg version="1.1" id="Layer_1" xmlns="http://www.w3.org/2000/svg" xmlns:xlink="http://www.w3.org/1999/xlink" x="0px" y="0px"
	 width="100%" viewBox="0 0 500 500" enable-background="new 0 0 500 500" xml:space="preserve">
<path fill="#FFFFFF" opacity="1.000000" stroke="none" 
	d="
M250.000000,501.000000 
	C167.072968,501.000000 84.145920,501.000000 1.000000,501.000000 
	C1.000000,418.312561 1.000000,335.624939 1.324983,252.557556 
	C13.417809,263.823090 25.185652,275.468384 37.124256,287.494263 
	C37.621403,293.839813 37.947784,299.804810 38.287067,306.005493 
	C40.274204,306.005493 42.068329,305.907715 43.848309,306.024872 
	C48.200310,306.311310 52.545773,306.697052 57.004978,307.352966 
	C120.332680,370.875610 183.550507,434.086975 246.756180,497.310455 
	C247.911591,498.466187 248.921951,499.766907 250.000000,501.000000 
z"/>
<path fill="#FFFFFF" opacity="1.000000" stroke="none" 
	d="
M501.000000,252.000000 
	C501.000000,334.927032 501.000000,417.854095 501.000000,501.000000 
	C418.312561,501.000000 335.624939,501.000000 252.557083,500.686279 
	C315.394043,437.157318 378.612213,373.943085 441.820251,310.718719 
	C442.981964,309.556702 444.022522,308.273529 445.491089,306.852600 
	C452.849976,306.308411 459.837402,305.958496 466.892517,305.605164 
	C466.892517,302.391266 466.752075,299.561615 466.925415,296.751312 
	C467.185791,292.530457 467.666107,288.323151 468.370270,283.993408 
	C479.458405,273.251190 490.229218,262.625580 501.000000,252.000000 
z"/>
<path fill="#FFFFFF" opacity="1.000000" stroke="none" 
	d="
M1.000003,250.000000 
	C1.000000,167.072968 1.000000,84.145920 1.000000,1.000000 
	C83.687431,1.000000 166.375061,1.000000 249.451660,1.317167 
	C188.503601,62.966747 127.165581,124.298195 65.837578,185.639664 
	C64.793564,186.683899 63.870754,187.849319 62.519226,189.152679 
	C54.174263,189.347168 46.201462,189.347168 37.921917,189.347168 
	C37.921917,194.237122 38.046711,198.007706 37.889309,201.766479 
	C37.705982,206.144424 37.275761,210.512054 36.636780,215.005341 
	C24.547253,226.751038 12.773630,238.375519 1.000003,250.000000 
z"/>
<path fill="#FFFFFF" opacity="1.000000" stroke="none" 
	d="
M252.000000,1.000004 
	C334.927032,1.000000 417.854095,1.000000 501.000000,1.000000 
	C501.000000,83.687431 501.000000,166.375061 500.676697,249.437454 
	C488.144165,237.604324 475.934967,225.396439 463.847687,212.899017 
	C464.396759,211.812805 465.182312,211.021561 465.194550,210.218536 
	C465.294861,203.640411 465.251129,197.060059 465.251129,189.997574 
	C459.552368,189.997574 454.139618,190.118881 448.735779,189.951859 
	C445.523499,189.852600 442.325226,189.299484 439.009033,188.639771 
	C377.563629,126.997772 316.228760,65.667534 254.905197,4.325983 
	C253.866806,3.287294 252.965347,2.111706 252.000000,1.000004 
z"/>
<path fill="#181818" opacity="1.000000" stroke="none" 
	d="
M445.119598,307.046875 
	C444.022522,308.273529 442.981964,309.556702 441.820251,310.718719 
	C378.612213,373.943085 315.394043,437.157318 252.088425,500.686279 
	C251.555557,501.000000 251.111115,501.000000 250.333344,501.000000 
	C248.921951,499.766907 247.911591,498.466187 246.756180,497.310455 
	C183.550507,434.086975 120.332680,370.875610 57.372787,307.333801 
	C58.120445,306.994537 58.611397,306.984497 59.414749,307.087036 
	C72.527893,319.906342 85.328636,332.613129 98.303360,345.629822 
	C108.029694,355.388275 117.582062,364.836792 127.302841,374.601013 
	C168.537399,416.009583 209.603546,457.102478 251.739105,499.265472 
	C252.886978,497.511932 253.586960,495.915558 254.734512,494.765930 
	C290.625061,458.811676 326.613281,422.954803 362.457153,386.954163 
	C374.862701,374.494324 386.926239,361.693939 399.456543,348.931976 
	C407.047302,341.839264 414.360413,334.897583 421.598480,327.878510 
	C428.741302,320.951813 435.808228,313.946869 443.277222,306.979126 
	C444.137207,307.003632 444.628387,307.025269 445.119598,307.046875 
z"/>
<path fill="#181818" opacity="1.000000" stroke="none" 
	d="
M251.666656,1.000004 
	C252.965347,2.111706 253.866806,3.287294 254.905197,4.325983 
	C316.228760,65.667534 377.563629,126.997772 438.639191,188.660309 
	C437.887329,189.002655 437.393646,189.013824 436.586487,188.914734 
	C374.618073,127.112740 312.963135,65.421005 250.445877,2.866433 
	C249.163223,4.657276 248.364410,6.172524 247.207672,7.330124 
	C195.762939,58.813538 144.295792,110.274582 92.805695,161.712631 
	C83.633217,170.875824 74.349907,179.928101 64.746521,189.025314 
	C63.880638,188.998749 63.386005,188.978470 62.891380,188.958176 
	C63.870754,187.849319 64.793564,186.683899 65.837578,185.639664 
	C127.165581,124.298195 188.503601,62.966747 249.920319,1.317167 
	C250.444443,1.000000 250.888885,1.000000 251.666656,1.000004 
z"/>
<path fill="#181818" opacity="1.000000" stroke="none" 
	d="
M1.000003,250.333344 
	C12.773630,238.375519 24.547253,226.751038 36.658157,215.386032 
	C37.012775,216.153580 37.030113,216.661652 36.926331,217.476410 
	C25.853731,228.850037 14.902247,239.916977 2.991648,251.953140 
	C14.405856,262.975006 25.725166,273.905273 37.034927,285.215424 
	C37.001415,286.101440 36.977455,286.607574 36.953495,287.113678 
	C25.185652,275.468384 13.417809,263.823090 1.324983,252.088898 
	C1.000000,251.555557 1.000000,251.111115 1.000003,250.333344 
z"/>
<path fill="#181818" opacity="1.000000" stroke="none" 
	d="
M463.725830,213.188553 
	C475.934967,225.396439 488.144165,237.604324 500.676697,249.906113 
	C501.000000,250.444443 501.000000,250.888901 501.000000,251.666672 
	C490.229218,262.625580 479.458405,273.251190 468.236389,283.746887 
	C467.488464,283.395752 467.191833,283.174500 467.023682,282.641174 
	C477.562286,271.899536 487.972443,261.469971 499.033386,250.388428 
	C486.549103,238.218491 474.514313,226.486740 462.786377,214.359619 
	C463.304108,213.705688 463.514954,213.447128 463.725830,213.188553 
z"/>
<path fill="#030303" opacity="1.000000" stroke="none" 
	d="
M37.124256,287.494263 
	C36.977455,286.607574 37.001415,286.101440 37.415321,285.030975 
	C37.847115,277.156616 37.914783,269.846619 37.925220,262.536591 
	C37.944664,248.917435 37.958237,235.298111 37.892021,221.679260 
	C37.884708,220.174744 37.341900,218.672836 37.047447,217.169708 
	C37.030113,216.661652 37.012775,216.153580 36.974060,215.264832 
	C37.275761,210.512054 37.705982,206.144424 37.889309,201.766479 
	C38.046711,198.007706 37.921917,194.237122 37.921917,189.347168 
	C46.201462,189.347168 54.174263,189.347168 62.519222,189.152679 
	C63.386005,188.978470 63.880638,188.998749 64.898392,189.422211 
	C67.581505,189.901733 69.742813,189.951950 71.901184,190.060608 
	C75.065323,190.219894 79.087700,189.261627 81.215157,190.840332 
	C85.969269,194.368149 91.186028,198.077454 92.137299,204.846176 
	C92.709045,208.914337 93.474335,212.955307 93.912102,217.407211 
	C93.181381,227.202255 93.510262,236.972519 82.085236,241.520035 
	C88.802048,243.916855 92.178886,248.483032 93.182724,254.583420 
	C94.146248,260.438782 95.381615,266.480957 94.855049,272.292206 
	C94.176384,279.782013 92.588715,287.383179 90.058235,294.459198 
	C87.303810,302.161438 80.580956,305.462067 72.486671,305.920471 
	C68.019653,306.173401 63.563435,306.616882 59.102352,306.974487 
	C58.611397,306.984497 58.120445,306.994537 57.261681,307.023682 
	C52.545773,306.697052 48.200310,306.311310 43.848309,306.024872 
	C42.068329,305.907715 40.274204,306.005493 38.287067,306.005493 
	C37.947784,299.804810 37.621403,293.839813 37.124256,287.494263 
M60.621403,253.651245 
	C60.621403,264.214569 60.621403,274.777893 60.621403,285.289246 
	C68.139732,285.660736 71.455841,283.730255 71.768433,278.396881 
	C72.136948,272.109406 72.180099,265.753967 71.699791,259.478882 
	C71.176361,252.640488 67.729393,250.765564 60.621403,253.651245 
M69.229324,231.382446 
	C69.607506,226.447662 70.219582,221.517242 70.311852,216.577118 
	C70.470703,208.073380 69.577507,207.387482 61.201744,208.212616 
	C61.201744,216.616348 61.201744,225.012955 61.201744,234.277847 
	C63.933441,233.498810 66.363358,232.805832 69.229324,231.382446 
z"/>
<path fill="#020202" opacity="1.000000" stroke="none" 
	d="
M466.895203,282.953217 
	C467.191833,283.174500 467.488464,283.395752 467.919006,283.863525 
	C467.666107,288.323151 467.185791,292.530457 466.925415,296.751312 
	C466.752075,299.561615 466.892517,302.391266 466.892517,305.605164 
	C459.837402,305.958496 452.849976,306.308411 445.491089,306.852600 
	C444.628387,307.025269 444.137207,307.003632 443.117767,306.574829 
	C434.756683,306.100433 426.923859,306.033264 419.020355,305.504578 
	C418.881958,298.694427 418.814178,292.345856 418.828735,285.535309 
	C418.911041,253.135620 418.911041,221.197906 418.911041,190.288559 
	C425.525238,189.823959 431.212616,189.424484 436.899963,189.024994 
	C437.393646,189.013824 437.887329,189.002655 438.750854,188.970963 
	C442.325226,189.299484 445.523499,189.852600 448.735779,189.951859 
	C454.139618,190.118881 459.552368,189.997574 465.251129,189.997574 
	C465.251129,197.060059 465.294861,203.640411 465.194550,210.218536 
	C465.182312,211.021561 464.396759,211.812805 463.847717,212.899017 
	C463.514954,213.447128 463.304108,213.705688 462.492859,214.117981 
	C455.686157,213.364883 449.479858,212.458038 442.826599,211.485886 
	C442.826599,220.064957 442.826599,227.306137 442.826599,234.983109 
	C449.883057,234.983109 456.955017,234.983109 463.991852,234.983109 
	C463.991852,242.476974 463.991852,249.533798 463.991852,256.966736 
	C456.764709,256.966736 449.834412,256.966736 442.824524,256.966736 
	C442.824524,265.899048 442.824524,274.445312 442.824524,282.953217 
	C451.044739,282.953217 458.969971,282.953217 466.895203,282.953217 
z"/>
<path fill="#FEFEFE" opacity="1.000000" stroke="none" 
	d="
M399.145996,349.049103 
	C386.926239,361.693939 374.862701,374.494324 362.457153,386.954163 
	C326.613281,422.954803 290.625061,458.811676 254.734512,494.765930 
	C253.586960,495.915558 252.886978,497.511932 251.739105,499.265472 
	C209.603546,457.102478 168.537399,416.009583 127.794937,374.532959 
	C133.053345,374.274567 138.013412,374.773712 142.917068,374.441193 
	C151.052353,373.889587 157.513687,369.282257 163.861404,364.688995 
	C170.004791,360.243591 177.013779,358.128204 184.389267,358.082642 
	C215.800583,357.888580 247.214462,358.128510 278.626068,357.960144 
	C304.916107,357.819183 331.209503,357.538116 357.490295,356.877075 
	C365.877869,356.666107 374.295258,355.407013 382.575409,353.933136 
	C388.210175,352.930145 393.630035,350.719635 399.145996,349.049103 
z"/>
<path fill="#FBFBFB" opacity="1.000000" stroke="none" 
	d="
M399.456512,348.931976 
	C393.630035,350.719635 388.210175,352.930145 382.575409,353.933136 
	C374.295258,355.407013 365.877869,356.666107 357.490295,356.877075 
	C331.209503,357.538116 304.916107,357.819183 278.626068,357.960144 
	C247.214462,358.128510 215.800583,357.888580 184.389267,358.082642 
	C177.013779,358.128204 170.004791,360.243591 163.861404,364.688995 
	C157.513687,369.282257 151.052353,373.889587 142.917068,374.441193 
	C138.013412,374.773712 133.053345,374.274567 127.626534,374.217255 
	C117.582062,364.836792 108.029694,355.388275 98.717773,345.418091 
	C99.301712,343.837646 99.919571,342.784607 99.942024,341.719086 
	C100.049667,336.611847 99.467651,331.431732 100.127678,326.408539 
	C101.046692,319.414185 102.745125,312.510712 104.387100,305.634521 
	C104.653687,304.518097 106.352249,303.743652 107.731300,302.885071 
	C112.381622,304.356384 116.689568,305.753754 120.990646,307.527740 
	C116.875786,318.832733 114.085419,329.985718 117.081551,341.653168 
	C118.639801,347.721252 120.360046,353.924255 125.974922,358.241943 
	C126.420570,358.707214 126.701447,358.948212 127.055832,359.522949 
	C133.792236,366.887878 145.438354,365.848663 151.644135,360.763489 
	C161.714447,352.511597 173.074951,348.546570 186.121399,348.945343 
	C195.353851,349.227570 204.607391,349.204987 213.841858,348.957672 
	C233.579453,348.429230 253.307526,347.521973 273.046448,347.078125 
	C279.987732,346.922028 286.951874,347.990356 293.901062,347.934845 
	C310.015350,347.806274 326.139801,347.622314 342.235107,346.901855 
	C353.617523,346.392426 365.046539,345.530060 376.292175,343.780548 
	C386.000580,342.270233 395.458588,339.125610 400.716705,329.614319 
	C401.750824,327.743744 401.605194,325.220947 402.002991,322.666138 
	C402.002747,321.889648 402.003204,321.445892 402.360596,320.935608 
	C405.217957,317.812012 403.644623,315.771851 400.868835,313.692535 
	C399.157227,311.923981 397.579224,310.461395 396.001160,308.644958 
	C396.001678,307.583527 396.002228,306.875854 396.465698,306.092041 
	C403.921234,305.998749 410.913910,305.981628 418.202698,305.969482 
	C418.696198,305.971649 418.893585,305.968903 419.091003,305.966125 
	C426.923859,306.033264 434.756683,306.100433 442.748993,306.571930 
	C435.808228,313.946869 428.741302,320.951813 421.598480,327.878510 
	C414.360413,334.897583 407.047302,341.839264 399.456512,348.931976 
M414.321075,317.182098 
	C415.111908,317.154724 415.902740,317.127380 416.693573,317.099976 
	C416.543854,316.526703 416.394135,315.953400 416.244446,315.380157 
	C415.549164,315.752960 414.853851,316.125732 414.321075,317.182098 
z"/>
<path fill="#F8F8F8" opacity="1.000000" stroke="none" 
	d="
M107.388924,302.811127 
	C106.352249,303.743652 104.653687,304.518097 104.387100,305.634521 
	C102.745125,312.510712 101.046692,319.414185 100.127678,326.408539 
	C99.467651,331.431732 100.049667,336.611847 99.942024,341.719086 
	C99.919571,342.784607 99.301712,343.837646 98.543808,345.108154 
	C85.328636,332.613129 72.527893,319.906342 59.414749,307.087036 
	C63.563435,306.616882 68.019653,306.173401 72.486671,305.920471 
	C80.580956,305.462067 87.303810,302.161438 90.058235,294.459198 
	C92.588715,287.383179 94.176384,279.782013 94.855049,272.292206 
	C95.381615,266.480957 94.146248,260.438782 93.182724,254.583420 
	C92.178886,248.483032 88.802048,243.916855 82.085236,241.520035 
	C93.510262,236.972519 93.181381,227.202255 94.095108,217.383453 
	C94.887329,216.971878 95.256020,216.982773 95.711334,217.455429 
	C95.816360,237.567307 95.789703,257.217590 95.871582,276.867432 
	C95.914482,287.160034 99.206085,296.091949 107.388924,302.811127 
z"/>
<path fill="#FEFEFE" opacity="1.000000" stroke="none" 
	d="
M95.624702,216.993652 
	C95.256020,216.982773 94.887329,216.971878 94.335648,216.984741 
	C93.474335,212.955307 92.709045,208.914337 92.137299,204.846176 
	C91.186028,198.077454 85.969269,194.368149 81.215157,190.840332 
	C79.087700,189.261627 75.065323,190.219894 71.901184,190.060608 
	C69.742813,189.951950 67.581505,189.901733 65.269638,189.428467 
	C74.349907,179.928101 83.633217,170.875824 92.805695,161.712631 
	C144.295792,110.274582 195.762939,58.813538 247.207672,7.330124 
	C248.364410,6.172524 249.163223,4.657276 250.445877,2.866433 
	C312.963135,65.421005 374.618073,127.112740 436.586487,188.914734 
	C431.212616,189.424484 425.525238,189.823959 418.911041,190.288559 
	C418.911041,221.197906 418.911041,253.135620 418.586548,285.547913 
	C418.262024,286.022461 417.782379,286.094788 417.329590,286.140076 
	C409.425690,286.185364 401.974609,286.185364 394.023926,286.185364 
	C394.023926,253.964508 394.023926,222.118134 394.023926,190.225708 
	C386.106506,190.225708 378.694824,190.225708 370.797943,190.225708 
	C370.797943,222.301025 370.797943,254.157379 370.797943,285.843994 
	C362.402802,285.843994 354.500122,285.843994 346.221558,285.843994 
	C346.221558,253.792618 346.221558,222.083786 346.221558,190.214050 
	C338.552429,190.214050 331.269623,190.214050 323.737274,190.170181 
	C323.412537,190.409363 323.337311,190.692398 323.174591,191.438354 
	C323.081604,196.052704 323.078217,200.204163 323.070190,204.355621 
	C323.007233,236.899170 322.943390,269.442719 322.645996,301.970642 
	C322.101685,301.883240 321.790955,301.882111 321.384979,301.495972 
	C321.289978,295.264893 321.289978,289.489532 321.289978,283.370514 
	C312.927429,283.370514 305.169922,283.370514 297.232758,283.370514 
	C297.232758,274.436676 297.232758,265.858856 297.232758,256.808289 
	C304.511078,256.808289 311.573822,256.808289 318.607330,256.808289 
	C318.607330,249.273209 318.607330,242.216339 318.607330,234.721252 
	C311.210907,234.721252 304.136932,234.721252 297.345428,234.721252 
	C297.345428,227.029602 297.345428,219.788757 297.345428,212.238403 
	C304.976868,212.238403 312.274963,212.238403 319.593689,212.238403 
	C319.593689,204.678940 319.593689,197.450623 319.593689,190.320786 
	C304.047913,190.320786 288.815247,190.320786 273.288300,190.320786 
	C273.288300,195.779938 273.301575,200.919983 273.286102,206.059952 
	C273.203979,233.374588 273.114685,260.689240 272.719513,287.968109 
	C271.953796,287.320587 271.496460,286.708862 271.006958,285.622864 
	C271.008636,275.766785 271.042419,266.384949 271.108032,256.701324 
	C270.765778,256.330444 270.391724,256.261322 269.553802,256.114136 
	C262.389465,256.097168 255.688980,256.158295 248.736664,256.168060 
	C248.400284,256.404968 248.315765,256.693207 248.141830,257.443604 
	C247.976883,264.928802 247.901382,271.951843 247.459473,278.994110 
	C244.102753,280.002380 241.112396,280.991425 237.965515,281.596161 
	C237.600006,268.931061 237.326813,256.650909 237.203476,244.369278 
	C237.113342,235.393890 237.092102,226.413498 237.303040,217.441528 
	C237.386932,213.873764 238.129990,210.060516 243.002945,210.328796 
	C247.455627,210.573898 247.940399,214.061874 247.998093,217.573273 
	C248.093597,223.386307 248.146072,229.200073 248.160751,235.282166 
	C248.400116,235.663895 248.695374,235.776962 249.448792,235.998505 
	C256.845367,236.106964 263.783783,236.106964 271.055603,236.106964 
	C271.055603,228.735214 271.173737,221.783875 271.031067,214.837891 
	C270.731262,200.242569 261.781433,190.693497 247.110123,189.124100 
	C230.506760,187.348053 219.725647,194.143982 215.914734,208.748016 
	C215.315475,211.044403 214.557922,213.299469 213.503220,216.804352 
	C212.852234,212.161575 212.581924,208.888123 211.909012,205.699631 
	C210.231155,197.749405 206.106293,191.186691 197.512527,190.720825 
	C183.983414,189.987457 170.385361,190.525894 156.698120,190.525894 
	C156.698120,207.253311 156.733978,223.892227 156.687881,240.530899 
	C156.643188,256.663422 156.514313,272.795715 156.046173,288.935913 
	C154.222809,288.595795 152.775650,288.247894 151.385223,287.468140 
	C151.649811,286.064270 152.030746,285.093933 152.040207,284.119995 
	C152.269547,260.519836 153.219330,236.892059 152.373856,213.328995 
	C151.858383,198.962891 143.893127,191.683868 130.671402,189.353836 
	C112.587547,186.166977 99.242119,194.570862 96.280296,211.055725 
	C95.928963,213.011185 95.836937,215.013214 95.624702,216.993652 
z"/>
<path fill="#FBFBFB" opacity="1.000000" stroke="none" 
	d="
M36.926331,217.476410 
	C37.341900,218.672836 37.884708,220.174744 37.892021,221.679260 
	C37.958237,235.298111 37.944664,248.917435 37.925220,262.536591 
	C37.914783,269.846619 37.847115,277.156616 37.424873,284.651062 
	C25.725166,273.905273 14.405856,262.975006 2.991648,251.953140 
	C14.902247,239.916977 25.853731,228.850037 36.926331,217.476410 
z"/>
<path fill="#FBFBFB" opacity="1.000000" stroke="none" 
	d="
M467.023682,282.641174 
	C458.969971,282.953217 451.044739,282.953217 442.824524,282.953217 
	C442.824524,274.445312 442.824524,265.899048 442.824524,256.966736 
	C449.834412,256.966736 456.764709,256.966736 463.991852,256.966736 
	C463.991852,249.533798 463.991852,242.476974 463.991852,234.983109 
	C456.955017,234.983109 449.883057,234.983109 442.826599,234.983109 
	C442.826599,227.306137 442.826599,220.064957 442.826599,211.485886 
	C449.479858,212.458038 455.686157,213.364883 462.185974,214.513351 
	C474.514313,226.486740 486.549103,238.218491 499.033386,250.388428 
	C487.972443,261.469971 477.562286,271.899536 467.023682,282.641174 
z"/>
<path fill="#FBFBFB" opacity="1.000000" stroke="none" 
	d="
M60.660019,253.175690 
	C67.729393,250.765564 71.176361,252.640488 71.699791,259.478882 
	C72.180099,265.753967 72.136948,272.109406 71.768433,278.396881 
	C71.455841,283.730255 68.139732,285.660736 60.621403,285.289246 
	C60.621403,274.777893 60.621403,264.214569 60.660019,253.175690 
z"/>
<path fill="#FBFBFB" opacity="1.000000" stroke="none" 
	d="
M69.011299,231.747650 
	C66.363358,232.805832 63.933441,233.498810 61.201744,234.277847 
	C61.201744,225.012955 61.201744,216.616348 61.201744,208.212616 
	C69.577507,207.387482 70.470703,208.073380 70.311852,216.577118 
	C70.219582,221.517242 69.607506,226.447662 69.011299,231.747650 
z"/>
<path fill="#F8F8F8" opacity="1.000000" stroke="none" 
	d="
M417.782379,286.094788 
	C417.782379,286.094788 418.262024,286.022461 418.504211,286.009888 
	C418.814178,292.345856 418.881958,298.694427 419.020355,305.504578 
	C418.893585,305.968903 418.696198,305.971649 418.272522,305.507935 
	C417.958344,298.725922 417.870361,292.410370 417.782379,286.094788 
z"/>
<path fill="#010101" opacity="1.000000" stroke="none" 
	d="
M417.329590,286.140076 
	C417.870361,292.410370 417.958344,298.725922 417.976440,305.503021 
	C410.913910,305.981628 403.921234,305.998749 396.007965,306.014160 
	C391.059265,306.063446 387.031158,306.114471 382.540466,306.086792 
	C376.055481,306.060120 370.033081,306.112152 363.547607,306.082642 
	C350.051636,305.930695 337.018738,305.860229 323.903442,305.628967 
	C323.677765,305.265686 323.491760,305.116486 323.181824,304.644653 
	C323.027069,303.507904 322.953430,302.747101 322.879822,301.986267 
	C322.943390,269.442719 323.007233,236.899170 323.070190,204.355621 
	C323.078217,200.204163 323.081604,196.052704 323.331024,191.348953 
	C323.767151,190.641296 323.904419,190.447098 323.986786,190.214050 
	C331.269623,190.214050 338.552429,190.214050 346.221558,190.214050 
	C346.221558,222.083786 346.221558,253.792618 346.221558,285.843994 
	C354.500122,285.843994 362.402802,285.843994 370.797943,285.843994 
	C370.797943,254.157379 370.797943,222.301025 370.797943,190.225708 
	C378.694824,190.225708 386.106506,190.225708 394.023926,190.225708 
	C394.023926,222.118134 394.023926,253.964508 394.023926,286.185364 
	C401.974609,286.185364 409.425690,286.185364 417.329590,286.140076 
z"/>
<path fill="#020202" opacity="1.000000" stroke="none" 
	d="
M95.711334,217.455444 
	C95.836937,215.013214 95.928963,213.011185 96.280296,211.055725 
	C99.242119,194.570862 112.587547,186.166977 130.671402,189.353836 
	C143.893127,191.683868 151.858383,198.962891 152.373856,213.328995 
	C153.219330,236.892059 152.269547,260.519836 152.040207,284.119995 
	C152.030746,285.093933 151.649811,286.064270 151.225250,287.751526 
	C149.956604,290.969757 148.904648,293.472748 147.575043,296.095825 
	C146.795944,297.078796 146.294495,297.941620 145.500153,298.934692 
	C143.809204,300.351593 142.411179,301.638275 140.716064,302.982056 
	C139.112427,303.745697 137.805878,304.452301 136.050507,305.214813 
	C134.190689,305.745758 132.779694,306.220856 131.259293,306.681427 
	C131.149887,306.666901 131.011246,306.838654 130.592316,306.796478 
	C128.779739,306.896606 127.386086,307.038940 125.579826,307.113281 
	C123.777321,307.080627 122.387413,307.115875 120.997513,307.151154 
	C116.689568,305.753754 112.381622,304.356384 107.731300,302.885071 
	C99.206085,296.091949 95.914482,287.160034 95.871582,276.867432 
	C95.789703,257.217590 95.816360,237.567307 95.711334,217.455444 
M118.694870,222.783783 
	C118.694885,239.741684 118.677681,256.699615 118.713852,273.657471 
	C118.719154,276.144745 118.372765,278.892883 119.299957,281.040771 
	C120.130676,282.965149 122.462708,285.395050 124.188507,285.439850 
	C125.767059,285.480835 128.051514,282.897614 128.874207,280.977722 
	C129.804306,278.807159 129.621765,276.087372 129.629166,273.605499 
	C129.681793,255.982742 129.675552,238.359711 129.637619,220.736862 
	C129.633347,218.753876 129.817276,216.527603 129.005524,214.855011 
	C128.128464,213.047775 126.066612,210.436569 124.734322,210.555679 
	C122.784897,210.729980 120.291367,212.661896 119.379890,214.510468 
	C118.363396,216.572037 118.858139,219.378738 118.694870,222.783783 
z"/>
<path fill="#F8F8F8" opacity="1.000000" stroke="none" 
	d="
M402.003662,322.998932 
	C401.605194,325.220947 401.750824,327.743744 400.716705,329.614319 
	C395.458588,339.125610 386.000580,342.270233 376.292175,343.780548 
	C365.046539,345.530060 353.617523,346.392426 342.235107,346.901855 
	C326.139801,347.622314 310.015350,347.806274 293.901062,347.934845 
	C286.951874,347.990356 279.987732,346.922028 273.046448,347.078125 
	C253.307526,347.521973 233.579453,348.429230 213.841858,348.957672 
	C204.607391,349.204987 195.353851,349.227570 186.121399,348.945343 
	C173.074951,348.546570 161.714447,352.511597 151.644135,360.763489 
	C145.438354,365.848663 133.792236,366.887878 127.455475,359.471405 
	C128.853836,359.058258 129.926056,359.030365 131.063965,359.372375 
	C134.037338,363.152771 137.468872,362.464386 141.377304,360.997345 
	C144.503662,359.660675 147.251831,358.330353 150.347122,356.965759 
	C153.353561,355.003876 155.898682,352.889252 158.693085,351.182800 
	C167.934738,345.539246 178.394821,344.418304 188.822037,344.127930 
	C198.414215,343.860840 208.044632,345.090302 217.643265,344.901642 
	C232.375229,344.612000 247.089096,343.363037 261.820740,343.110046 
	C272.752045,342.922302 283.706604,344.094757 294.638031,343.909302 
	C315.857971,343.549225 337.070007,342.692108 358.282715,341.964447 
	C362.738983,341.811615 367.198120,341.447937 371.624603,340.919037 
	C372.809723,340.777435 373.879181,339.667725 375.401520,339.002075 
	C376.867554,339.001465 377.933777,339.001190 379.171234,339.229584 
	C379.895844,338.973389 380.449219,338.488525 381.406921,338.002869 
	C385.207123,336.667664 388.602966,335.333221 392.344208,333.965302 
	C395.794312,330.287506 398.898987,326.643219 402.003662,322.998932 
z"/>
<path fill="#F8F8F8" opacity="1.000000" stroke="none" 
	d="
M120.990639,307.527740 
	C122.387413,307.115875 123.777321,307.080627 125.580315,307.501526 
	C125.557785,309.529022 125.178284,311.118408 124.677513,312.668671 
	C121.175468,323.510040 119.312180,334.384705 122.971329,345.645844 
	C124.273743,349.654083 124.883965,353.887207 125.810158,358.017670 
	C120.360046,353.924255 118.639801,347.721252 117.081551,341.653168 
	C114.085419,329.985718 116.875786,318.832733 120.990639,307.527740 
z"/>
<path fill="#F0F0F0" opacity="1.000000" stroke="none" 
	d="
M125.974922,358.241943 
	C124.883965,353.887207 124.273743,349.654083 122.971329,345.645844 
	C119.312180,334.384705 121.175468,323.510040 124.677513,312.668671 
	C125.178284,311.118408 125.557785,309.529022 125.992920,307.569489 
	C127.386086,307.038940 128.779739,306.896606 130.584747,307.196228 
	C129.134155,316.157837 127.187508,324.660919 125.513039,333.217285 
	C125.293579,334.338715 126.469276,335.733215 126.998749,337.461731 
	C127.669167,342.945404 128.339615,347.968597 129.039093,353.333466 
	C130.048203,355.446838 131.028305,357.218536 131.755875,358.993378 
	C131.334991,358.998505 131.166626,359.000458 130.998276,359.002441 
	C129.926056,359.030365 128.853836,359.058258 127.381966,359.137695 
	C126.701447,358.948212 126.420570,358.707214 125.974922,358.241943 
z"/>
<path fill="#F4F4F4" opacity="1.000000" stroke="none" 
	d="
M402.002991,322.666138 
	C398.898987,326.643219 395.794312,330.287506 392.344421,333.590637 
	C391.999878,332.500031 392.000549,331.750641 392.150970,330.694885 
	C393.633087,329.200073 394.950653,327.994415 396.300842,326.826477 
	C399.539185,324.025238 399.896576,318.713867 396.966248,315.613281 
	C394.408752,310.028076 389.877075,311.733459 386.116669,312.570251 
	C377.437561,314.501587 370.779999,310.337769 364.010712,306.164185 
	C370.033081,306.112152 376.055481,306.060120 382.636780,306.457520 
	C387.464233,307.604248 391.732727,308.301514 396.001221,308.998779 
	C397.579224,310.461395 399.157227,311.923981 400.913574,314.081787 
	C401.395813,316.852051 401.699738,318.927094 402.003662,321.002167 
	C402.003204,321.445892 402.002747,321.889648 402.002991,322.666138 
z"/>
<path fill="#F8F8F8" opacity="1.000000" stroke="none" 
	d="
M396.001160,308.644958 
	C391.732727,308.301514 387.464233,307.604248 383.099396,306.536255 
	C387.031158,306.114471 391.059265,306.063446 395.545105,306.090332 
	C396.002228,306.875854 396.001678,307.583527 396.001160,308.644958 
z"/>
<path fill="#F8F8F8" opacity="1.000000" stroke="none" 
	d="
M402.360596,320.935608 
	C401.699738,318.927094 401.395813,316.852051 401.047180,314.387756 
	C403.644623,315.771851 405.217957,317.812012 402.360596,320.935608 
z"/>
<path fill="#F8F8F8" opacity="1.000000" stroke="none" 
	d="
M414.239807,316.840332 
	C414.853851,316.125732 415.549164,315.752960 416.244446,315.380127 
	C416.394135,315.953400 416.543854,316.526703 416.693573,317.099976 
	C415.902740,317.127380 415.111908,317.154724 414.239807,316.840332 
z"/>
<path fill="#010101" opacity="1.000000" stroke="none" 
	d="
M156.422394,288.928101 
	C156.514313,272.795715 156.643188,256.663422 156.687881,240.530899 
	C156.733978,223.892227 156.698120,207.253311 156.698120,190.525894 
	C170.385361,190.525894 183.983414,189.987457 197.512527,190.720825 
	C206.106293,191.186691 210.231155,197.749405 211.909012,205.699631 
	C212.581924,208.888123 212.852234,212.161575 213.503220,216.804352 
	C214.557922,213.299469 215.315475,211.044403 215.914734,208.748016 
	C219.725647,194.143982 230.506760,187.348053 247.110123,189.124100 
	C261.781433,190.693497 270.731262,200.242569 271.031067,214.837891 
	C271.173737,221.783875 271.055603,228.735214 271.055603,236.106964 
	C263.783783,236.106964 256.845367,236.106964 249.366089,235.815399 
	C248.674118,235.292023 248.471268,235.121918 248.216660,235.013519 
	C248.146072,229.200073 248.093597,223.386307 247.998093,217.573273 
	C247.940399,214.061874 247.455627,210.573898 243.002945,210.328796 
	C238.129990,210.060516 237.386932,213.873764 237.303040,217.441528 
	C237.092102,226.413498 237.113342,235.393890 237.203476,244.369278 
	C237.326813,256.650909 237.600006,268.931061 237.958771,281.973389 
	C239.535568,286.677032 242.451538,286.712036 245.258942,284.834808 
	C246.666611,283.893555 247.205261,281.652649 248.517334,279.946472 
	C256.277954,276.994049 262.823456,277.135132 267.559692,284.714081 
	C268.066071,285.524384 269.522705,285.740875 270.534027,286.626923 
	C269.045074,290.359344 267.560577,293.697693 265.784119,296.785980 
	C264.207611,293.558380 266.147308,288.785736 260.539215,287.877350 
	C258.516174,287.112335 256.737732,286.549194 254.570175,285.987732 
	C251.913727,287.333984 248.782822,288.140961 247.546188,290.127289 
	C244.259842,295.405975 241.790527,301.193359 238.610046,306.819763 
	C234.069992,305.511108 229.916153,304.161163 225.579681,302.510681 
	C223.972214,301.057648 222.547394,299.905151 221.152222,298.410645 
	C220.449295,297.381073 219.716736,296.693481 218.915955,295.653168 
	C217.273621,288.948822 214.598343,282.641388 214.341415,276.236908 
	C213.690659,260.015411 214.125427,243.750320 214.125427,227.502701 
	C212.485306,234.975449 210.531189,242.052795 202.210876,245.457092 
	C210.462677,248.233749 211.721359,254.739746 211.834503,261.622284 
	C212.039230,274.076965 211.946503,286.536560 211.851044,299.287903 
	C211.800644,301.060822 211.877167,302.539978 211.823303,304.317017 
	C211.624588,305.041779 211.556229,305.468658 211.336761,305.847168 
	C211.185638,305.798828 210.991699,306.049988 210.523987,306.030212 
	C203.050598,306.010468 196.044907,306.010468 189.113113,306.010468 
	C188.973206,303.576019 188.869705,301.775330 188.839844,299.512787 
	C188.924179,286.442383 188.983078,273.833588 188.925674,261.225342 
	C188.896133,254.734985 187.682846,253.602524 180.761169,253.153625 
	C180.398880,253.401123 180.310013,253.715988 180.152771,254.493057 
	C180.145828,269.960907 180.207275,284.966522 180.171890,300.391785 
	C180.016266,302.528992 179.957474,304.246552 179.436401,305.964081 
	C171.605911,305.964020 164.237701,305.964020 156.919479,305.964020 
	C156.746521,302.534851 156.605667,299.742126 156.572693,296.514954 
	C156.594513,293.696381 156.508453,291.312225 156.422394,288.928101 
M190.047913,214.724625 
	C187.909760,209.853989 183.995407,211.623840 180.434998,211.792053 
	C180.434998,219.031998 180.434998,225.912094 180.434998,232.764420 
	C188.702194,233.338928 190.094131,232.275360 190.621445,224.436493 
	C190.819351,221.494476 190.351624,218.507675 190.047913,214.724625 
M214.549973,218.990875 
	C214.365494,220.911392 214.181000,222.831909 213.996521,224.752426 
	C214.309677,224.751526 214.622833,224.750610 214.935989,224.749710 
	C214.935989,223.013336 214.935989,221.276947 214.549973,218.990875 
z"/>
<path fill="#040404" opacity="1.000000" stroke="none" 
	d="
M273.027863,288.003876 
	C273.114685,260.689240 273.203979,233.374588 273.286102,206.059952 
	C273.301575,200.919983 273.288300,195.779938 273.288300,190.320786 
	C288.815247,190.320786 304.047913,190.320786 319.593689,190.320786 
	C319.593689,197.450623 319.593689,204.678940 319.593689,212.238403 
	C312.274963,212.238403 304.976868,212.238403 297.345428,212.238403 
	C297.345428,219.788757 297.345428,227.029602 297.345428,234.721252 
	C304.136932,234.721252 311.210907,234.721252 318.607330,234.721252 
	C318.607330,242.216339 318.607330,249.273209 318.607330,256.808289 
	C311.573822,256.808289 304.511078,256.808289 297.232758,256.808289 
	C297.232758,265.858856 297.232758,274.436676 297.232758,283.370514 
	C305.169922,283.370514 312.927429,283.370514 321.289978,283.370514 
	C321.289978,289.489532 321.289978,295.264893 321.265839,301.939514 
	C321.678680,305.537689 320.378021,306.085205 317.890961,306.063354 
	C308.599915,305.981628 299.306915,306.122223 289.683289,306.103943 
	C288.905640,306.084076 288.459381,306.139679 287.687622,306.129395 
	C286.110168,306.100342 284.858154,306.137207 283.569550,306.165924 
	C283.532959,306.157776 283.464783,306.188995 283.050110,306.118286 
	C279.583893,306.047607 276.532318,306.047607 273.027863,306.047607 
	C273.027863,299.502106 273.027863,293.752991 273.027863,288.003876 
z"/>
<path fill="#E8E8E8" opacity="1.000000" stroke="none" 
	d="
M290.014648,306.179413 
	C299.306915,306.122223 308.599915,305.981628 317.890961,306.063354 
	C320.378021,306.085205 321.678680,305.537689 321.360840,302.395203 
	C321.790955,301.882111 322.101685,301.883240 322.645996,301.970642 
	C322.953430,302.747101 323.027069,303.507904 323.117493,304.888733 
	C323.418121,305.602417 323.701996,305.696075 323.985840,305.789764 
	C337.018738,305.860229 350.051636,305.930695 363.547607,306.082642 
	C370.779999,310.337769 377.437561,314.501587 386.116669,312.570251 
	C389.877075,311.733459 394.408752,310.028076 396.958191,315.620880 
	C396.997345,316.002655 396.983429,316.016144 396.613159,316.011810 
	C395.501892,316.005798 394.760864,316.004120 393.701233,316.004883 
	C392.957764,316.016815 392.532959,316.026306 391.953979,315.869629 
	C391.518799,316.095825 391.237793,316.488190 390.631012,316.908020 
	C389.869843,316.956299 389.434418,316.977142 388.747833,316.715546 
	C387.201019,316.376862 385.622253,315.811127 384.656250,316.347992 
	C378.908966,319.542053 373.931427,317.497589 368.618896,314.963318 
	C364.678558,313.083679 360.221802,312.286560 355.662628,311.004517 
	C354.886780,311.001648 354.443390,311.001434 353.771301,310.730347 
	C352.028412,310.640869 350.514221,310.822266 348.668030,311.002747 
	C347.893555,311.004883 347.451050,311.007935 346.625427,311.047729 
	C341.561615,312.218750 337.023529,315.381714 332.013641,312.478638 
	C322.601959,307.024872 313.823822,308.127594 305.066956,314.237152 
	C298.227356,319.009033 294.505341,317.679901 291.159119,309.978241 
	C290.635712,308.773621 290.389191,307.448700 290.014648,306.179413 
z"/>
<path fill="#010101" opacity="1.000000" stroke="none" 
	d="
M270.538513,286.232849 
	C269.522705,285.740875 268.066071,285.524384 267.559692,284.714081 
	C262.823456,277.135132 256.277954,276.994049 248.448166,279.687714 
	C247.941025,279.312958 247.883438,279.143951 247.825867,278.974915 
	C247.901382,271.951843 247.976883,264.928802 248.305237,257.357605 
	C248.760223,256.655579 248.903687,256.458893 248.988510,256.219421 
	C255.688980,256.158295 262.389465,256.097168 269.682312,256.305115 
	C270.495850,256.803131 270.763031,256.946075 271.076202,257.003082 
	C271.042419,266.384949 271.008636,275.766785 270.878510,285.644531 
	C270.782166,286.140442 270.538513,286.232819 270.538513,286.232849 
z"/>
<path fill="#E8E8E8" opacity="1.000000" stroke="none" 
	d="
M270.534027,286.626892 
	C270.538513,286.232819 270.782166,286.140442 270.910645,286.118774 
	C271.496460,286.708862 271.953796,287.320587 272.719513,287.968109 
	C273.027863,293.752991 273.027863,299.502106 273.027863,306.047607 
	C276.532318,306.047607 279.583893,306.047607 282.648651,306.597137 
	C282.098053,307.755219 281.534271,308.363800 280.605835,308.982483 
	C278.275116,310.359924 276.479950,312.256256 274.299713,312.960449 
	C271.579987,313.838898 268.120819,314.761414 265.753052,313.787537 
	C262.984833,312.649017 262.501282,309.316254 263.756775,306.023865 
	C264.437744,304.238129 264.080322,302.056427 264.296997,299.769287 
	C264.960510,298.668823 265.518280,297.852448 266.076080,297.036041 
	C267.560577,293.697693 269.045074,290.359344 270.534027,286.626892 
z"/>
<path fill="#E0E0E0" opacity="1.000000" stroke="none" 
	d="
M156.046173,288.935913 
	C156.508453,291.312225 156.594513,293.696381 156.304077,296.556366 
	C155.281219,297.357758 154.634857,297.683289 153.618408,297.993225 
	C153.001358,297.984009 152.754410,297.990417 152.490234,298.005554 
	C152.473007,298.014313 152.443542,298.032654 152.280502,297.676147 
	C150.695862,296.871674 149.274277,296.423706 147.852692,295.975708 
	C148.904648,293.472748 149.956604,290.969757 151.168533,288.183411 
	C152.775650,288.247894 154.222809,288.595795 156.046173,288.935913 
z"/>
<path fill="#E0E0E0" opacity="1.000000" stroke="none" 
	d="
M247.459473,278.994110 
	C247.883438,279.143951 247.941025,279.312958 248.067780,279.740753 
	C247.205261,281.652649 246.666611,283.893555 245.258942,284.834808 
	C242.451538,286.712036 239.535568,286.677032 238.115311,282.357727 
	C241.112396,280.991425 244.102753,280.002380 247.459473,278.994110 
z"/>
<path fill="#010101" opacity="1.000000" stroke="none" 
	d="
M323.737274,190.170181 
	C323.904419,190.447098 323.767151,190.641296 323.418488,190.886047 
	C323.337311,190.692398 323.412537,190.409363 323.737274,190.170181 
z"/>
<path fill="#020202" opacity="1.000000" stroke="none" 
	d="
M248.160751,235.282166 
	C248.471268,235.121918 248.674118,235.292023 248.907928,235.706940 
	C248.695374,235.776962 248.400116,235.663895 248.160751,235.282166 
z"/>
<path fill="#040404" opacity="1.000000" stroke="none" 
	d="
M248.736664,256.168060 
	C248.903687,256.458893 248.760223,256.655579 248.394684,256.895477 
	C248.315765,256.693207 248.400284,256.404968 248.736664,256.168060 
z"/>
<path fill="#040404" opacity="1.000000" stroke="none" 
	d="
M271.108032,256.701324 
	C270.763031,256.946075 270.495850,256.803131 270.146179,256.383209 
	C270.391724,256.261322 270.765778,256.330444 271.108032,256.701324 
z"/>
<path fill="#010101" opacity="1.000000" stroke="none" 
	d="
M323.903442,305.628967 
	C323.701996,305.696075 323.418121,305.602417 323.198639,305.264648 
	C323.491760,305.116486 323.677765,305.265686 323.903442,305.628967 
z"/>
<path fill="#E0E0E0" opacity="1.000000" stroke="none" 
	d="
M129.010071,352.991791 
	C128.339615,347.968597 127.669167,342.945404 127.009842,337.046753 
	C128.911545,327.269897 130.849060,318.377716 132.612869,309.451233 
	C132.771942,308.646210 131.810028,307.619629 131.368698,306.695953 
	C132.779694,306.220856 134.190689,305.745758 135.911072,305.652649 
	C135.790436,307.624512 135.489258,309.263123 134.909698,310.796539 
	C130.827103,321.598511 129.105270,332.786133 130.159088,344.246979 
	C130.406342,346.936005 132.631393,349.443115 133.992889,352.122742 
	C134.039230,352.211517 134.119278,352.395142 134.216278,352.493530 
	C134.451645,352.730652 134.600510,352.857056 134.907471,353.341431 
	C138.014526,355.989136 140.698639,355.470306 143.409180,353.124725 
	C148.717545,348.531036 148.318253,341.782623 149.836319,335.851349 
	C150.898178,331.702484 152.887390,329.637970 157.000671,330.053192 
	C159.901642,330.346008 162.720428,331.403839 165.620117,331.770203 
	C170.102753,332.336609 174.632797,333.012756 179.125443,332.907074 
	C186.814148,332.726135 194.499527,334.351196 202.243027,332.149628 
	C205.853470,331.123138 210.292938,331.041809 213.847580,332.156036 
	C224.910873,335.623901 235.986008,332.934814 246.915176,332.448456 
	C253.124237,332.172180 259.230591,330.784973 265.480774,332.255005 
	C266.536591,332.503326 267.715454,332.258820 268.835236,332.199829 
	C275.206329,331.864166 281.600250,329.853912 287.924774,332.742188 
	C289.047272,333.254822 290.554291,333.046356 291.874878,332.983765 
	C298.093079,332.688873 304.305756,332.144043 310.525360,332.060883 
	C314.304840,332.010345 318.127106,333.120819 321.870911,332.859955 
	C330.019135,332.292114 337.921936,328.744812 346.323059,330.891052 
	C346.780151,331.007874 347.438080,330.338531 348.402588,330.033142 
	C349.869873,330.028748 350.937103,330.026306 352.236694,330.291443 
	C354.637939,330.363708 356.806793,330.168396 359.382385,329.982056 
	C361.526093,330.327759 363.263031,330.664490 364.717865,331.292786 
	C355.571289,332.056061 346.706635,332.523529 337.842621,333.002960 
	C336.023407,333.101349 334.208374,333.288055 332.388458,333.359131 
	C326.009766,333.608307 319.614624,333.630981 313.256073,334.127930 
	C309.571930,334.415833 305.945068,335.442902 302.293976,336.145294 
	C300.858551,336.421448 299.427338,336.719330 297.540466,337.007019 
	C294.057800,337.001984 291.028900,336.997223 287.821533,336.663818 
	C284.514313,335.557434 281.364075,334.044098 278.260651,334.134705 
	C267.302246,334.454590 256.360596,335.336517 245.410599,335.971130 
	C243.755707,336.067017 242.090195,335.972839 240.429672,335.980652 
	C236.530106,335.998993 232.629181,336.100952 228.731430,336.028137 
	C224.854889,335.955750 220.830780,336.323547 217.138214,335.414490 
	C209.481812,333.529633 202.237305,334.505798 194.624969,336.994843 
	C193.499985,336.995209 192.750000,336.994598 191.749908,336.714355 
	C189.420212,335.996429 187.354874,335.275391 185.258499,335.169556 
	C176.935196,334.749359 168.602341,334.348511 160.272614,334.339996 
	C158.106720,334.337769 154.668625,335.206543 154.005066,336.669006 
	C151.797852,341.533691 150.587051,346.850433 148.732483,352.178345 
	C147.313614,353.574799 146.156509,354.786804 144.653564,356.031586 
	C143.201569,357.033966 142.095428,358.003540 140.990677,358.979980 
	C140.992065,358.986816 140.996384,358.991577 140.560364,358.991577 
	C138.089508,358.982483 136.054672,358.973389 134.011292,358.602142 
	C132.338531,356.490601 130.674301,354.741180 129.010071,352.991791 
z"/>
<path fill="#F4F4F4" opacity="1.000000" stroke="none" 
	d="
M118.694977,222.322449 
	C118.858139,219.378738 118.363396,216.572037 119.379890,214.510468 
	C120.291367,212.661896 122.784897,210.729980 124.734322,210.555679 
	C126.066612,210.436569 128.128464,213.047775 129.005524,214.855011 
	C129.817276,216.527603 129.633347,218.753876 129.637619,220.736862 
	C129.675552,238.359711 129.681793,255.982742 129.629166,273.605499 
	C129.621765,276.087372 129.804306,278.807159 128.874207,280.977722 
	C128.051514,282.897614 125.767059,285.480835 124.188507,285.439850 
	C122.462708,285.395050 120.130676,282.965149 119.299957,281.040771 
	C118.372765,278.892883 118.719154,276.144745 118.713852,273.657471 
	C118.677681,256.699615 118.694885,239.741684 118.694977,222.322449 
z"/>
<path fill="#CECECE" opacity="1.000000" stroke="none" 
	d="
M133.946548,352.033936 
	C132.631393,349.443115 130.406342,346.936005 130.159088,344.246979 
	C129.105270,332.786133 130.827103,321.598511 134.909698,310.796539 
	C135.489258,309.263123 135.790436,307.624512 136.359894,305.596741 
	C137.805878,304.452301 139.112427,303.745697 140.708481,303.371582 
	C138.834854,311.123566 135.797638,318.421112 134.740433,325.994995 
	C133.546951,334.544983 134.133896,343.343506 133.946548,352.033936 
z"/>
<path fill="#B1B1B1" opacity="1.000000" stroke="none" 
	d="
M133.992889,352.122742 
	C134.133896,343.343506 133.546951,334.544983 134.740433,325.994995 
	C135.797638,318.421112 138.834854,311.123566 141.005554,303.314514 
	C142.411179,301.638275 143.809204,300.351593 145.683640,299.113037 
	C146.282028,299.280396 146.404007,299.399658 146.345901,299.810669 
	C145.369888,302.267120 144.573959,304.431763 143.543777,306.879578 
	C141.203537,314.759674 138.685638,322.272369 137.110031,329.977753 
	C135.603363,337.345978 135.076691,344.914612 134.119278,352.395142 
	C134.119278,352.395142 134.039230,352.211517 133.992889,352.122742 
z"/>
<path fill="#E8E8E8" opacity="1.000000" stroke="none" 
	d="
M131.259293,306.681427 
	C131.810028,307.619629 132.771942,308.646210 132.612869,309.451233 
	C130.849060,318.377716 128.911545,327.269897 127.009880,336.586273 
	C126.469276,335.733215 125.293579,334.338715 125.513039,333.217285 
	C127.187508,324.660919 129.134155,316.157837 131.003677,307.238403 
	C131.011246,306.838654 131.149887,306.666901 131.259293,306.681427 
z"/>
<path fill="#B1B1B1" opacity="1.000000" stroke="none" 
	d="
M147.575027,296.095825 
	C149.274277,296.423706 150.695862,296.871674 151.866058,297.685974 
	C149.918427,298.541138 148.222198,299.030029 146.525986,299.518890 
	C146.404007,299.399658 146.282028,299.280396 145.976532,298.982819 
	C146.294495,297.941620 146.795944,297.078796 147.575027,296.095825 
z"/>
<path fill="#F0F0F0" opacity="1.000000" stroke="none" 
	d="
M192.000000,336.993958 
	C192.750000,336.994598 193.499985,336.995209 194.899994,337.285645 
	C199.470535,337.383240 203.411179,336.848297 207.306976,337.077057 
	C213.552292,337.443787 219.778763,338.949402 225.993805,338.842865 
	C238.840637,338.622528 251.696732,336.908875 264.505585,337.285675 
	C271.933228,337.504120 279.510376,334.403381 286.854584,337.808105 
	C287.065094,337.905701 287.610657,337.280609 288.000000,336.992462 
	C291.028900,336.997223 294.057800,337.001984 297.616638,337.377625 
	C299.925659,337.932678 301.708130,338.298431 303.483276,338.265961 
	C308.203735,338.179596 312.920532,337.905914 317.639923,337.739136 
	C319.611877,337.669464 321.591858,337.764404 323.559479,337.643463 
	C337.496124,336.786835 351.473969,334.821350 365.350677,335.382965 
	C374.858337,335.767761 383.704987,336.205017 392.001221,331.001221 
	C392.000549,331.750641 391.999878,332.500031 391.998993,333.624115 
	C388.602966,335.333221 385.207123,336.667664 381.108551,338.022095 
	C379.937225,338.361725 379.468597,338.681335 379.000000,339.000916 
	C377.933777,339.001190 376.867554,339.001465 374.957733,339.001038 
	C367.872681,339.000214 361.630615,338.944275 355.389984,339.015472 
	C348.989197,339.088501 342.582092,339.137726 336.191986,339.470367 
	C329.756409,339.805450 323.337708,340.915283 316.912659,340.906830 
	C304.296997,340.890259 291.675934,339.916779 279.068390,340.103577 
	C262.658997,340.346619 246.265442,341.526367 229.855911,341.937408 
	C217.291443,342.252106 204.711258,341.883057 192.140991,342.044830 
	C184.852829,342.138641 177.511353,342.217926 170.300491,343.138733 
	C161.388214,344.276855 153.996429,348.327362 150.000000,357.000000 
	C147.251831,358.330353 144.503662,359.660675 141.377441,360.661987 
	C140.998383,359.885834 140.997375,359.438690 140.996368,358.991577 
	C140.996384,358.991577 140.992065,358.986816 141.338547,358.955994 
	C142.789825,357.949738 143.894608,356.974274 144.999390,355.998779 
	C146.156509,354.786804 147.313614,353.574799 149.081497,352.124146 
	C150.493347,350.517883 151.394714,349.198364 152.077469,347.774078 
	C154.541672,342.633362 158.418610,339.404419 164.215591,339.050049 
	C171.760178,338.588837 179.320297,338.385864 186.867691,337.963654 
	C188.591156,337.867279 190.289886,337.328918 192.000000,336.993958 
z"/>
<path fill="#F4F4F4" opacity="1.000000" stroke="none" 
	d="
M150.347122,356.965759 
	C153.996429,348.327362 161.388214,344.276855 170.300491,343.138733 
	C177.511353,342.217926 184.852829,342.138641 192.140991,342.044830 
	C204.711258,341.883057 217.291443,342.252106 229.855911,341.937408 
	C246.265442,341.526367 262.658997,340.346619 279.068390,340.103577 
	C291.675934,339.916779 304.296997,340.890259 316.912659,340.906830 
	C323.337708,340.915283 329.756409,339.805450 336.191986,339.470367 
	C342.582092,339.137726 348.989197,339.088501 355.389984,339.015472 
	C361.630615,338.944275 367.872681,339.000214 374.557922,339.001404 
	C373.879181,339.667725 372.809723,340.777435 371.624603,340.919037 
	C367.198120,341.447937 362.738983,341.811615 358.282715,341.964447 
	C337.070007,342.692108 315.857971,343.549225 294.638031,343.909302 
	C283.706604,344.094757 272.752045,342.922302 261.820740,343.110046 
	C247.089096,343.363037 232.375229,344.612000 217.643265,344.901642 
	C208.044632,345.090302 198.414215,343.860840 188.822037,344.127930 
	C178.394821,344.418304 167.934738,345.539246 158.693085,351.182800 
	C155.898682,352.889252 153.353561,355.003876 150.347122,356.965759 
z"/>
<path fill="#F4F4F4" opacity="1.000000" stroke="none" 
	d="
M140.560364,358.991577 
	C140.997375,359.438690 140.998383,359.885834 140.999252,360.668304 
	C137.468872,362.464386 134.037338,363.152771 131.063965,359.372375 
	C131.166626,359.000458 131.334991,358.998505 132.090942,358.994202 
	C133.125641,358.982697 133.572723,358.973511 134.019821,358.964294 
	C136.054672,358.973389 138.089508,358.982483 140.560364,358.991577 
z"/>
<path fill="#F4F4F4" opacity="1.000000" stroke="none" 
	d="
M379.171234,339.229584 
	C379.468597,338.681335 379.937225,338.361725 380.704224,338.022888 
	C380.449219,338.488525 379.895844,338.973389 379.171234,339.229584 
z"/>
<path fill="#E8E8E8" opacity="1.000000" stroke="none" 
	d="
M134.011292,358.602142 
	C133.572723,358.973511 133.125641,358.982697 132.343475,358.991089 
	C131.028305,357.218536 130.048203,355.446838 129.039093,353.333466 
	C130.674301,354.741180 132.338531,356.490601 134.011292,358.602142 
z"/>
<path fill="#E8E8E8" opacity="1.000000" stroke="none" 
	d="
M392.150970,330.694885 
	C383.704987,336.205017 374.858337,335.767761 365.350677,335.382965 
	C351.473969,334.821350 337.496124,336.786835 323.559479,337.643463 
	C321.591858,337.764404 319.611877,337.669464 317.639923,337.739136 
	C312.920532,337.905914 308.203735,338.179596 303.483276,338.265961 
	C301.708130,338.298431 299.925659,337.932678 298.070374,337.377930 
	C299.427338,336.719330 300.858551,336.421448 302.293976,336.145294 
	C305.945068,335.442902 309.571930,334.415833 313.256073,334.127930 
	C319.614624,333.630981 326.009766,333.608307 332.388458,333.359131 
	C334.208374,333.288055 336.023407,333.101349 337.842621,333.002960 
	C346.706635,332.523529 355.571289,332.056061 365.053711,331.292267 
	C366.119385,330.993134 366.567108,330.986115 367.008911,330.987854 
	C367.002991,330.996613 367.003662,330.995941 367.005310,331.322388 
	C367.299225,332.314362 367.591522,332.979889 367.883820,333.645447 
	C368.138885,333.550659 368.393951,333.455872 368.649017,333.361084 
	C368.433746,332.575287 368.218475,331.789459 368.402283,331.004578 
	C369.865234,331.021454 370.929108,331.037415 372.077576,331.431641 
	C375.002167,333.496582 377.759033,334.457336 380.325226,330.900513 
	C381.083771,330.866364 381.517090,330.844208 382.147522,331.124146 
	C387.837372,331.368347 393.818909,326.449921 395.133698,320.718262 
	C395.491394,319.618286 395.723938,318.813141 396.210571,317.849335 
	C396.637634,317.132507 396.810547,316.574310 396.983429,316.016144 
	C396.983429,316.016144 396.997345,316.002655 397.005371,315.995056 
	C399.896576,318.713867 399.539185,324.025238 396.300842,326.826477 
	C394.950653,327.994415 393.633087,329.200073 392.150970,330.694885 
z"/>
<path fill="#CECECE" opacity="1.000000" stroke="none" 
	d="
M153.988495,298.008850 
	C154.634857,297.683289 155.281219,297.357758 156.196198,296.990814 
	C156.605667,299.742126 156.746521,302.534851 156.919479,305.964020 
	C164.237701,305.964020 171.605911,305.964020 179.768555,306.101929 
	C183.389725,308.335114 186.126602,310.568573 189.070602,312.483582 
	C191.591461,314.123413 194.758713,317.051666 196.923981,316.515900 
	C202.757492,315.072510 207.976196,311.781769 210.991699,306.049988 
	C210.991699,306.049988 211.185638,305.798828 211.756531,305.868225 
	C216.805710,304.895477 221.284012,303.853333 225.762314,302.811188 
	C229.916153,304.161163 234.069992,305.511108 238.974121,306.914551 
	C240.472076,307.038055 241.219727,307.108063 241.977264,307.555359 
	C241.898438,312.749878 238.944321,316.072144 234.919037,317.144928 
	C232.836884,317.699829 229.618393,315.377136 227.455414,313.668335 
	C226.344406,312.790619 226.524445,310.370819 225.937073,308.713104 
	C225.307541,306.936432 225.354034,303.906464 222.007446,306.020508 
	C222.010757,305.994415 222.049728,306.029724 221.691162,306.041840 
	C216.923691,309.504059 212.464462,312.892151 208.118271,316.419495 
	C202.269424,321.166412 196.627167,326.386749 187.832520,322.917297 
	C187.342606,322.951294 187.149002,322.990784 186.975067,323.013214 
	C186.994720,322.996155 186.969559,323.040710 187.009079,322.656677 
	C185.633133,318.501953 184.217667,314.731323 182.492035,311.002075 
	C181.766022,311.016998 181.350174,310.990479 180.727631,310.693542 
	C179.347809,310.966980 178.174713,311.510834 176.999069,312.026001 
	C176.996521,311.997314 177.052887,312.009094 176.670425,311.972351 
	C175.523239,311.997986 174.758530,312.060333 173.810272,311.849731 
	C169.395432,313.693451 165.164139,315.810150 160.619186,317.930054 
	C159.887299,317.937073 159.469055,317.940857 158.979767,317.609497 
	C155.019150,314.955902 154.117584,310.866333 152.868210,306.659821 
	C152.597214,305.514740 152.282059,304.718933 152.006241,303.746033 
	C152.137039,303.334229 152.290649,303.151855 152.863800,302.908203 
	C153.455536,301.882019 153.689896,300.969574 153.949615,299.716309 
	C153.979462,298.919952 153.983978,298.464386 153.988495,298.008850 
z"/>
<path fill="#FEFEFE" opacity="1.000000" stroke="none" 
	d="
M180.268738,299.972137 
	C180.207275,284.966522 180.145828,269.960907 180.350525,254.432480 
	C180.865234,253.746445 181.004547,253.516876 181.034607,253.220978 
	C187.682846,253.602524 188.896133,254.734985 188.925674,261.225342 
	C188.983078,273.833588 188.924179,286.442383 188.414581,299.512848 
	C185.366714,299.973877 182.817719,299.973022 180.268738,299.972137 
z"/>
<path fill="#F8F8F8" opacity="1.000000" stroke="none" 
	d="
M211.977966,298.994080 
	C211.946503,286.536560 212.039230,274.076965 211.834503,261.622284 
	C211.721359,254.739746 210.462677,248.233749 202.210876,245.457092 
	C210.531189,242.052795 212.485306,234.975449 214.125427,227.502701 
	C214.125427,243.750320 213.690659,260.015411 214.341415,276.236908 
	C214.598343,282.641388 217.273621,288.948822 218.605759,295.804504 
	C216.235184,297.203735 214.106567,298.098907 211.977966,298.994080 
z"/>
<path fill="#E8E8E8" opacity="1.000000" stroke="none" 
	d="
M180.171875,300.391785 
	C182.817719,299.973022 185.366714,299.973877 188.340973,299.974701 
	C188.869705,301.775330 188.973206,303.576019 189.113113,306.010468 
	C196.044907,306.010468 203.050598,306.010468 210.523987,306.030212 
	C207.976196,311.781769 202.757492,315.072510 196.923981,316.515900 
	C194.758713,317.051666 191.591461,314.123413 189.070602,312.483582 
	C186.126602,310.568573 183.389725,308.335114 180.230835,306.101990 
	C179.957474,304.246552 180.016266,302.528992 180.171875,300.391785 
z"/>
<path fill="#F0F0F0" opacity="1.000000" stroke="none" 
	d="
M190.117645,215.132965 
	C190.351624,218.507675 190.819351,221.494476 190.621445,224.436493 
	C190.094131,232.275360 188.702194,233.338928 180.434998,232.764420 
	C180.434998,225.912094 180.434998,219.031998 180.434998,211.792053 
	C183.995407,211.623840 187.909760,209.853989 190.117645,215.132965 
z"/>
<path fill="#D9D9D9" opacity="1.000000" stroke="none" 
	d="
M254.959290,285.986084 
	C256.737732,286.549194 258.516174,287.112335 260.521851,288.291016 
	C260.507538,290.832642 260.473328,292.813995 259.978241,294.672546 
	C259.133179,297.844788 257.998962,300.939972 257.024353,304.045166 
	C257.062469,304.022766 257.044159,303.936279 256.727539,303.825439 
	C256.307983,304.134918 256.205048,304.555267 255.782730,305.056732 
	C255.300095,305.757202 255.136871,306.376556 254.988007,306.999207 
	C255.002380,307.002563 254.992569,306.974792 254.687042,307.082703 
	C253.300018,308.513519 252.218521,309.836487 251.032822,310.963928 
	C250.629059,310.872681 250.329514,310.976959 250.075592,311.068542 
	C250.121231,311.055878 250.179398,311.130646 249.816696,311.048798 
	C248.595215,309.605377 247.736450,308.243835 246.880020,306.489441 
	C249.574677,299.393127 252.266983,292.689606 254.959290,285.986084 
M250.516251,302.745331 
	C250.225235,304.041443 249.934219,305.337555 249.643219,306.633667 
	C250.254196,306.827972 250.865173,307.022278 251.476166,307.216583 
	C253.792923,301.365967 256.109680,295.515320 258.426453,289.664673 
	C257.694855,289.359314 256.963226,289.053955 256.231628,288.748596 
	C254.414139,293.183563 252.596649,297.618500 250.516251,302.745331 
z"/>
<path fill="#040404" opacity="1.000000" stroke="none" 
	d="
M254.570190,285.987701 
	C252.266983,292.689606 249.574677,299.393127 246.877197,306.458008 
	C246.872025,306.819397 246.808929,306.817932 246.406433,306.869751 
	C244.658417,307.007111 243.312912,307.092621 241.967392,307.178101 
	C241.219727,307.108063 240.472076,307.038055 239.360352,306.873230 
	C241.790527,301.193359 244.259842,295.405975 247.546188,290.127289 
	C248.782822,288.140961 251.913727,287.333984 254.570190,285.987701 
z"/>
<path fill="#040404" opacity="1.000000" stroke="none" 
	d="
M256.986237,304.067535 
	C257.998962,300.939972 259.133179,297.844788 259.978241,294.672546 
	C260.473328,292.813995 260.507538,290.832642 260.766418,288.492859 
	C266.147308,288.785736 264.207611,293.558380 265.784119,296.785980 
	C265.518280,297.852448 264.960510,298.668823 264.003265,299.870361 
	C262.703705,301.087646 261.803589,301.919800 260.557312,302.828674 
	C259.136169,303.292816 258.061218,303.680176 256.986237,304.067535 
z"/>
<path fill="#F0F0F0" opacity="1.000000" stroke="none" 
	d="
M211.851044,299.287872 
	C214.106567,298.098907 216.235184,297.203735 218.673981,296.157227 
	C219.716736,296.693481 220.449295,297.381073 220.963501,298.712708 
	C217.814667,300.910828 214.884171,302.464966 211.953674,304.019104 
	C211.877167,302.539978 211.800644,301.060822 211.851044,299.287872 
z"/>
<path fill="#E8E8E8" opacity="1.000000" stroke="none" 
	d="
M211.823303,304.317017 
	C214.884171,302.464966 217.814667,300.910828 220.933868,299.054688 
	C222.547394,299.905151 223.972214,301.057648 225.579681,302.510681 
	C221.284012,303.853333 216.805710,304.895477 211.907654,305.916565 
	C211.556229,305.468658 211.624588,305.041779 211.823303,304.317017 
z"/>
<path fill="#020202" opacity="1.000000" stroke="none" 
	d="
M214.742981,219.265717 
	C214.935989,221.276947 214.935989,223.013336 214.935989,224.749710 
	C214.622833,224.750610 214.309677,224.751526 213.996521,224.752426 
	C214.181000,222.831909 214.365494,220.911392 214.742981,219.265717 
z"/>
<path fill="#CECECE" opacity="1.000000" stroke="none" 
	d="
M180.761169,253.153625 
	C181.004547,253.516876 180.865234,253.746445 180.418900,253.970261 
	C180.310013,253.715988 180.398880,253.401123 180.761169,253.153625 
z"/>
<path fill="#D9D9D9" opacity="1.000000" stroke="none" 
	d="
M289.683289,306.103943 
	C290.389191,307.448700 290.635712,308.773621 291.159119,309.978241 
	C294.505341,317.679901 298.227356,319.009033 305.066956,314.237152 
	C313.823822,308.127594 322.601959,307.024872 332.013641,312.478638 
	C337.023529,315.381714 341.561615,312.218750 346.624023,311.415771 
	C346.997040,312.482300 346.988342,313.217560 346.736816,313.966858 
	C346.493988,313.980927 346.008118,314.005615 345.612488,314.001160 
	C339.483948,316.841003 333.754578,317.089233 328.010895,314.009949 
	C327.751282,313.870789 327.353882,313.988678 326.676819,313.837952 
	C323.557495,313.091370 320.782043,312.493652 317.771729,311.647644 
	C316.455566,311.554169 315.177124,311.391205 314.326904,311.918579 
	C310.575104,314.245667 306.886139,316.686615 303.288696,319.246887 
	C298.677795,322.528381 294.070892,321.907166 291.433411,316.835480 
	C289.738892,313.577057 289.116211,309.761261 288.013092,306.195282 
	C288.459381,306.139679 288.905640,306.084076 289.683289,306.103943 
z"/>
<path fill="#CECECE" opacity="1.000000" stroke="none" 
	d="
M257.024353,304.045166 
	C258.061218,303.680176 259.136169,303.292816 260.582520,303.240845 
	C260.939545,307.465973 256.979492,311.728699 260.956604,315.099548 
	C263.579865,317.322845 268.181580,320.126862 270.480957,319.190918 
	C274.836761,317.417908 280.516785,315.414001 280.970459,308.972351 
	C281.534271,308.363800 282.098053,307.755219 283.063293,306.667847 
	C283.464783,306.188995 283.532959,306.157776 283.292267,306.582947 
	C283.035187,307.339569 283.018829,307.670990 283.038666,308.327637 
	C283.721039,309.106293 284.367188,309.559723 285.006592,310.006317 
	C284.999878,309.999512 284.989594,309.983246 284.929047,310.327332 
	C282.152100,316.382263 277.274841,319.643707 271.734894,322.061279 
	C268.122223,323.637878 264.736969,323.664490 261.778656,320.354431 
	C260.517426,318.943176 258.663330,318.061829 257.066711,316.943176 
	C257.054810,316.946686 257.055878,316.929260 257.000916,316.559601 
	C256.305481,314.126495 255.665009,312.063019 255.048065,309.620697 
	C255.045242,308.486145 255.018906,307.730469 254.992569,306.974792 
	C254.992569,306.974792 255.002380,307.002563 255.330414,307.000427 
	C256.079224,306.289276 256.500000,305.580292 257.011841,304.645508 
	C257.102875,304.419678 257.044159,303.936279 257.044159,303.936279 
	C257.044159,303.936279 257.062469,304.022766 257.024353,304.045166 
z"/>
<path fill="#CECECE" opacity="1.000000" stroke="none" 
	d="
M287.687622,306.129395 
	C289.116211,309.761261 289.738892,313.577057 291.433411,316.835480 
	C294.070892,321.907166 298.677795,322.528381 303.288696,319.246887 
	C306.886139,316.686615 310.575104,314.245667 314.326904,311.918579 
	C315.177124,311.391205 316.455566,311.554169 317.573303,311.939087 
	C314.937073,314.050476 312.271881,315.635010 309.590027,317.190735 
	C305.372131,319.637573 301.358704,322.625549 296.862946,324.356354 
	C291.436127,326.445618 288.474548,323.242981 288.488983,317.550232 
	C288.495361,315.030884 286.225922,312.505737 284.989594,309.983246 
	C284.989594,309.983246 284.999878,309.999512 284.966614,309.681091 
	C284.289703,308.909271 283.646057,308.455841 283.002441,308.002441 
	C283.018829,307.670990 283.035187,307.339569 283.328857,306.591095 
	C284.858154,306.137207 286.110168,306.100342 287.687622,306.129395 
z"/>
<path fill="#F0F0F0" opacity="1.000000" stroke="none" 
	d="
M246.874847,306.850830 
	C247.736450,308.243835 248.595215,309.605377 249.830139,311.417572 
	C248.672607,315.230652 247.138901,318.593109 245.580627,322.009430 
	C250.015030,320.739410 253.466141,319.750977 257.197693,318.982605 
	C260.992035,324.014252 265.250061,326.988953 271.441406,324.369812 
	C274.322388,323.151031 277.186401,321.781219 279.806000,320.089539 
	C282.018524,318.660767 283.867279,316.668671 286.140656,314.697296 
	C286.393494,315.662476 286.670197,316.126617 286.597015,316.526733 
	C285.076996,324.836151 289.185364,329.105377 297.283478,326.497253 
	C302.506439,324.815094 307.144867,321.302765 312.022186,318.569397 
	C314.301331,317.292084 316.475250,315.812073 318.821869,314.684021 
	C319.240234,314.482880 320.271973,315.557800 320.665314,316.077179 
	C318.876007,318.014465 317.135162,319.778870 316.173706,321.897064 
	C315.835846,322.641449 317.219208,324.452423 318.192261,325.384033 
	C318.665741,325.837341 320.603424,325.705933 320.828094,325.282257 
	C321.332092,324.331818 321.285797,323.031677 321.270142,321.876526 
	C321.243439,319.909515 321.067841,317.944580 321.350861,315.993683 
	C323.198151,316.592529 325.693695,316.906525 325.926086,317.805450 
	C327.158386,322.573029 330.619171,321.817657 334.121094,322.053497 
	C340.276337,322.467987 344.994476,319.791168 349.460510,316.108124 
	C350.144287,315.544250 351.139130,315.357635 352.250092,314.886200 
	C352.802917,316.382568 353.233093,317.546997 353.816437,319.125946 
	C360.185791,315.613312 364.964050,316.784302 369.145996,322.935760 
	C370.495758,324.921234 374.893982,326.067261 377.594025,325.646912 
	C383.345734,324.751465 388.696381,322.252991 392.056824,316.703674 
	C392.065369,316.480469 392.108154,316.035767 392.108154,316.035767 
	C392.532959,316.026306 392.957764,316.016815 393.807556,316.265076 
	C394.491455,317.020020 394.750397,317.517273 394.734070,318.204315 
	C390.320770,323.520538 384.800568,326.524323 378.529572,327.867584 
	C373.454132,328.954773 368.771179,327.490875 365.981689,322.803040 
	C363.314880,318.321381 360.340210,319.000153 357.081818,321.668427 
	C354.595978,323.704071 352.321625,325.997894 349.345032,328.736328 
	C348.918488,322.470978 346.004150,322.106873 341.509247,323.181976 
	C336.905396,324.283203 332.063934,324.382721 327.331329,324.960205 
	C326.223145,325.095398 324.981323,325.124329 324.061279,325.654205 
	C317.537262,329.411407 315.531067,328.654938 313.273804,321.397400 
	C296.716766,332.101074 287.772278,331.297607 282.738739,322.248840 
	C274.317902,324.641266 265.968201,333.216614 257.052429,322.622375 
	C251.971725,318.748169 250.396133,323.455414 247.951569,325.977173 
	C247.984009,325.995483 247.963516,325.923859 247.698730,326.091187 
	C247.264618,326.834045 247.095306,327.409576 246.961075,327.983368 
	C246.996155,327.981628 246.946121,327.932312 246.666351,327.990479 
	C246.153824,328.348480 245.921051,328.648254 245.376678,329.000427 
	C239.287201,327.439667 244.607605,323.391449 244.039551,322.033020 
	C236.639236,324.077911 229.743820,326.567291 222.631668,327.723907 
	C218.535538,328.389984 213.879074,327.224548 213.267532,321.677368 
	C215.089432,322.548065 216.515549,323.983337 217.970169,324.012848 
	C220.226532,324.058533 222.502335,323.146240 224.769882,322.640076 
	C223.875336,320.922699 223.155746,319.078033 222.028870,317.529755 
	C221.183426,316.368134 219.814255,315.587708 217.044052,313.270752 
	C215.201492,315.827881 213.362457,318.380096 211.201767,320.994873 
	C206.956406,323.193176 203.147568,325.587494 199.078186,327.395416 
	C194.588776,329.389923 189.694916,329.435638 185.877335,326.185822 
	C182.347656,323.181122 179.891815,323.805573 176.858154,326.557617 
	C174.812714,328.413177 172.449081,330.396149 169.307648,327.511017 
	C169.052170,325.179901 168.933456,323.278198 168.815323,321.386078 
	C163.371292,321.664886 158.220764,321.928650 152.675903,322.119995 
	C151.480179,322.082489 150.678772,322.117401 149.502136,322.089844 
	C146.882736,321.332001 144.638580,320.636658 141.747696,319.740936 
	C141.747696,330.421722 141.747696,340.170319 141.466644,350.117493 
	C139.043686,351.201080 136.901764,352.086090 134.759857,352.971100 
	C134.600510,352.857056 134.451645,352.730652 134.216278,352.493530 
	C135.076691,344.914612 135.603363,337.345978 137.110031,329.977753 
	C138.685638,322.272369 141.203537,314.759674 143.668716,307.170441 
	C145.087646,308.233337 146.147400,309.288574 147.089478,310.654236 
	C145.540375,312.881531 144.108963,314.798431 142.595688,316.824951 
	C156.896530,322.310822 169.468445,320.633606 177.052887,312.009094 
	C177.052887,312.009094 176.996521,311.997314 177.346146,312.008301 
	C178.775284,311.667511 179.854813,311.315735 180.934341,310.963959 
	C181.350174,310.990479 181.766022,311.016998 182.538498,311.358154 
	C181.338531,312.742371 179.832458,313.896118 178.216080,314.866089 
	C172.890305,318.062042 170.950943,322.183105 173.117249,327.496002 
	C175.997940,323.227631 178.607330,319.361206 180.984406,315.839050 
	C183.296555,318.621155 185.133057,320.830933 186.969559,323.040710 
	C186.969559,323.040710 186.994720,322.996155 186.861053,323.275208 
	C186.779037,323.737610 186.830704,323.920959 187.134094,324.400818 
	C190.424576,325.098755 193.696091,326.430573 196.461258,325.738678 
	C207.729889,322.919037 215.207031,314.804779 222.049728,306.029724 
	C222.049728,306.029724 222.010757,305.994415 222.361664,306.092102 
	C222.673447,307.418884 223.127533,309.076660 222.502106,309.796143 
	C220.678452,311.894257 220.922043,313.256683 222.740021,315.288086 
	C225.104248,317.929840 226.929031,321.054352 229.360382,324.502014 
	C240.694519,322.294373 245.891403,317.343536 246.808929,306.817932 
	C246.808929,306.817932 246.872025,306.819397 246.874847,306.850830 
M140.173218,334.857666 
	C140.094742,333.479156 140.016251,332.100677 139.937775,330.722168 
	C139.450775,330.707642 138.963791,330.693146 138.476791,330.678619 
	C137.993118,336.995697 137.509445,343.312805 137.025772,349.629913 
	C137.830048,349.686005 138.634338,349.742126 139.438629,349.798248 
	C139.680618,345.121033 139.922607,340.443817 140.173218,334.857666 
z"/>
<path fill="#B1B1B1" opacity="1.000000" stroke="none" 
	d="
M321.020508,316.043518 
	C320.271973,315.557800 319.240234,314.482880 318.821869,314.684021 
	C316.475250,315.812073 314.301331,317.292084 312.022186,318.569397 
	C307.144867,321.302765 302.506439,324.815094 297.283478,326.497253 
	C289.185364,329.105377 285.076996,324.836151 286.597015,316.526733 
	C286.670197,316.126617 286.393494,315.662476 286.140656,314.697296 
	C283.867279,316.668671 282.018524,318.660767 279.806000,320.089539 
	C277.186401,321.781219 274.322388,323.151031 271.441406,324.369812 
	C265.250061,326.988953 260.992035,324.014252 257.222015,318.680634 
	C257.003448,317.752319 257.041046,317.346008 257.078644,316.939667 
	C258.663330,318.061829 260.517426,318.943176 261.778656,320.354431 
	C264.736969,323.664490 268.122223,323.637878 271.734894,322.061279 
	C277.274841,319.643707 282.152100,316.382263 284.929047,310.327332 
	C286.225922,312.505737 288.495361,315.030884 288.488983,317.550232 
	C288.474548,323.242981 291.436127,326.445618 296.862946,324.356354 
	C301.358704,322.625549 305.372131,319.637573 309.590027,317.190735 
	C312.271881,315.635010 314.937073,314.050476 317.808167,312.187408 
	C320.782043,312.493652 323.557495,313.091370 326.813354,314.150757 
	C333.497772,321.829498 338.367126,321.214600 346.008118,314.005615 
	C346.008118,314.005615 346.493988,313.980927 347.039062,313.968201 
	C348.056091,313.635925 348.528046,313.316315 349.416626,312.989868 
	C351.221985,312.997070 352.610718,313.011078 354.173889,313.351349 
	C356.239899,314.095093 358.131500,314.512573 360.356812,314.939514 
	C363.131317,315.963196 365.572174,316.977386 368.151611,318.301483 
	C374.212067,325.058411 377.116211,325.497009 384.328430,320.948486 
	C386.107300,319.608490 387.553162,318.303223 388.998993,316.997955 
	C389.434418,316.977142 389.869843,316.956299 390.903137,316.943604 
	C391.683411,316.943481 391.865845,316.935181 392.048279,316.926910 
	C388.696381,322.252991 383.345734,324.751465 377.594025,325.646912 
	C374.893982,326.067261 370.495758,324.921234 369.145996,322.935760 
	C364.964050,316.784302 360.185791,315.613312 353.816437,319.125946 
	C353.233093,317.546997 352.802917,316.382568 352.250092,314.886200 
	C351.139130,315.357635 350.144287,315.544250 349.460510,316.108124 
	C344.994476,319.791168 340.276337,322.467987 334.121094,322.053497 
	C330.619171,321.817657 327.158386,322.573029 325.926086,317.805450 
	C325.693695,316.906525 323.198151,316.592529 321.379517,315.997498 
	C321.012085,315.986359 321.020508,316.043518 321.020508,316.043518 
z"/>
<path fill="#D9D9D9" opacity="1.000000" stroke="none" 
	d="
M368.013000,317.991577 
	C365.572174,316.977386 363.131317,315.963196 360.285736,314.600403 
	C358.585693,313.170258 357.290375,312.088715 355.995087,311.007202 
	C360.221802,312.286560 364.678558,313.083679 368.618896,314.963318 
	C373.931427,317.497589 378.908966,319.542053 384.656250,316.347992 
	C385.622253,315.811127 387.201019,316.376862 388.747833,316.715546 
	C387.553162,318.303223 386.107300,319.608490 384.088562,320.675537 
	C378.348114,319.622070 373.180542,318.806824 368.013000,317.991577 
z"/>
<path fill="#D9D9D9" opacity="1.000000" stroke="none" 
	d="
M353.999451,313.025085 
	C352.610718,313.011078 351.221985,312.997070 349.417358,312.657715 
	C349.001007,311.889465 349.000519,311.446564 349.000000,311.003662 
	C350.514221,310.822266 352.028412,310.640869 353.771667,311.067505 
	C354.000305,312.125397 353.999878,312.575256 353.999451,313.025085 
z"/>
<path fill="#CECECE" opacity="1.000000" stroke="none" 
	d="
M354.173889,313.351379 
	C353.999878,312.575256 354.000305,312.125397 354.000366,311.338379 
	C354.443390,311.001434 354.886780,311.001648 355.662628,311.004517 
	C357.290375,312.088715 358.585693,313.170258 359.952026,314.590881 
	C358.131500,314.512573 356.239899,314.095093 354.173889,313.351379 
z"/>
<path fill="#CECECE" opacity="1.000000" stroke="none" 
	d="
M348.668030,311.002747 
	C349.000519,311.446564 349.001007,311.889465 349.000732,312.664551 
	C348.528046,313.316315 348.056091,313.635925 347.281860,313.954163 
	C346.988342,313.217560 346.997040,312.482300 347.007141,311.379028 
	C347.451050,311.007935 347.893555,311.004883 348.668030,311.002747 
z"/>
<path fill="#D9D9D9" opacity="1.000000" stroke="none" 
	d="
M395.009338,318.014526 
	C394.750397,317.517273 394.491455,317.020020 394.126190,316.262604 
	C394.760864,316.004120 395.501892,316.005798 396.613159,316.011810 
	C396.810547,316.574310 396.637634,317.132507 395.974091,317.859863 
	C395.483459,318.029083 395.009338,318.014526 395.009338,318.014526 
z"/>
<path fill="#D9D9D9" opacity="1.000000" stroke="none" 
	d="
M392.056824,316.703674 
	C391.865845,316.935181 391.683411,316.943481 391.228882,316.916138 
	C391.237793,316.488190 391.518799,316.095825 391.953979,315.869598 
	C392.108154,316.035767 392.065369,316.480469 392.056824,316.703674 
z"/>
<path fill="#D9D9D9" opacity="1.000000" stroke="none" 
	d="
M280.605835,308.982483 
	C280.516785,315.414001 274.836761,317.417908 270.480957,319.190918 
	C268.181580,320.126862 263.579865,317.322845 260.956604,315.099548 
	C256.979492,311.728699 260.939545,307.465973 260.928650,303.164093 
	C261.803589,301.919800 262.703705,301.087646 263.897552,300.154419 
	C264.080322,302.056427 264.437744,304.238129 263.756775,306.023865 
	C262.501282,309.316254 262.984833,312.649017 265.753052,313.787537 
	C268.120819,314.761414 271.579987,313.838898 274.299713,312.960449 
	C276.479950,312.256256 278.275116,310.359924 280.605835,308.982483 
z"/>
<path fill="#E8E8E8" opacity="1.000000" stroke="none" 
	d="
M147.207153,310.343781 
	C146.147400,309.288574 145.087646,308.233337 143.902954,306.887268 
	C144.573959,304.431763 145.369888,302.267120 146.345901,299.810669 
	C148.222198,299.030029 149.918427,298.541138 152.029083,298.042480 
	C152.443542,298.032654 152.473007,298.014313 152.626160,298.338440 
	C152.894394,299.126923 153.009506,299.591217 153.085602,300.434601 
	C152.866531,301.549744 152.686478,302.285797 152.506439,303.021881 
	C152.290649,303.151855 152.137039,303.334229 151.876846,304.054810 
	C150.207794,306.475037 148.707474,308.409393 147.207153,310.343781 
z"/>
<path fill="#B1B1B1" opacity="1.000000" stroke="none" 
	d="
M153.124603,300.055542 
	C153.009506,299.591217 152.894394,299.126923 152.643387,298.329712 
	C152.754410,297.990417 153.001358,297.984009 153.618408,297.993225 
	C153.983978,298.464386 153.979462,298.919952 153.750076,299.709717 
	C153.525208,300.043976 153.124603,300.055542 153.124603,300.055542 
z"/>
<path fill="#CECECE" opacity="1.000000" stroke="none" 
	d="
M134.907471,353.341431 
	C136.901764,352.086090 139.043686,351.201080 141.722473,350.290192 
	C142.913116,347.560791 143.566879,344.857269 144.577026,342.000610 
	C145.285172,340.499329 145.971069,339.141235 145.931183,337.804810 
	C145.753799,331.860352 147.175674,326.841583 153.448029,324.023743 
	C156.572067,324.044647 159.248840,324.064789 162.002655,324.417603 
	C164.043060,325.845551 166.006454,326.940826 167.977142,328.030914 
	C167.984451,328.025726 167.963730,328.042480 168.020966,328.426636 
	C170.640778,332.756409 174.136734,330.618134 177.422485,330.346924 
	C180.947708,330.056000 184.721939,329.298340 187.992538,330.191162 
	C193.425064,331.674164 198.028183,329.695526 203.003448,328.608429 
	C206.349670,327.877228 210.333267,327.341553 213.369064,328.482086 
	C219.534332,330.798492 225.330307,331.439972 231.759064,329.775513 
	C234.655151,329.025696 238.044373,330.399414 241.207520,330.382172 
	C243.176636,330.371429 245.141418,329.560883 247.494873,329.073669 
	C251.295532,328.317505 254.709457,327.596924 258.339661,326.911316 
	C258.555969,326.946289 258.994019,326.957184 259.202881,327.251831 
	C264.082458,331.242615 269.146210,330.244751 274.032959,328.391449 
	C278.041809,326.871094 281.379028,327.606232 285.402924,328.864563 
	C290.200348,330.364777 295.841400,330.890564 300.729706,329.909271 
	C305.982056,328.854950 310.698944,326.986298 316.015198,329.683258 
	C317.740448,330.558441 320.303009,330.220490 322.386139,329.867859 
	C327.897034,328.934937 333.413849,327.914062 338.815308,326.497498 
	C342.951233,325.412781 345.957977,326.203766 348.002533,330.035126 
	C347.438080,330.338531 346.780151,331.007874 346.323059,330.891052 
	C337.921936,328.744812 330.019135,332.292114 321.870911,332.859955 
	C318.127106,333.120819 314.304840,332.010345 310.525360,332.060883 
	C304.305756,332.144043 298.093079,332.688873 291.874878,332.983765 
	C290.554291,333.046356 289.047272,333.254822 287.924774,332.742188 
	C281.600250,329.853912 275.206329,331.864166 268.835236,332.199829 
	C267.715454,332.258820 266.536591,332.503326 265.480774,332.255005 
	C259.230591,330.784973 253.124237,332.172180 246.915176,332.448456 
	C235.986008,332.934814 224.910873,335.623901 213.847580,332.156036 
	C210.292938,331.041809 205.853470,331.123138 202.243027,332.149628 
	C194.499527,334.351196 186.814148,332.726135 179.125443,332.907074 
	C174.632797,333.012756 170.102753,332.336609 165.620117,331.770203 
	C162.720428,331.403839 159.901642,330.346008 157.000671,330.053192 
	C152.887390,329.637970 150.898178,331.702484 149.836319,335.851349 
	C148.318253,341.782623 148.717545,348.531036 143.409180,353.124725 
	C140.698639,355.470306 138.014526,355.989136 134.907471,353.341431 
z"/>
<path fill="#B1B1B1" opacity="1.000000" stroke="none" 
	d="
M258.123383,326.876343 
	C254.709457,327.596924 251.295532,328.317505 247.464188,329.042603 
	C247.046753,329.047119 246.985001,328.985352 246.981171,328.721863 
	C246.966949,328.283051 246.956543,328.107697 246.946121,327.932312 
	C246.946121,327.932312 246.996155,327.981628 247.231400,327.827362 
	C247.632263,327.089996 247.797882,326.506927 247.963501,325.923859 
	C247.963516,325.923859 247.984009,325.995483 248.334625,325.996948 
	C251.519531,324.987701 254.353821,323.976990 257.188110,322.966248 
	C265.968201,333.216614 274.317902,324.641266 282.738739,322.248840 
	C287.772278,331.297607 296.716766,332.101074 313.273804,321.397400 
	C315.531067,328.654938 317.537262,329.411407 324.061279,325.654205 
	C324.981323,325.124329 326.223145,325.095398 327.331329,324.960205 
	C332.063934,324.382721 336.905396,324.283203 341.509247,323.181976 
	C346.004150,322.106873 348.918488,322.470978 349.345032,328.736328 
	C352.321625,325.997894 354.595978,323.704071 357.081818,321.668427 
	C360.340210,319.000153 363.314880,318.321381 365.981689,322.803040 
	C368.771179,327.490875 373.454132,328.954773 378.529572,327.867584 
	C384.800568,326.524323 390.320770,323.520538 394.734070,318.204315 
	C395.009338,318.014526 395.483459,318.029083 395.719971,318.018555 
	C395.723938,318.813141 395.491394,319.618286 394.826843,320.853271 
	C390.246704,324.462738 386.098572,327.642395 381.950439,330.822052 
	C381.517090,330.844208 381.083771,330.866364 380.039581,330.629761 
	C376.952759,330.247864 374.476746,330.124695 371.694733,329.856934 
	C369.934631,329.131897 368.480560,328.551483 367.019104,327.975922 
	C367.011688,327.980774 367.030151,327.971802 366.872742,327.663422 
	C364.262970,323.058014 360.610168,324.018829 357.263092,325.613007 
	C355.263489,326.565399 353.741180,328.519867 352.004303,330.023865 
	C350.937103,330.026306 349.869873,330.028748 348.402588,330.033142 
	C345.957977,326.203766 342.951233,325.412781 338.815308,326.497498 
	C333.413849,327.914062 327.897034,328.934937 322.386139,329.867859 
	C320.303009,330.220490 317.740448,330.558441 316.015198,329.683258 
	C310.698944,326.986298 305.982056,328.854950 300.729706,329.909271 
	C295.841400,330.890564 290.200348,330.364777 285.402924,328.864563 
	C281.379028,327.606232 278.041809,326.871094 274.032959,328.391449 
	C269.146210,330.244751 264.082458,331.242615 259.123718,327.105469 
	C258.835724,326.664398 258.430664,326.527283 258.430664,326.527283 
	C258.430664,326.527283 258.123383,326.876373 258.123383,326.876343 
z"/>
<path fill="#E8E8E8" opacity="1.000000" stroke="none" 
	d="
M287.821533,336.663818 
	C287.610657,337.280609 287.065094,337.905701 286.854584,337.808105 
	C279.510376,334.403381 271.933228,337.504120 264.505585,337.285675 
	C251.696732,336.908875 238.840637,338.622528 225.993805,338.842865 
	C219.778763,338.949402 213.552292,337.443787 207.306976,337.077057 
	C203.411179,336.848297 199.470535,337.383240 195.274994,337.284607 
	C202.237305,334.505798 209.481812,333.529633 217.138214,335.414490 
	C220.830780,336.323547 224.854889,335.955750 228.731430,336.028137 
	C232.629181,336.100952 236.530106,335.998993 240.429672,335.980652 
	C242.090195,335.972839 243.755707,336.067017 245.410599,335.971130 
	C256.360596,335.336517 267.302246,334.454590 278.260651,334.134705 
	C281.364075,334.044098 284.514313,335.557434 287.821533,336.663818 
z"/>
<path fill="#E8E8E8" opacity="1.000000" stroke="none" 
	d="
M191.749908,336.714355 
	C190.289886,337.328918 188.591156,337.867279 186.867691,337.963654 
	C179.320297,338.385864 171.760178,338.588837 164.215591,339.050049 
	C158.418610,339.404419 154.541672,342.633362 152.077469,347.774078 
	C151.394714,349.198364 150.493347,350.517883 149.343262,351.939697 
	C150.587051,346.850433 151.797852,341.533691 154.005066,336.669006 
	C154.668625,335.206543 158.106720,334.337769 160.272614,334.339996 
	C168.602341,334.348511 176.935196,334.749359 185.258499,335.169556 
	C187.354874,335.275391 189.420212,335.996429 191.749908,336.714355 
z"/>
<path fill="#CECECE" opacity="1.000000" stroke="none" 
	d="
M352.236694,330.291443 
	C353.741180,328.519867 355.263489,326.565399 357.263092,325.613007 
	C360.610168,324.018829 364.262970,323.058014 366.435974,327.674927 
	C363.763000,328.654266 361.369293,329.313660 358.975616,329.973083 
	C356.806793,330.168396 354.637939,330.363708 352.236694,330.291443 
z"/>
<path fill="#D9D9D9" opacity="1.000000" stroke="none" 
	d="
M359.382385,329.982056 
	C361.369293,329.313660 363.763000,328.654266 366.593414,327.983337 
	C367.030151,327.971802 367.011688,327.980774 367.010071,328.352661 
	C367.010590,329.476044 367.012695,330.227539 367.014832,330.979065 
	C366.567108,330.986115 366.119385,330.993134 365.335846,331.000702 
	C363.263031,330.664490 361.526093,330.327759 359.382385,329.982056 
z"/>
<path fill="#E8E8E8" opacity="1.000000" stroke="none" 
	d="
M144.653549,356.031586 
	C143.894608,356.974274 142.789825,357.949738 141.337158,358.949158 
	C142.095428,358.003540 143.201569,357.033966 144.653549,356.031586 
z"/>
<path fill="#D9D9D9" opacity="1.000000" stroke="none" 
	d="
M382.147522,331.124146 
	C386.098572,327.642395 390.246704,324.462738 394.701660,321.148071 
	C393.818909,326.449921 387.837372,331.368347 382.147522,331.124146 
z"/>
<path fill="#D9D9D9" opacity="1.000000" stroke="none" 
	d="
M372.000763,330.001526 
	C374.476746,330.124695 376.952759,330.247864 379.714386,330.641785 
	C377.759033,334.457336 375.002167,333.496582 372.080933,331.168365 
	C372.000031,330.351746 372.000397,330.176636 372.000763,330.001526 
z"/>
<path fill="#CECECE" opacity="1.000000" stroke="none" 
	d="
M371.694733,329.856934 
	C372.000397,330.176636 372.000031,330.351746 371.996307,330.790131 
	C370.929108,331.037415 369.865234,331.021454 368.152405,330.998657 
	C367.503448,330.991882 367.003662,330.995941 367.003662,330.995941 
	C367.003662,330.995941 367.002991,330.996613 367.008911,330.987854 
	C367.012695,330.227539 367.010590,329.476044 367.017487,328.347778 
	C368.480560,328.551483 369.934631,329.131897 371.694733,329.856934 
z"/>
<path fill="#E0E0E0" opacity="1.000000" stroke="none" 
	d="
M367.005310,331.322388 
	C367.003662,330.995941 367.503448,330.991882 367.753326,330.997772 
	C368.218475,331.789459 368.433746,332.575287 368.649017,333.361084 
	C368.393951,333.455872 368.138885,333.550659 367.883820,333.645447 
	C367.591522,332.979889 367.299225,332.314362 367.005310,331.322388 
z"/>
<path fill="#B1B1B1" opacity="1.000000" stroke="none" 
	d="
M246.406433,306.869751 
	C245.891403,317.343536 240.694519,322.294373 229.360382,324.502014 
	C226.929031,321.054352 225.104248,317.929840 222.740021,315.288086 
	C220.922043,313.256683 220.678452,311.894257 222.502106,309.796143 
	C223.127533,309.076660 222.673447,307.418884 222.358337,306.118164 
	C225.354034,303.906464 225.307541,306.936432 225.937073,308.713104 
	C226.524445,310.370819 226.344406,312.790619 227.455414,313.668335 
	C229.618393,315.377136 232.836884,317.699829 234.919037,317.144928 
	C238.944321,316.072144 241.898438,312.749878 241.977264,307.555359 
	C243.312912,307.092621 244.658417,307.007111 246.406433,306.869751 
z"/>
<path fill="#989898" opacity="1.000000" stroke="none" 
	d="
M147.089478,310.654236 
	C148.707474,308.409393 150.207794,306.475037 151.837509,304.231873 
	C152.282059,304.718933 152.597214,305.514740 152.609406,306.883057 
	C147.976425,315.686768 149.572083,318.168365 159.050827,317.944641 
	C159.469055,317.940857 159.887299,317.937073 161.000244,317.928406 
	C165.794586,315.989929 169.894196,314.056305 173.993805,312.122681 
	C174.758530,312.060333 175.523239,311.997986 176.670425,311.972351 
	C169.468445,320.633606 156.896530,322.310822 142.595688,316.824951 
	C144.108963,314.798431 145.540375,312.881531 147.089478,310.654236 
z"/>
<path fill="#B1B1B1" opacity="1.000000" stroke="none" 
	d="
M221.691162,306.041840 
	C215.207031,314.804779 207.729889,322.919037 196.461258,325.738678 
	C193.696091,326.430573 190.424576,325.098755 187.392426,324.261566 
	C187.642303,323.524811 187.885590,323.223816 188.128845,322.922791 
	C196.627167,326.386749 202.269424,321.166412 208.118271,316.419495 
	C212.464462,312.892151 216.923691,309.504059 221.691162,306.041840 
z"/>
<path fill="#989898" opacity="1.000000" stroke="none" 
	d="
M187.009079,322.656677 
	C185.133057,320.830933 183.296555,318.621155 180.984406,315.839050 
	C178.607330,319.361206 175.997940,323.227631 173.117249,327.496002 
	C170.950943,322.183105 172.890305,318.062042 178.216080,314.866089 
	C179.832458,313.896118 181.338531,312.742371 182.848663,311.316742 
	C184.217667,314.731323 185.633133,318.501953 187.009079,322.656677 
z"/>
<path fill="#B1B1B1" opacity="1.000000" stroke="none" 
	d="
M158.979767,317.609497 
	C149.572083,318.168365 147.976425,315.686768 152.565231,307.232361 
	C154.117584,310.866333 155.019150,314.955902 158.979767,317.609497 
z"/>
<path fill="#B1B1B1" opacity="1.000000" stroke="none" 
	d="
M173.810272,311.849731 
	C169.894196,314.056305 165.794586,315.989929 161.313904,317.925171 
	C165.164139,315.810150 169.395432,313.693451 173.810272,311.849731 
z"/>
<path fill="#989898" opacity="1.000000" stroke="none" 
	d="
M180.727631,310.693542 
	C179.854813,311.315735 178.775284,311.667511 177.348694,312.036987 
	C178.174713,311.510834 179.347809,310.966980 180.727631,310.693542 
z"/>
<path fill="#989898" opacity="1.000000" stroke="none" 
	d="
M153.085602,300.434601 
	C153.124603,300.055542 153.525208,300.043976 153.724731,300.050537 
	C153.689896,300.969574 153.455536,301.882019 152.863800,302.908203 
	C152.686478,302.285797 152.866531,301.549744 153.085602,300.434601 
z"/>
<path fill="#989898" opacity="1.000000" stroke="none" 
	d="
M187.832520,322.917297 
	C187.885590,323.223816 187.642303,323.524811 187.140686,323.965027 
	C186.830704,323.920959 186.779037,323.737610 186.841400,323.292267 
	C187.149002,322.990784 187.342606,322.951294 187.832520,322.917297 
z"/>
<path fill="#989898" opacity="1.000000" stroke="none" 
	d="
M257.066711,316.943176 
	C257.041046,317.346008 257.003448,317.752319 256.941528,318.460632 
	C253.466141,319.750977 250.015030,320.739410 245.580627,322.009430 
	C247.138901,318.593109 248.672607,315.230652 250.192841,311.499420 
	C250.179398,311.130646 250.121231,311.055878 250.344513,311.201965 
	C250.757553,311.285156 250.947296,311.222290 251.137024,311.159454 
	C252.218521,309.836487 253.300018,308.513519 254.687042,307.082703 
	C255.018906,307.730469 255.045242,308.486145 254.755432,309.824341 
	C252.182861,313.836121 252.255005,316.331207 257.055878,316.929260 
	C257.055878,316.929260 257.054810,316.946686 257.066711,316.943176 
z"/>
<path fill="#181818" opacity="1.000000" stroke="none" 
	d="
M250.647705,302.399414 
	C252.596649,297.618500 254.414139,293.183563 256.231628,288.748596 
	C256.963226,289.053955 257.694855,289.359314 258.426453,289.664673 
	C256.109680,295.515320 253.792923,301.365967 251.476166,307.216583 
	C250.865173,307.022278 250.254196,306.827972 249.643219,306.633667 
	C249.934219,305.337555 250.225235,304.041443 250.647705,302.399414 
z"/>
<path fill="#989898" opacity="1.000000" stroke="none" 
	d="
M256.920807,304.871307 
	C256.500000,305.580292 256.079224,306.289276 255.316040,306.997070 
	C255.136871,306.376556 255.300095,305.757202 255.977859,304.955811 
	C256.492401,304.773743 256.920807,304.871307 256.920807,304.871307 
z"/>
<path fill="#040404" opacity="1.000000" stroke="none" 
	d="
M257.011841,304.645508 
	C256.920807,304.871307 256.492401,304.773743 256.297272,304.874664 
	C256.205048,304.555267 256.307983,304.134918 256.727539,303.825439 
	C257.044159,303.936279 257.102875,304.419678 257.011841,304.645508 
z"/>
<path fill="#F0F0F0" opacity="1.000000" stroke="none" 
	d="
M251.032822,310.963928 
	C250.947296,311.222290 250.757553,311.285156 250.298889,311.214630 
	C250.329514,310.976959 250.629059,310.872681 251.032822,310.963928 
z"/>
<path fill="#CECECE" opacity="1.000000" stroke="none" 
	d="
M345.612488,314.001160 
	C338.367126,321.214600 333.497772,321.829498 327.157166,314.299652 
	C327.353882,313.988678 327.751282,313.870789 328.010895,314.009949 
	C333.754578,317.089233 339.483948,316.841003 345.612488,314.001160 
z"/>
<path fill="#B1B1B1" opacity="1.000000" stroke="none" 
	d="
M257.000916,316.559601 
	C252.255005,316.331207 252.182861,313.836121 254.731934,310.203247 
	C255.665009,312.063019 256.305481,314.126495 257.000916,316.559601 
z"/>
<path fill="#B1B1B1" opacity="1.000000" stroke="none" 
	d="
M283.038666,308.327637 
	C283.646057,308.455841 284.289703,308.909271 284.973328,309.687897 
	C284.367188,309.559723 283.721039,309.106293 283.038666,308.327637 
z"/>
<path fill="#B1B1B1" opacity="1.000000" stroke="none" 
	d="
M247.077454,329.078186 
	C245.141418,329.560883 243.176636,330.371429 241.207520,330.382172 
	C238.044373,330.399414 234.655151,329.025696 231.759064,329.775513 
	C225.330307,331.439972 219.534332,330.798492 213.369064,328.482086 
	C210.333267,327.341553 206.349670,327.877228 203.003448,328.608429 
	C198.028183,329.695526 193.425064,331.674164 187.992538,330.191162 
	C184.721939,329.298340 180.947708,330.056000 177.422485,330.346924 
	C174.136734,330.618134 170.640778,332.756409 168.390808,328.393494 
	C168.950409,327.964233 169.197388,327.952332 169.444382,327.940430 
	C172.449081,330.396149 174.812714,328.413177 176.858154,326.557617 
	C179.891815,323.805573 182.347656,323.181122 185.877335,326.185822 
	C189.694916,329.435638 194.588776,329.389923 199.078186,327.395416 
	C203.147568,325.587494 206.956406,323.193176 211.465027,321.038483 
	C212.328140,321.216980 212.606339,321.414429 212.884537,321.611877 
	C213.879074,327.224548 218.535538,328.389984 222.631668,327.723907 
	C229.743820,326.567291 236.639236,324.077911 244.039551,322.033020 
	C244.607605,323.391449 239.287201,327.439667 245.701813,329.013428 
	C246.554031,328.977783 246.769516,328.981567 246.985001,328.985352 
	C246.985001,328.985352 247.046753,329.047119 247.077454,329.078186 
z"/>
<path fill="#989898" opacity="1.000000" stroke="none" 
	d="
M213.267532,321.677368 
	C212.606339,321.414429 212.328140,321.216980 211.786682,320.975952 
	C213.362457,318.380096 215.201492,315.827881 217.044052,313.270752 
	C219.814255,315.587708 221.183426,316.368134 222.028870,317.529755 
	C223.155746,319.078033 223.875336,320.922699 224.769882,322.640076 
	C222.502335,323.146240 220.226532,324.058533 217.970169,324.012848 
	C216.515549,323.983337 215.089432,322.548065 213.267532,321.677368 
z"/>
<path fill="#989898" opacity="1.000000" stroke="none" 
	d="
M144.220642,342.153748 
	C143.566879,344.857269 142.913116,347.560791 142.003525,350.091614 
	C141.747696,340.170319 141.747696,330.421722 141.747696,319.740936 
	C144.638580,320.636658 146.882736,321.332001 149.251801,322.357300 
	C145.234711,322.652527 143.519501,324.474182 143.935043,328.797516 
	C144.359909,333.217896 144.151718,337.699158 144.220642,342.153748 
z"/>
<path fill="#B1B1B1" opacity="1.000000" stroke="none" 
	d="
M144.577026,342.000610 
	C144.151718,337.699158 144.359909,333.217896 143.935043,328.797516 
	C143.519501,324.474182 145.234711,322.652527 149.627045,322.419800 
	C150.678772,322.117401 151.480179,322.082489 152.658493,322.423645 
	C153.023865,323.207458 153.012314,323.615204 153.000763,324.022949 
	C147.175674,326.841583 145.753799,331.860352 145.931183,337.804810 
	C145.971069,339.141235 145.285172,340.499329 144.577026,342.000610 
z"/>
<path fill="#989898" opacity="1.000000" stroke="none" 
	d="
M140.168915,335.312134 
	C139.922607,340.443817 139.680618,345.121033 139.438629,349.798248 
	C138.634338,349.742126 137.830048,349.686005 137.025772,349.629913 
	C137.509445,343.312805 137.993118,336.995697 138.476791,330.678619 
	C138.963791,330.693146 139.450775,330.707642 139.937775,330.722168 
	C140.016251,332.100677 140.094742,333.479156 140.168915,335.312134 
z"/>
<path fill="#989898" opacity="1.000000" stroke="none" 
	d="
M153.448029,324.023743 
	C153.012314,323.615204 153.023865,323.207458 153.052826,322.496063 
	C158.220764,321.928650 163.371292,321.664886 168.815323,321.386078 
	C168.933456,323.278198 169.052170,325.179901 169.307648,327.511017 
	C169.197388,327.952332 168.950409,327.964233 168.333572,328.009338 
	C167.963730,328.042480 167.984451,328.025726 167.848862,327.677979 
	C167.142975,323.824982 164.693756,323.670593 161.925629,324.084930 
	C159.248840,324.064789 156.572067,324.044647 153.448029,324.023743 
z"/>
<path fill="#989898" opacity="1.000000" stroke="none" 
	d="
M320.983459,315.982544 
	C321.067841,317.944580 321.243439,319.909515 321.270142,321.876526 
	C321.285797,323.031677 321.332092,324.331818 320.828094,325.282257 
	C320.603424,325.705933 318.665741,325.837341 318.192261,325.384033 
	C317.219208,324.452423 315.835846,322.641449 316.173706,321.897064 
	C317.135162,319.778870 318.876007,318.014465 320.665314,316.077179 
	C321.020508,316.043518 321.012085,315.986359 320.983459,315.982544 
z"/>
<path fill="#989898" opacity="1.000000" stroke="none" 
	d="
M257.052429,322.622375 
	C254.353821,323.976990 251.519531,324.987701 248.302185,325.978638 
	C250.396133,323.455414 251.971725,318.748169 257.052429,322.622375 
z"/>
<path fill="#989898" opacity="1.000000" stroke="none" 
	d="
M247.698730,326.091187 
	C247.797882,326.506927 247.632263,327.089996 247.196320,327.829102 
	C247.095306,327.409576 247.264618,326.834045 247.698730,326.091187 
z"/>
<path fill="#989898" opacity="1.000000" stroke="none" 
	d="
M246.981171,328.721863 
	C246.769516,328.981567 246.554031,328.977783 246.013412,328.961029 
	C245.921051,328.648254 246.153824,328.348480 246.666351,327.990479 
	C246.956543,328.107697 246.966949,328.283051 246.981171,328.721863 
z"/>
<path fill="#CECECE" opacity="1.000000" stroke="none" 
	d="
M368.151611,318.301483 
	C373.180542,318.806824 378.348114,319.622070 383.755554,320.710266 
	C377.116211,325.497009 374.212067,325.058411 368.151611,318.301483 
z"/>
<path fill="#B1B1B1" opacity="1.000000" stroke="none" 
	d="
M162.002655,324.417603 
	C164.693756,323.670593 167.142975,323.824982 167.841553,327.683167 
	C166.006454,326.940826 164.043060,325.845551 162.002655,324.417603 
z"/>
<path fill="#989898" opacity="1.000000" stroke="none" 
	d="
M258.339661,326.911316 
	C258.123383,326.876373 258.430664,326.527283 258.430664,326.527283 
	C258.430664,326.527283 258.835724,326.664398 258.914856,326.810791 
	C258.994019,326.957184 258.555969,326.946289 258.339661,326.911316 
z"/>
</svg>